{"glyphs":{"0":{"ha":801,"x_min":50,"x_max":749,"o":"m 400 -15 q 142 95 233 -15 q 50 403 50 206 q 142 708 50 599 q 400 817 233 817 q 658 708 567 817 q 749 403 749 600 q 658 95 749 206 q 400 -15 567 -15 m 400 143 q 501 207 468 143 q 533 403 533 271 q 501 596 533 532 q 400 660 468 660 q 299 596 332 660 q 267 403 267 532 q 299 208 267 272 q 400 143 332 143 z "},"1":{"ha":569,"x_min":47,"x_max":549,"o":"m 47 132 l 186 132 l 186 658 l 53 642 l 47 761 l 413 803 l 413 132 l 549 132 l 549 0 l 47 0 l 47 132 z "},"2":{"ha":739,"x_min":60,"x_max":665,"o":"m 665 260 l 665 0 l 61 0 l 61 128 l 307 358 q 417 477 385 432 q 450 571 450 522 q 426 642 450 615 q 356 668 403 668 q 274 634 303 668 q 244 544 244 600 q 253 468 244 510 l 72 468 q 60 561 60 513 q 94 691 60 633 q 199 783 129 749 q 369 817 269 817 q 580 756 503 817 q 657 594 657 696 q 606 441 657 513 q 428 256 554 369 l 300 136 l 532 136 l 532 260 l 665 260 z "},"3":{"ha":764,"x_min":42,"x_max":697,"o":"m 543 417 q 656 345 615 394 q 697 219 697 296 q 610 47 697 110 q 381 -15 524 -15 q 161 40 246 -15 q 42 200 76 96 l 210 268 q 271 172 229 204 q 368 139 313 139 q 451 165 419 139 q 482 236 482 190 q 321 350 482 350 l 321 467 q 434 495 394 467 q 474 576 474 524 q 447 643 474 618 q 374 668 421 668 q 285 635 319 668 q 240 543 251 601 l 67 601 q 176 762 89 707 q 392 817 263 817 q 603 757 528 817 q 679 600 679 697 q 642 486 679 533 q 543 417 606 439 z "},"4":{"ha":788,"x_min":42,"x_max":735,"o":"m 275 131 l 415 131 l 415 243 l 58 243 l 42 336 l 424 803 l 621 803 l 621 356 l 735 356 l 735 243 l 621 243 l 621 131 l 718 131 l 718 0 l 275 0 l 275 131 m 415 356 l 415 621 l 204 356 l 415 356 z "},"5":{"ha":785,"x_min":69,"x_max":708,"o":"m 446 531 q 640 460 571 531 q 708 271 708 390 q 666 116 708 181 q 551 18 624 51 q 389 -15 479 -15 q 69 101 214 -15 l 149 231 q 255 165 204 188 q 367 143 306 143 q 472 176 435 143 q 510 268 510 210 q 477 352 510 321 q 388 383 444 383 q 250 325 311 383 l 108 378 l 119 803 l 672 803 l 672 592 l 536 592 l 536 672 l 265 672 l 260 483 q 446 531 339 531 z "},"6":{"ha":754,"x_min":61,"x_max":700,"o":"m 415 543 q 623 469 546 543 q 700 271 700 394 q 659 119 700 183 q 545 19 618 54 q 376 -15 472 -15 q 147 61 232 -15 q 61 268 61 138 q 90 422 61 350 q 194 603 119 494 l 382 876 l 529 779 l 364 538 q 415 543 386 543 m 382 133 q 467 171 438 133 q 497 274 497 208 q 467 374 497 338 q 383 410 438 410 q 298 373 331 410 q 265 272 265 336 q 296 171 265 208 q 382 133 326 133 z "},"7":{"ha":710,"x_min":35,"x_max":654,"o":"m 439 671 l 185 671 l 185 550 l 35 550 l 35 803 l 654 803 l 654 678 l 396 0 l 179 0 l 439 671 z "},"8":{"ha":764,"x_min":58,"x_max":707,"o":"m 379 -15 q 209 13 282 -15 q 97 94 136 42 q 58 213 58 146 q 96 331 58 281 q 200 408 133 381 q 85 588 85 471 q 167 753 85 692 q 383 817 250 815 q 598 760 517 817 q 679 606 679 703 q 554 414 679 474 q 707 225 707 357 q 665 100 707 154 q 549 15 624 46 q 379 -15 475 -15 m 426 458 q 490 601 490 510 q 467 676 490 649 q 397 704 443 704 q 325 674 350 704 q 300 592 300 643 q 331 509 300 540 q 426 458 361 478 m 376 89 q 459 124 429 89 q 489 215 489 158 q 453 303 489 271 q 335 358 418 336 q 277 306 299 343 q 256 215 256 268 q 288 124 256 158 q 376 89 321 89 z "},"9":{"ha":754,"x_min":53,"x_max":693,"o":"m 376 817 q 608 741 522 817 q 693 535 693 665 q 663 381 693 453 q 558 199 633 310 l 372 -75 l 225 22 l 390 264 q 339 258 368 258 q 130 333 207 258 q 53 531 53 408 q 94 683 53 618 q 208 782 135 747 q 376 817 281 817 m 369 392 q 456 428 424 392 q 489 529 489 465 q 458 631 489 593 q 372 668 428 668 q 286 631 317 668 q 256 528 256 593 q 285 428 256 464 q 369 392 315 392 z "},"\u0000":{"ha":0,"x_min":0,"x_max":0,"o":""},"\r":{"ha":439,"x_min":0,"x_max":0,"o":""}," ":{"ha":439,"x_min":0,"x_max":0,"o":""},"A":{"ha":1014,"x_min":31,"x_max":983,"o":"m 31 142 l 113 142 l 308 660 l 231 660 l 231 803 l 783 803 l 783 660 l 704 660 l 903 142 l 983 142 l 983 0 l 575 0 l 575 142 l 664 142 l 618 283 l 369 283 l 324 142 l 401 142 l 401 0 l 31 0 l 31 142 m 578 417 l 501 660 l 493 660 l 413 417 l 578 417 z "},"Á":{"ha":1014,"x_min":31,"x_max":983,"o":"m 31 142 l 113 142 l 308 660 l 231 660 l 231 803 l 783 803 l 783 660 l 704 660 l 903 142 l 983 142 l 983 0 l 575 0 l 575 142 l 664 142 l 618 283 l 369 283 l 324 142 l 401 142 l 401 0 l 31 0 l 31 142 m 578 417 l 501 660 l 493 660 l 413 417 l 578 417 m 508 1132 l 700 1132 l 565 892 l 449 892 l 508 1132 z "},"Ă":{"ha":1014,"x_min":31,"x_max":983,"o":"m 31 142 l 113 142 l 308 660 l 231 660 l 231 803 l 783 803 l 783 660 l 704 660 l 903 142 l 983 142 l 983 0 l 575 0 l 575 142 l 664 142 l 618 283 l 369 283 l 324 142 l 401 142 l 401 0 l 31 0 l 31 142 m 578 417 l 501 660 l 493 660 l 413 417 l 578 417 m 507 899 q 347 949 403 899 q 285 1096 290 999 l 419 1096 q 447 1032 425 1054 q 507 1010 469 1010 q 594 1096 586 1010 l 729 1096 q 664 949 721 999 q 507 899 607 899 z "},"Ắ":{"ha":1014,"x_min":31,"x_max":983,"o":"m 31 142 l 113 142 l 308 660 l 231 660 l 231 803 l 783 803 l 783 660 l 704 660 l 903 142 l 983 142 l 983 0 l 575 0 l 575 142 l 664 142 l 618 283 l 369 283 l 324 142 l 401 142 l 401 0 l 31 0 l 31 142 m 578 417 l 501 660 l 493 660 l 413 417 l 578 417 m 510 1288 l 672 1288 l 546 1103 l 446 1103 l 510 1288 m 507 893 q 347 938 403 893 q 285 1071 290 983 l 408 1071 q 507 989 424 989 q 576 1010 550 989 q 604 1071 601 1031 l 729 1071 q 664 939 721 983 q 507 893 607 894 z "},"Ặ":{"ha":1014,"x_min":31,"x_max":983,"o":"m 31 142 l 113 142 l 308 660 l 231 660 l 231 803 l 783 803 l 783 660 l 704 660 l 903 142 l 983 142 l 983 0 l 575 0 l 575 142 l 664 142 l 618 283 l 369 283 l 324 142 l 401 142 l 401 0 l 31 0 l 31 142 m 578 417 l 501 660 l 493 660 l 413 417 l 578 417 m 507 899 q 347 949 403 899 q 285 1096 290 999 l 419 1096 q 447 1032 425 1054 q 507 1010 469 1010 q 594 1096 586 1010 l 729 1096 q 664 949 721 999 q 507 899 607 899 m 489 -269 q 414 -242 443 -269 q 385 -174 385 -215 q 413 -103 385 -129 q 489 -78 442 -78 q 565 -105 536 -78 q 593 -176 593 -132 q 564 -243 593 -217 q 489 -269 535 -269 z "},"Ằ":{"ha":1014,"x_min":31,"x_max":983,"o":"m 31 142 l 113 142 l 308 660 l 231 660 l 231 803 l 783 803 l 783 660 l 704 660 l 903 142 l 983 142 l 983 0 l 575 0 l 575 142 l 664 142 l 618 283 l 369 283 l 324 142 l 401 142 l 401 0 l 31 0 l 31 142 m 578 417 l 501 660 l 493 660 l 413 417 l 578 417 m 342 1288 l 504 1288 l 567 1103 l 467 1103 l 342 1288 m 507 893 q 347 938 403 893 q 285 1071 290 983 l 408 1071 q 507 989 424 989 q 576 1010 550 989 q 604 1071 601 1031 l 729 1071 q 664 939 721 983 q 507 893 607 894 z "},"Ẳ":{"ha":1014,"x_min":31,"x_max":983,"o":"m 31 142 l 113 142 l 308 660 l 231 660 l 231 803 l 783 803 l 783 660 l 704 660 l 903 142 l 983 142 l 983 0 l 575 0 l 575 142 l 664 142 l 618 283 l 369 283 l 324 142 l 401 142 l 401 0 l 31 0 l 31 142 m 578 417 l 501 660 l 493 660 l 413 417 l 578 417 m 476 1133 q 522 1186 522 1151 q 507 1216 522 1206 q 465 1226 492 1226 q 386 1201 426 1226 l 364 1271 q 424 1305 389 1292 q 494 1318 458 1318 q 591 1288 554 1318 q 628 1208 628 1258 q 594 1122 628 1156 q 496 1072 560 1088 l 476 1133 m 507 893 q 347 938 403 893 q 285 1071 290 983 l 408 1071 q 507 989 424 989 q 576 1010 550 989 q 604 1071 601 1031 l 729 1071 q 664 939 721 983 q 507 893 607 894 z "},"Ẵ":{"ha":1014,"x_min":31,"x_max":983,"o":"m 31 142 l 113 142 l 308 660 l 231 660 l 231 803 l 783 803 l 783 660 l 704 660 l 903 142 l 983 142 l 983 0 l 575 0 l 575 142 l 664 142 l 618 283 l 369 283 l 324 142 l 401 142 l 401 0 l 31 0 l 31 142 m 578 417 l 501 660 l 493 660 l 413 417 l 578 417 m 611 1128 q 552 1138 582 1128 q 482 1165 522 1147 q 400 1192 424 1192 q 344 1136 350 1192 l 247 1136 q 298 1272 256 1229 q 406 1315 340 1315 q 457 1307 432 1315 q 519 1281 482 1299 q 613 1251 581 1251 q 671 1308 663 1251 l 767 1308 q 718 1172 758 1217 q 611 1128 678 1128 m 507 893 q 347 938 403 893 q 285 1071 290 983 l 408 1071 q 507 989 424 989 q 576 1010 550 989 q 604 1071 601 1031 l 729 1071 q 664 939 721 983 q 507 893 607 894 z "},"Ǎ":{"ha":1014,"x_min":31,"x_max":983,"o":"m 31 142 l 113 142 l 308 660 l 231 660 l 231 803 l 783 803 l 783 660 l 704 660 l 903 142 l 983 142 l 983 0 l 575 0 l 575 142 l 664 142 l 618 283 l 369 283 l 324 142 l 401 142 l 401 0 l 31 0 l 31 142 m 578 417 l 501 660 l 493 660 l 413 417 l 578 417 m 293 1129 l 429 1129 l 513 972 l 596 1129 l 719 1129 l 624 888 l 401 888 l 293 1129 z "},"Â":{"ha":1014,"x_min":31,"x_max":983,"o":"m 31 142 l 113 142 l 308 660 l 231 660 l 231 803 l 783 803 l 783 660 l 704 660 l 903 142 l 983 142 l 983 0 l 575 0 l 575 142 l 664 142 l 618 283 l 369 283 l 324 142 l 401 142 l 401 0 l 31 0 l 31 142 m 578 417 l 501 660 l 493 660 l 413 417 l 578 417 m 403 1131 l 614 1131 l 731 888 l 601 888 l 507 1046 l 413 888 l 283 888 l 403 1131 z "},"Ấ":{"ha":1014,"x_min":31,"x_max":983,"o":"m 31 142 l 113 142 l 308 660 l 231 660 l 231 803 l 783 803 l 783 660 l 704 660 l 903 142 l 983 142 l 983 0 l 575 0 l 575 142 l 664 142 l 618 283 l 369 283 l 324 142 l 401 142 l 401 0 l 31 0 l 31 142 m 578 417 l 501 660 l 493 660 l 413 417 l 578 417 m 746 1206 l 896 1206 l 783 1017 l 686 1017 l 746 1206 m 413 1078 l 603 1078 l 721 888 l 592 888 l 507 994 l 422 888 l 293 888 l 413 1078 z "},"Ậ":{"ha":1014,"x_min":31,"x_max":983,"o":"m 31 142 l 113 142 l 308 660 l 231 660 l 231 803 l 783 803 l 783 660 l 704 660 l 903 142 l 983 142 l 983 0 l 575 0 l 575 142 l 664 142 l 618 283 l 369 283 l 324 142 l 401 142 l 401 0 l 31 0 l 31 142 m 578 417 l 501 660 l 493 660 l 413 417 l 578 417 m 403 1131 l 614 1131 l 731 888 l 601 888 l 507 1046 l 413 888 l 283 888 l 403 1131 m 489 -269 q 414 -242 443 -269 q 385 -174 385 -215 q 413 -103 385 -129 q 489 -78 442 -78 q 565 -105 536 -78 q 593 -176 593 -132 q 564 -243 593 -217 q 489 -269 535 -269 z "},"Ầ":{"ha":1014,"x_min":31,"x_max":983,"o":"m 31 142 l 113 142 l 308 660 l 231 660 l 231 803 l 783 803 l 783 660 l 704 660 l 903 142 l 983 142 l 983 0 l 575 0 l 575 142 l 664 142 l 618 283 l 369 283 l 324 142 l 401 142 l 401 0 l 31 0 l 31 142 m 578 417 l 501 660 l 493 660 l 413 417 l 578 417 m 729 1017 l 617 1206 l 767 1206 l 826 1017 l 729 1017 m 413 1078 l 603 1078 l 721 888 l 592 888 l 507 994 l 422 888 l 293 888 l 413 1078 z "},"Ẩ":{"ha":1014,"x_min":31,"x_max":983,"o":"m 31 142 l 113 142 l 308 660 l 231 660 l 231 803 l 783 803 l 783 660 l 704 660 l 903 142 l 983 142 l 983 0 l 575 0 l 575 142 l 664 142 l 618 283 l 369 283 l 324 142 l 401 142 l 401 0 l 31 0 l 31 142 m 578 417 l 501 660 l 493 660 l 413 417 l 578 417 m 689 1056 q 724 1078 713 1065 q 735 1108 735 1090 q 719 1141 735 1129 q 678 1153 704 1153 q 599 1129 638 1153 l 575 1197 q 707 1244 632 1244 q 803 1213 767 1244 q 839 1131 839 1182 q 708 994 839 1028 l 689 1056 m 413 1078 l 603 1078 l 721 888 l 592 888 l 507 994 l 422 888 l 293 888 l 413 1078 z "},"Ẫ":{"ha":1014,"x_min":31,"x_max":983,"o":"m 31 142 l 113 142 l 308 660 l 231 660 l 231 803 l 783 803 l 783 660 l 704 660 l 903 142 l 983 142 l 983 0 l 575 0 l 575 142 l 664 142 l 618 283 l 369 283 l 324 142 l 401 142 l 401 0 l 31 0 l 31 142 m 578 417 l 501 660 l 493 660 l 413 417 l 578 417 m 611 1133 q 562 1141 585 1133 q 504 1165 539 1149 q 458 1185 476 1178 q 421 1192 439 1192 q 365 1135 371 1192 l 268 1135 q 313 1267 275 1225 q 406 1308 350 1308 q 452 1301 429 1308 q 508 1278 475 1293 q 555 1258 536 1265 q 592 1251 574 1251 q 650 1301 642 1251 l 746 1301 q 611 1133 732 1133 m 413 1078 l 603 1078 l 721 888 l 592 888 l 507 994 l 422 888 l 293 888 l 413 1078 z "},"Ȁ":{"ha":1014,"x_min":31,"x_max":983,"o":"m 31 142 l 113 142 l 308 660 l 231 660 l 231 803 l 783 803 l 783 660 l 704 660 l 903 142 l 983 142 l 983 0 l 575 0 l 575 142 l 664 142 l 618 283 l 369 283 l 324 142 l 401 142 l 401 0 l 31 0 l 31 142 m 578 417 l 501 660 l 493 660 l 413 417 l 578 417 m 172 1135 l 364 1135 l 426 892 l 308 892 l 172 1135 m 442 1135 l 633 1135 l 696 892 l 576 892 l 442 1135 z "},"Ä":{"ha":1014,"x_min":31,"x_max":983,"o":"m 31 142 l 113 142 l 308 660 l 231 660 l 231 803 l 783 803 l 783 660 l 704 660 l 903 142 l 983 142 l 983 0 l 575 0 l 575 142 l 664 142 l 618 283 l 369 283 l 324 142 l 401 142 l 401 0 l 31 0 l 31 142 m 578 417 l 501 660 l 493 660 l 413 417 l 578 417 m 336 911 q 258 939 289 911 q 226 1015 226 967 q 258 1092 226 1064 q 336 1121 289 1121 q 414 1092 382 1121 q 446 1015 446 1064 q 414 939 446 967 q 336 911 382 911 m 678 911 q 601 939 632 911 q 569 1015 569 967 q 601 1092 569 1064 q 678 1121 632 1121 q 756 1092 725 1121 q 788 1015 788 1064 q 756 939 788 967 q 678 911 725 911 z "},"Ȧ":{"ha":1014,"x_min":31,"x_max":983,"o":"m 31 142 l 113 142 l 308 660 l 231 660 l 231 803 l 783 803 l 783 660 l 704 660 l 903 142 l 983 142 l 983 0 l 575 0 l 575 142 l 664 142 l 618 283 l 369 283 l 324 142 l 401 142 l 401 0 l 31 0 l 31 142 m 578 417 l 501 660 l 493 660 l 413 417 l 578 417 m 507 911 q 424 942 456 911 q 392 1022 392 974 q 424 1101 392 1071 q 507 1132 456 1132 q 590 1101 558 1132 q 621 1022 621 1071 q 590 942 622 974 q 507 911 558 911 z "},"Ạ":{"ha":1014,"x_min":31,"x_max":983,"o":"m 31 142 l 113 142 l 308 660 l 231 660 l 231 803 l 783 803 l 783 660 l 704 660 l 903 142 l 983 142 l 983 0 l 575 0 l 575 142 l 664 142 l 618 283 l 369 283 l 324 142 l 401 142 l 401 0 l 31 0 l 31 142 m 578 417 l 501 660 l 493 660 l 413 417 l 578 417 m 489 -269 q 414 -242 443 -269 q 385 -174 385 -215 q 413 -103 385 -129 q 489 -78 442 -78 q 565 -105 536 -78 q 593 -176 593 -132 q 564 -243 593 -217 q 489 -269 535 -269 z "},"À":{"ha":1014,"x_min":31,"x_max":983,"o":"m 31 142 l 113 142 l 308 660 l 231 660 l 231 803 l 783 803 l 783 660 l 704 660 l 903 142 l 983 142 l 983 0 l 575 0 l 575 142 l 664 142 l 618 283 l 369 283 l 324 142 l 401 142 l 401 0 l 31 0 l 31 142 m 578 417 l 501 660 l 493 660 l 413 417 l 578 417 m 311 1132 l 503 1132 l 563 892 l 444 892 l 311 1132 z "},"Ả":{"ha":1014,"x_min":31,"x_max":983,"o":"m 31 142 l 113 142 l 308 660 l 231 660 l 231 803 l 783 803 l 783 660 l 704 660 l 903 142 l 983 142 l 983 0 l 575 0 l 575 142 l 664 142 l 618 283 l 369 283 l 324 142 l 401 142 l 401 0 l 31 0 l 31 142 m 578 417 l 501 660 l 493 660 l 413 417 l 578 417 m 479 925 q 514 947 503 935 q 525 978 525 960 q 510 1010 525 999 q 468 1022 494 1022 q 389 999 428 1022 l 365 1067 q 497 1114 422 1114 q 593 1083 557 1114 q 629 1000 629 1051 q 499 864 629 897 l 479 925 z "},"Ȃ":{"ha":1014,"x_min":31,"x_max":983,"o":"m 31 142 l 113 142 l 308 660 l 231 660 l 231 803 l 783 803 l 783 660 l 704 660 l 903 142 l 983 142 l 983 0 l 575 0 l 575 142 l 664 142 l 618 283 l 369 283 l 324 142 l 401 142 l 401 0 l 31 0 l 31 142 m 578 417 l 501 660 l 493 660 l 413 417 l 578 417 m 292 868 q 353 1026 297 971 q 507 1082 410 1082 q 660 1026 604 1082 q 721 868 717 971 l 597 868 q 507 954 585 954 q 447 932 469 954 q 417 868 424 910 l 292 868 z "},"Ā":{"ha":1014,"x_min":31,"x_max":983,"o":"m 31 142 l 113 142 l 308 660 l 231 660 l 231 803 l 783 803 l 783 660 l 704 660 l 903 142 l 983 142 l 983 0 l 575 0 l 575 142 l 664 142 l 618 283 l 369 283 l 324 142 l 401 142 l 401 0 l 31 0 l 31 142 m 578 417 l 501 660 l 493 660 l 413 417 l 578 417 m 325 1008 l 689 1008 l 689 899 l 325 899 l 325 1008 z "},"Ą":{"ha":1014,"x_min":31,"x_max":983,"o":"m 31 142 l 113 142 l 308 660 l 231 660 l 231 803 l 783 803 l 783 660 l 704 660 l 903 142 l 983 142 l 983 0 l 575 0 l 575 142 l 664 142 l 618 283 l 369 283 l 324 142 l 401 142 l 401 0 l 31 0 l 31 142 m 578 417 l 501 660 l 493 660 l 413 417 l 578 417 m 822 -268 q 730 -236 764 -268 q 696 -154 696 -204 q 788 0 696 -76 l 860 0 q 815 -60 829 -35 q 800 -111 800 -86 q 819 -153 800 -137 q 872 -169 839 -169 q 931 -158 900 -169 l 931 -243 q 822 -268 876 -268 z "},"Å":{"ha":1014,"x_min":31,"x_max":983,"o":"m 31 142 l 113 142 l 308 660 l 231 660 l 231 803 l 783 803 l 783 660 l 704 660 l 903 142 l 983 142 l 983 0 l 575 0 l 575 142 l 664 142 l 618 283 l 369 283 l 324 142 l 401 142 l 401 0 l 31 0 l 31 142 m 578 417 l 501 660 l 493 660 l 413 417 l 578 417 m 510 879 q 412 912 447 879 q 376 1003 376 944 q 411 1094 376 1061 q 507 1128 446 1128 q 603 1094 568 1128 q 638 1003 638 1061 q 603 913 638 946 q 510 879 569 879 m 507 942 q 552 958 536 942 q 568 1003 568 975 q 552 1050 568 1033 q 507 1067 536 1067 q 462 1050 478 1067 q 446 1003 446 1033 q 462 958 446 975 q 507 942 478 942 z "},"Ǻ":{"ha":1014,"x_min":31,"x_max":983,"o":"m 31 142 l 113 142 l 308 660 l 231 660 l 231 803 l 783 803 l 783 660 l 704 660 l 903 142 l 983 142 l 983 0 l 575 0 l 575 142 l 664 142 l 618 283 l 369 283 l 324 142 l 401 142 l 401 0 l 31 0 l 31 142 m 578 417 l 501 660 l 493 660 l 413 417 l 578 417 m 510 879 q 412 912 447 879 q 376 1003 376 944 q 411 1094 376 1061 q 507 1128 446 1128 q 603 1094 568 1128 q 638 1003 638 1061 q 603 913 638 946 q 510 879 569 879 m 507 942 q 552 958 536 942 q 568 1003 568 975 q 552 1050 568 1033 q 507 1067 536 1067 q 462 1050 478 1067 q 446 1003 446 1033 q 462 958 446 975 q 507 942 478 942 m 508 1424 l 700 1424 l 565 1183 l 449 1183 l 508 1424 z "},"Ã":{"ha":1014,"x_min":31,"x_max":983,"o":"m 31 142 l 113 142 l 308 660 l 231 660 l 231 803 l 783 803 l 783 660 l 704 660 l 903 142 l 983 142 l 983 0 l 575 0 l 575 142 l 664 142 l 618 283 l 369 283 l 324 142 l 401 142 l 401 0 l 31 0 l 31 142 m 578 417 l 501 660 l 493 660 l 413 417 l 578 417 m 607 901 q 548 911 578 901 q 482 939 518 921 q 434 959 453 953 q 400 965 415 965 q 344 908 350 965 l 247 908 q 299 1060 256 1011 q 408 1108 343 1108 q 465 1099 436 1108 q 532 1071 493 1089 q 576 1053 554 1061 q 613 1044 597 1044 q 671 1101 663 1044 l 767 1101 q 716 951 758 1000 q 607 901 674 901 z "},"Æ":{"ha":1369,"x_min":18,"x_max":1314,"o":"m 18 142 l 101 142 l 390 660 l 313 660 l 313 803 l 1258 803 l 1278 521 l 1132 521 l 1119 660 l 819 660 l 831 475 l 961 475 l 954 556 l 1071 556 l 1094 261 l 978 261 l 971 342 l 838 342 l 850 143 l 1160 143 l 1149 294 l 1294 294 l 1314 0 l 536 0 l 536 142 l 615 142 l 607 279 l 386 279 l 317 142 l 392 142 l 392 0 l 18 0 l 18 142 m 600 411 l 586 660 l 578 660 l 449 411 l 600 411 z "},"Ǽ":{"ha":1369,"x_min":18,"x_max":1314,"o":"m 18 142 l 101 142 l 390 660 l 313 660 l 313 803 l 1258 803 l 1278 521 l 1132 521 l 1119 660 l 819 660 l 831 475 l 961 475 l 954 556 l 1071 556 l 1094 261 l 978 261 l 971 342 l 838 342 l 850 143 l 1160 143 l 1149 294 l 1294 294 l 1314 0 l 536 0 l 536 142 l 615 142 l 607 279 l 386 279 l 317 142 l 392 142 l 392 0 l 18 0 l 18 142 m 600 411 l 586 660 l 578 660 l 449 411 l 600 411 m 760 1132 l 951 1132 l 817 892 l 700 892 l 760 1132 z "},"Ǣ":{"ha":1369,"x_min":18,"x_max":1314,"o":"m 18 142 l 101 142 l 390 660 l 313 660 l 313 803 l 1258 803 l 1278 521 l 1132 521 l 1119 660 l 819 660 l 831 475 l 961 475 l 954 556 l 1071 556 l 1094 261 l 978 261 l 971 342 l 838 342 l 850 143 l 1160 143 l 1149 294 l 1294 294 l 1314 0 l 536 0 l 536 142 l 615 142 l 607 279 l 386 279 l 317 142 l 392 142 l 392 0 l 18 0 l 18 142 m 600 411 l 586 660 l 578 660 l 449 411 l 600 411 m 576 1008 l 940 1008 l 940 899 l 576 899 l 576 1008 z "},"B":{"ha":913,"x_min":65,"x_max":867,"o":"m 65 142 l 144 142 l 144 660 l 65 660 l 65 803 l 529 803 q 751 751 678 803 q 825 607 825 699 q 788 496 825 536 q 671 438 750 456 q 867 228 867 406 q 785 58 867 117 q 538 0 703 0 l 65 0 l 65 142 m 479 490 q 588 578 588 490 q 560 640 588 619 q 474 660 532 660 l 381 660 l 381 490 l 479 490 m 490 143 q 624 251 624 143 q 489 358 624 358 l 381 358 l 381 143 l 490 143 z "},"Ḃ":{"ha":913,"x_min":65,"x_max":867,"o":"m 65 142 l 144 142 l 144 660 l 65 660 l 65 803 l 529 803 q 751 751 678 803 q 825 607 825 699 q 788 496 825 536 q 671 438 750 456 q 867 228 867 406 q 785 58 867 117 q 538 0 703 0 l 65 0 l 65 142 m 479 490 q 588 578 588 490 q 560 640 588 619 q 474 660 532 660 l 381 660 l 381 490 l 479 490 m 490 143 q 624 251 624 143 q 489 358 624 358 l 381 358 l 381 143 l 490 143 m 450 911 q 367 942 399 911 q 335 1022 335 974 q 367 1101 335 1071 q 450 1132 399 1132 q 533 1101 501 1132 q 564 1022 564 1071 q 533 942 565 974 q 450 911 501 911 z "},"C":{"ha":993,"x_min":50,"x_max":921,"o":"m 921 267 q 783 62 892 138 q 507 -14 675 -14 q 272 36 375 -14 q 109 180 168 86 q 50 400 50 274 q 106 619 50 525 q 259 765 161 714 q 481 817 357 817 q 635 790 567 817 q 744 715 703 764 l 744 803 l 900 803 l 900 517 l 767 517 q 675 621 731 586 q 539 656 619 656 q 359 586 425 656 q 293 403 293 517 q 356 217 293 288 q 521 147 418 147 q 736 331 694 147 l 921 267 z "},"Ć":{"ha":993,"x_min":50,"x_max":921,"o":"m 921 267 q 783 62 892 138 q 507 -14 675 -14 q 272 36 375 -14 q 109 180 168 86 q 50 400 50 274 q 106 619 50 525 q 259 765 161 714 q 481 817 357 817 q 635 790 567 817 q 744 715 703 764 l 744 803 l 900 803 l 900 517 l 767 517 q 675 621 731 586 q 539 656 619 656 q 359 586 425 656 q 293 403 293 517 q 356 217 293 288 q 521 147 418 147 q 736 331 694 147 l 921 267 m 511 1132 l 703 1132 l 568 892 l 451 892 l 511 1132 z "},"Č":{"ha":993,"x_min":50,"x_max":921,"o":"m 921 267 q 783 62 892 138 q 507 -14 675 -14 q 272 36 375 -14 q 109 180 168 86 q 50 400 50 274 q 106 619 50 525 q 259 765 161 714 q 481 817 357 817 q 635 790 567 817 q 744 715 703 764 l 744 803 l 900 803 l 900 517 l 767 517 q 675 621 731 586 q 539 656 619 656 q 359 586 425 656 q 293 403 293 517 q 356 217 293 288 q 521 147 418 147 q 736 331 694 147 l 921 267 m 296 1129 l 432 1129 l 515 972 l 599 1129 l 722 1129 l 626 888 l 404 888 l 296 1129 z "},"Ç":{"ha":993,"x_min":50,"x_max":921,"o":"m 921 267 q 792 68 892 143 q 535 -14 692 -7 l 518 -79 q 594 -115 568 -86 q 621 -181 621 -143 q 584 -256 621 -231 q 493 -282 547 -282 q 428 -273 461 -282 q 369 -247 396 -264 l 369 -193 q 449 -211 415 -211 q 497 -168 497 -211 q 417 -122 497 -126 l 461 -12 q 248 49 342 -3 q 102 191 154 101 q 50 400 50 281 q 106 619 50 525 q 259 765 161 714 q 481 817 357 817 q 635 790 567 817 q 744 715 703 764 l 744 803 l 900 803 l 900 517 l 767 517 q 675 621 731 586 q 539 656 619 656 q 359 586 425 656 q 293 403 293 517 q 356 217 293 288 q 521 147 418 147 q 736 331 694 147 l 921 267 z "},"Ḉ":{"ha":993,"x_min":50,"x_max":921,"o":"m 568 892 l 451 892 l 511 1132 l 703 1132 l 568 892 m 921 267 q 792 68 892 143 q 535 -14 692 -7 l 518 -79 q 594 -115 568 -86 q 621 -181 621 -143 q 584 -256 621 -231 q 493 -282 547 -282 q 428 -273 461 -282 q 369 -247 396 -264 l 369 -193 q 449 -211 415 -211 q 497 -168 497 -211 q 417 -122 497 -126 l 461 -12 q 248 49 342 -3 q 102 191 154 101 q 50 400 50 281 q 106 619 50 525 q 259 765 161 714 q 481 817 357 817 q 635 790 567 817 q 744 715 703 764 l 744 803 l 900 803 l 900 517 l 767 517 q 675 621 731 586 q 539 656 619 656 q 359 586 425 656 q 293 403 293 517 q 356 217 293 288 q 521 147 418 147 q 736 331 694 147 l 921 267 z "},"Ĉ":{"ha":993,"x_min":50,"x_max":921,"o":"m 921 267 q 783 62 892 138 q 507 -14 675 -14 q 272 36 375 -14 q 109 180 168 86 q 50 400 50 274 q 106 619 50 525 q 259 765 161 714 q 481 817 357 817 q 635 790 567 817 q 744 715 703 764 l 744 803 l 900 803 l 900 517 l 767 517 q 675 621 731 586 q 539 656 619 656 q 359 586 425 656 q 293 403 293 517 q 356 217 293 288 q 521 147 418 147 q 736 331 694 147 l 921 267 m 406 1131 l 617 1131 l 733 888 l 604 888 l 510 1046 l 415 888 l 286 888 l 406 1131 z "},"Ċ":{"ha":993,"x_min":50,"x_max":921,"o":"m 921 267 q 783 62 892 138 q 507 -14 675 -14 q 272 36 375 -14 q 109 180 168 86 q 50 400 50 274 q 106 619 50 525 q 259 765 161 714 q 481 817 357 817 q 635 790 567 817 q 744 715 703 764 l 744 803 l 900 803 l 900 517 l 767 517 q 675 621 731 586 q 539 656 619 656 q 359 586 425 656 q 293 403 293 517 q 356 217 293 288 q 521 147 418 147 q 736 331 694 147 l 921 267 m 510 911 q 426 942 458 911 q 394 1022 394 974 q 426 1101 394 1071 q 510 1132 458 1132 q 592 1101 561 1132 q 624 1022 624 1071 q 593 942 625 974 q 510 911 561 911 z "},"D":{"ha":1017,"x_min":65,"x_max":967,"o":"m 65 142 l 146 142 l 146 660 l 65 660 l 65 803 l 542 803 q 775 750 679 803 q 919 607 871 697 q 967 404 967 517 q 858 109 967 218 q 543 0 749 0 l 65 0 l 65 142 m 500 142 q 722 404 722 142 q 669 593 722 526 q 501 660 615 660 l 381 660 l 381 142 l 500 142 z "},"Ǳ":{"ha":1839,"x_min":65,"x_max":1788,"o":"m 65 142 l 146 142 l 146 660 l 65 660 l 65 803 l 542 803 q 775 750 679 803 q 919 607 871 697 q 967 404 967 517 q 858 109 967 218 q 543 0 749 0 l 65 0 l 65 142 m 500 142 q 722 404 722 142 q 669 593 722 526 q 501 660 615 660 l 381 660 l 381 142 l 500 142 m 1072 113 l 1458 664 l 1233 664 l 1233 510 l 1082 510 l 1082 803 l 1775 803 l 1775 692 l 1386 138 l 1632 138 l 1632 310 l 1788 310 l 1788 0 l 1072 0 l 1072 113 z "},"Ǆ":{"ha":1839,"x_min":65,"x_max":1788,"o":"m 65 142 l 146 142 l 146 660 l 65 660 l 65 803 l 542 803 q 775 750 679 803 q 919 607 871 697 q 967 404 967 517 q 858 109 967 218 q 543 0 749 0 l 65 0 l 65 142 m 500 142 q 722 404 722 142 q 669 593 722 526 q 501 660 615 660 l 381 660 l 381 142 l 500 142 m 1072 113 l 1458 664 l 1233 664 l 1233 510 l 1082 510 l 1082 803 l 1775 803 l 1775 692 l 1386 138 l 1632 138 l 1632 310 l 1788 310 l 1788 0 l 1072 0 l 1072 113 m 1225 1129 l 1361 1129 l 1444 972 l 1528 1129 l 1651 1129 l 1556 888 l 1333 888 l 1225 1129 z "},"Ð":{"ha":1040,"x_min":65,"x_max":967,"o":"m 542 803 q 775 750 679 803 q 919 607 871 697 q 967 404 967 517 q 858 109 967 218 q 543 0 749 0 l 65 0 l 65 142 l 146 142 l 146 343 l 65 343 l 65 469 l 146 469 l 146 660 l 65 660 l 65 803 l 542 803 m 500 142 q 722 404 722 142 q 669 593 722 526 q 501 660 615 660 l 381 660 l 381 469 l 456 469 l 456 343 l 381 343 l 381 142 l 500 142 z "},"Ď":{"ha":1017,"x_min":65,"x_max":967,"o":"m 65 142 l 146 142 l 146 660 l 65 660 l 65 803 l 542 803 q 775 750 679 803 q 919 607 871 697 q 967 404 967 517 q 858 109 967 218 q 543 0 749 0 l 65 0 l 65 142 m 500 142 q 722 404 722 142 q 669 593 722 526 q 501 660 615 660 l 381 660 l 381 142 l 500 142 m 314 1129 l 450 1129 l 533 972 l 617 1129 l 740 1129 l 644 888 l 422 888 l 314 1129 z "},"Đ":{"ha":1040,"x_min":65,"x_max":967,"o":"m 542 803 q 775 750 679 803 q 919 607 871 697 q 967 404 967 517 q 858 109 967 218 q 543 0 749 0 l 65 0 l 65 142 l 146 142 l 146 343 l 65 343 l 65 469 l 146 469 l 146 660 l 65 660 l 65 803 l 542 803 m 500 142 q 722 404 722 142 q 669 593 722 526 q 501 660 615 660 l 381 660 l 381 469 l 456 469 l 456 343 l 381 343 l 381 142 l 500 142 z "},"Ḋ":{"ha":1017,"x_min":65,"x_max":967,"o":"m 65 142 l 146 142 l 146 660 l 65 660 l 65 803 l 542 803 q 775 750 679 803 q 919 607 871 697 q 967 404 967 517 q 858 109 967 218 q 543 0 749 0 l 65 0 l 65 142 m 500 142 q 722 404 722 142 q 669 593 722 526 q 501 660 615 660 l 381 660 l 381 142 l 500 142 m 528 911 q 444 942 476 911 q 413 1022 413 974 q 444 1101 413 1071 q 528 1132 476 1132 q 610 1101 579 1132 q 642 1022 642 1071 q 611 942 643 974 q 528 911 579 911 z "},"Ḍ":{"ha":1017,"x_min":65,"x_max":967,"o":"m 65 142 l 146 142 l 146 660 l 65 660 l 65 803 l 542 803 q 775 750 679 803 q 919 607 871 697 q 967 404 967 517 q 858 109 967 218 q 543 0 749 0 l 65 0 l 65 142 m 500 142 q 722 404 722 142 q 669 593 722 526 q 501 660 615 660 l 381 660 l 381 142 l 500 142 m 521 -269 q 446 -242 475 -269 q 417 -174 417 -215 q 445 -103 417 -129 q 521 -78 474 -78 q 597 -105 568 -78 q 625 -176 625 -132 q 596 -243 625 -217 q 521 -269 567 -269 z "},"Ḏ":{"ha":1017,"x_min":65,"x_max":967,"o":"m 65 142 l 146 142 l 146 660 l 65 660 l 65 803 l 542 803 q 775 750 679 803 q 919 607 871 697 q 967 404 967 517 q 858 109 967 218 q 543 0 749 0 l 65 0 l 65 142 m 500 142 q 722 404 722 142 q 669 593 722 526 q 501 660 615 660 l 381 660 l 381 142 l 500 142 m 339 -104 l 703 -104 l 703 -214 l 339 -214 l 339 -104 z "},"ǲ":{"ha":1633,"x_min":65,"x_max":1593,"o":"m 65 142 l 146 142 l 146 660 l 65 660 l 65 803 l 542 803 q 775 750 679 803 q 919 607 871 697 q 967 404 967 517 q 858 109 967 218 q 543 0 749 0 l 65 0 l 65 142 m 500 142 q 722 404 722 142 q 669 593 722 526 q 501 660 615 660 l 381 660 l 381 142 l 500 142 m 1044 101 l 1343 440 l 1169 440 l 1169 338 l 1046 338 l 1046 556 l 1582 556 l 1582 454 l 1279 114 l 1469 114 l 1469 232 l 1593 232 l 1593 0 l 1044 0 l 1044 101 z "},"ǅ":{"ha":1649,"x_min":65,"x_max":1608,"o":"m 65 142 l 146 142 l 146 660 l 65 660 l 65 803 l 542 803 q 775 750 679 803 q 919 607 871 697 q 967 404 967 517 q 858 109 967 218 q 543 0 749 0 l 65 0 l 65 142 m 500 142 q 722 404 722 142 q 669 593 722 526 q 501 660 615 660 l 381 660 l 381 142 l 500 142 m 1060 101 l 1358 440 l 1185 440 l 1185 338 l 1061 338 l 1061 556 l 1597 556 l 1597 454 l 1294 114 l 1485 114 l 1485 232 l 1608 232 l 1608 0 l 1060 0 l 1060 101 m 1128 882 l 1264 882 l 1347 725 l 1431 882 l 1554 882 l 1458 640 l 1236 640 l 1128 882 z "},"E":{"ha":904,"x_min":65,"x_max":831,"o":"m 65 142 l 144 142 l 144 660 l 65 660 l 65 803 l 825 803 l 825 525 l 679 525 l 679 660 l 381 660 l 381 476 l 506 476 l 506 557 l 622 557 l 622 264 l 506 264 l 506 344 l 381 344 l 381 143 l 685 143 l 685 292 l 831 292 l 831 0 l 65 0 l 65 142 z "},"É":{"ha":904,"x_min":65,"x_max":831,"o":"m 65 142 l 144 142 l 144 660 l 65 660 l 65 803 l 825 803 l 825 525 l 679 525 l 679 660 l 381 660 l 381 476 l 506 476 l 506 557 l 622 557 l 622 264 l 506 264 l 506 344 l 381 344 l 381 143 l 685 143 l 685 292 l 831 292 l 831 0 l 65 0 l 65 142 m 479 1132 l 671 1132 l 536 892 l 419 892 l 479 1132 z "},"Ĕ":{"ha":904,"x_min":65,"x_max":831,"o":"m 65 142 l 144 142 l 144 660 l 65 660 l 65 803 l 825 803 l 825 525 l 679 525 l 679 660 l 381 660 l 381 476 l 506 476 l 506 557 l 622 557 l 622 264 l 506 264 l 506 344 l 381 344 l 381 143 l 685 143 l 685 292 l 831 292 l 831 0 l 65 0 l 65 142 m 478 899 q 317 949 374 899 q 256 1096 261 999 l 390 1096 q 418 1032 396 1054 q 478 1010 440 1010 q 565 1096 557 1010 l 700 1096 q 635 949 692 999 q 478 899 578 899 z "},"Ě":{"ha":904,"x_min":65,"x_max":831,"o":"m 65 142 l 144 142 l 144 660 l 65 660 l 65 803 l 825 803 l 825 525 l 679 525 l 679 660 l 381 660 l 381 476 l 506 476 l 506 557 l 622 557 l 622 264 l 506 264 l 506 344 l 381 344 l 381 143 l 685 143 l 685 292 l 831 292 l 831 0 l 65 0 l 65 142 m 264 1129 l 400 1129 l 483 972 l 567 1129 l 690 1129 l 594 888 l 372 888 l 264 1129 z "},"Ȩ":{"ha":904,"x_min":65,"x_max":831,"o":"m 65 142 l 144 142 l 144 660 l 65 660 l 65 803 l 825 803 l 825 525 l 679 525 l 679 660 l 381 660 l 381 476 l 506 476 l 506 557 l 622 557 l 622 264 l 506 264 l 506 344 l 381 344 l 381 143 l 685 143 l 685 292 l 831 292 l 831 0 l 65 0 l 65 142 m 456 -282 q 391 -273 424 -282 q 332 -247 358 -264 l 332 -193 q 411 -211 378 -211 q 460 -168 460 -211 q 379 -122 460 -126 l 428 0 l 501 0 l 481 -79 q 557 -115 531 -86 q 583 -181 583 -143 q 547 -256 583 -231 q 456 -282 510 -282 z "},"Ḝ":{"ha":904,"x_min":65,"x_max":831,"o":"m 65 142 l 144 142 l 144 660 l 65 660 l 65 803 l 825 803 l 825 525 l 679 525 l 679 660 l 381 660 l 381 476 l 506 476 l 506 557 l 622 557 l 622 264 l 506 264 l 506 344 l 381 344 l 381 143 l 685 143 l 685 292 l 831 292 l 831 0 l 65 0 l 65 142 m 456 -282 q 391 -273 424 -282 q 332 -247 358 -264 l 332 -193 q 411 -211 378 -211 q 460 -168 460 -211 q 379 -122 460 -126 l 428 0 l 501 0 l 481 -79 q 557 -115 531 -86 q 583 -181 583 -143 q 547 -256 583 -231 q 456 -282 510 -282 m 478 899 q 317 949 374 899 q 256 1096 261 999 l 390 1096 q 418 1032 396 1054 q 478 1010 440 1010 q 565 1096 557 1010 l 700 1096 q 635 949 692 999 q 478 899 578 899 z "},"Ê":{"ha":904,"x_min":65,"x_max":831,"o":"m 65 142 l 144 142 l 144 660 l 65 660 l 65 803 l 825 803 l 825 525 l 679 525 l 679 660 l 381 660 l 381 476 l 506 476 l 506 557 l 622 557 l 622 264 l 506 264 l 506 344 l 381 344 l 381 143 l 685 143 l 685 292 l 831 292 l 831 0 l 65 0 l 65 142 m 374 1131 l 585 1131 l 701 888 l 572 888 l 478 1046 l 383 888 l 254 888 l 374 1131 z "},"Ế":{"ha":904,"x_min":65,"x_max":867,"o":"m 65 142 l 144 142 l 144 660 l 65 660 l 65 803 l 825 803 l 825 525 l 679 525 l 679 660 l 381 660 l 381 476 l 506 476 l 506 557 l 622 557 l 622 264 l 506 264 l 506 344 l 381 344 l 381 143 l 685 143 l 685 292 l 831 292 l 831 0 l 65 0 l 65 142 m 717 1206 l 867 1206 l 754 1017 l 657 1017 l 717 1206 m 383 1078 l 574 1078 l 692 888 l 563 888 l 478 994 l 393 888 l 264 888 l 383 1078 z "},"Ệ":{"ha":904,"x_min":65,"x_max":831,"o":"m 65 142 l 144 142 l 144 660 l 65 660 l 65 803 l 825 803 l 825 525 l 679 525 l 679 660 l 381 660 l 381 476 l 506 476 l 506 557 l 622 557 l 622 264 l 506 264 l 506 344 l 381 344 l 381 143 l 685 143 l 685 292 l 831 292 l 831 0 l 65 0 l 65 142 m 374 1131 l 585 1131 l 701 888 l 572 888 l 478 1046 l 383 888 l 254 888 l 374 1131 m 464 -269 q 389 -242 418 -269 q 360 -174 360 -215 q 388 -103 360 -129 q 464 -78 417 -78 q 540 -105 511 -78 q 568 -176 568 -132 q 539 -243 568 -217 q 464 -269 510 -269 z "},"Ề":{"ha":904,"x_min":65,"x_max":831,"o":"m 65 142 l 144 142 l 144 660 l 65 660 l 65 803 l 825 803 l 825 525 l 679 525 l 679 660 l 381 660 l 381 476 l 506 476 l 506 557 l 622 557 l 622 264 l 506 264 l 506 344 l 381 344 l 381 143 l 685 143 l 685 292 l 831 292 l 831 0 l 65 0 l 65 142 m 700 1017 l 588 1206 l 738 1206 l 797 1017 l 700 1017 m 383 1078 l 574 1078 l 692 888 l 563 888 l 478 994 l 393 888 l 264 888 l 383 1078 z "},"Ể":{"ha":904,"x_min":65,"x_max":831,"o":"m 65 142 l 144 142 l 144 660 l 65 660 l 65 803 l 825 803 l 825 525 l 679 525 l 679 660 l 381 660 l 381 476 l 506 476 l 506 557 l 622 557 l 622 264 l 506 264 l 506 344 l 381 344 l 381 143 l 685 143 l 685 292 l 831 292 l 831 0 l 65 0 l 65 142 m 660 1056 q 694 1078 683 1065 q 706 1108 706 1090 q 690 1141 706 1129 q 649 1153 675 1153 q 569 1129 608 1153 l 546 1197 q 678 1244 603 1244 q 774 1213 738 1244 q 810 1131 810 1182 q 679 994 810 1028 l 660 1056 m 383 1078 l 574 1078 l 692 888 l 563 888 l 478 994 l 393 888 l 264 888 l 383 1078 z "},"Ễ":{"ha":904,"x_min":65,"x_max":831,"o":"m 65 142 l 144 142 l 144 660 l 65 660 l 65 803 l 825 803 l 825 525 l 679 525 l 679 660 l 381 660 l 381 476 l 506 476 l 506 557 l 622 557 l 622 264 l 506 264 l 506 344 l 381 344 l 381 143 l 685 143 l 685 292 l 831 292 l 831 0 l 65 0 l 65 142 m 582 1133 q 533 1141 556 1133 q 475 1165 510 1149 q 428 1185 447 1178 q 392 1192 410 1192 q 336 1135 342 1192 l 239 1135 q 283 1267 246 1225 q 376 1308 321 1308 q 423 1301 400 1308 q 479 1278 446 1293 q 526 1258 507 1265 q 563 1251 544 1251 q 621 1301 613 1251 l 717 1301 q 582 1133 703 1133 m 383 1078 l 574 1078 l 692 888 l 563 888 l 478 994 l 393 888 l 264 888 l 383 1078 z "},"Ȅ":{"ha":904,"x_min":65,"x_max":831,"o":"m 65 142 l 144 142 l 144 660 l 65 660 l 65 803 l 825 803 l 825 525 l 679 525 l 679 660 l 381 660 l 381 476 l 506 476 l 506 557 l 622 557 l 622 264 l 506 264 l 506 344 l 381 344 l 381 143 l 685 143 l 685 292 l 831 292 l 831 0 l 65 0 l 65 142 m 143 1135 l 335 1135 l 397 892 l 279 892 l 143 1135 m 413 1135 l 604 1135 l 667 892 l 547 892 l 413 1135 z "},"Ë":{"ha":904,"x_min":65,"x_max":831,"o":"m 65 142 l 144 142 l 144 660 l 65 660 l 65 803 l 825 803 l 825 525 l 679 525 l 679 660 l 381 660 l 381 476 l 506 476 l 506 557 l 622 557 l 622 264 l 506 264 l 506 344 l 381 344 l 381 143 l 685 143 l 685 292 l 831 292 l 831 0 l 65 0 l 65 142 m 307 911 q 228 939 260 911 q 197 1015 197 967 q 228 1092 197 1064 q 307 1121 260 1121 q 385 1092 353 1121 q 417 1015 417 1064 q 385 939 417 967 q 307 911 353 911 m 649 911 q 572 939 603 911 q 540 1015 540 967 q 572 1092 540 1064 q 649 1121 603 1121 q 727 1092 696 1121 q 758 1015 758 1064 q 727 939 758 967 q 649 911 696 911 z "},"Ė":{"ha":904,"x_min":65,"x_max":831,"o":"m 65 142 l 144 142 l 144 660 l 65 660 l 65 803 l 825 803 l 825 525 l 679 525 l 679 660 l 381 660 l 381 476 l 506 476 l 506 557 l 622 557 l 622 264 l 506 264 l 506 344 l 381 344 l 381 143 l 685 143 l 685 292 l 831 292 l 831 0 l 65 0 l 65 142 m 478 911 q 394 942 426 911 q 363 1022 363 974 q 394 1101 363 1071 q 478 1132 426 1132 q 560 1101 529 1132 q 592 1022 592 1071 q 561 942 593 974 q 478 911 529 911 z "},"Ẹ":{"ha":904,"x_min":65,"x_max":831,"o":"m 65 142 l 144 142 l 144 660 l 65 660 l 65 803 l 825 803 l 825 525 l 679 525 l 679 660 l 381 660 l 381 476 l 506 476 l 506 557 l 622 557 l 622 264 l 506 264 l 506 344 l 381 344 l 381 143 l 685 143 l 685 292 l 831 292 l 831 0 l 65 0 l 65 142 m 464 -269 q 389 -242 418 -269 q 360 -174 360 -215 q 388 -103 360 -129 q 464 -78 417 -78 q 540 -105 511 -78 q 568 -176 568 -132 q 539 -243 568 -217 q 464 -269 510 -269 z "},"È":{"ha":904,"x_min":65,"x_max":831,"o":"m 65 142 l 144 142 l 144 660 l 65 660 l 65 803 l 825 803 l 825 525 l 679 525 l 679 660 l 381 660 l 381 476 l 506 476 l 506 557 l 622 557 l 622 264 l 506 264 l 506 344 l 381 344 l 381 143 l 685 143 l 685 292 l 831 292 l 831 0 l 65 0 l 65 142 m 282 1132 l 474 1132 l 533 892 l 415 892 l 282 1132 z "},"Ẻ":{"ha":904,"x_min":65,"x_max":831,"o":"m 65 142 l 144 142 l 144 660 l 65 660 l 65 803 l 825 803 l 825 525 l 679 525 l 679 660 l 381 660 l 381 476 l 506 476 l 506 557 l 622 557 l 622 264 l 506 264 l 506 344 l 381 344 l 381 143 l 685 143 l 685 292 l 831 292 l 831 0 l 65 0 l 65 142 m 450 925 q 485 947 474 935 q 496 978 496 960 q 481 1010 496 999 q 439 1022 465 1022 q 360 999 399 1022 l 336 1067 q 468 1114 393 1114 q 564 1083 528 1114 q 600 1000 600 1051 q 469 864 600 897 l 450 925 z "},"Ȇ":{"ha":904,"x_min":65,"x_max":831,"o":"m 65 142 l 144 142 l 144 660 l 65 660 l 65 803 l 825 803 l 825 525 l 679 525 l 679 660 l 381 660 l 381 476 l 506 476 l 506 557 l 622 557 l 622 264 l 506 264 l 506 344 l 381 344 l 381 143 l 685 143 l 685 292 l 831 292 l 831 0 l 65 0 l 65 142 m 263 868 q 324 1026 268 971 q 478 1082 381 1082 q 631 1026 575 1082 q 692 868 688 971 l 568 868 q 478 954 556 954 q 417 932 440 954 q 388 868 394 910 l 263 868 z "},"Ē":{"ha":904,"x_min":65,"x_max":831,"o":"m 65 142 l 144 142 l 144 660 l 65 660 l 65 803 l 825 803 l 825 525 l 679 525 l 679 660 l 381 660 l 381 476 l 506 476 l 506 557 l 622 557 l 622 264 l 506 264 l 506 344 l 381 344 l 381 143 l 685 143 l 685 292 l 831 292 l 831 0 l 65 0 l 65 142 m 296 1008 l 660 1008 l 660 899 l 296 899 l 296 1008 z "},"Ḗ":{"ha":904,"x_min":65,"x_max":831,"o":"m 65 142 l 144 142 l 144 660 l 65 660 l 65 803 l 825 803 l 825 525 l 679 525 l 679 660 l 381 660 l 381 476 l 506 476 l 506 557 l 622 557 l 622 264 l 506 264 l 506 344 l 381 344 l 381 143 l 685 143 l 685 292 l 831 292 l 831 0 l 65 0 l 65 142 m 296 1008 l 660 1008 l 660 899 l 296 899 l 296 1008 m 479 1333 l 671 1333 l 536 1093 l 419 1093 l 479 1333 z "},"Ḕ":{"ha":904,"x_min":65,"x_max":831,"o":"m 65 142 l 144 142 l 144 660 l 65 660 l 65 803 l 825 803 l 825 525 l 679 525 l 679 660 l 381 660 l 381 476 l 506 476 l 506 557 l 622 557 l 622 264 l 506 264 l 506 344 l 381 344 l 381 143 l 685 143 l 685 292 l 831 292 l 831 0 l 65 0 l 65 142 m 296 1008 l 660 1008 l 660 899 l 296 899 l 296 1008 m 282 1333 l 474 1333 l 533 1093 l 415 1093 l 282 1333 z "},"Ę":{"ha":904,"x_min":65,"x_max":831,"o":"m 65 142 l 144 142 l 144 660 l 65 660 l 65 803 l 825 803 l 825 525 l 679 525 l 679 660 l 381 660 l 381 476 l 506 476 l 506 557 l 622 557 l 622 264 l 506 264 l 506 344 l 381 344 l 381 143 l 685 143 l 685 292 l 831 292 l 831 0 l 65 0 l 65 142 m 717 -268 q 624 -236 658 -268 q 590 -154 590 -204 q 682 0 590 -76 l 754 0 q 709 -60 724 -35 q 694 -111 694 -86 q 714 -153 694 -137 q 767 -169 733 -169 q 825 -158 794 -169 l 825 -243 q 717 -268 771 -268 z "},"Ẽ":{"ha":904,"x_min":65,"x_max":831,"o":"m 65 142 l 144 142 l 144 660 l 65 660 l 65 803 l 825 803 l 825 525 l 679 525 l 679 660 l 381 660 l 381 476 l 506 476 l 506 557 l 622 557 l 622 264 l 506 264 l 506 344 l 381 344 l 381 143 l 685 143 l 685 292 l 831 292 l 831 0 l 65 0 l 65 142 m 578 901 q 519 911 549 901 q 453 939 489 921 q 405 959 424 953 q 371 965 386 965 q 315 908 321 965 l 218 908 q 270 1060 226 1011 q 379 1108 314 1108 q 435 1099 407 1108 q 503 1071 464 1089 q 547 1053 525 1061 q 583 1044 568 1044 q 642 1101 633 1044 l 738 1101 q 687 951 729 1000 q 578 901 644 901 z "},"F":{"ha":847,"x_min":65,"x_max":821,"o":"m 65 142 l 144 142 l 144 660 l 65 660 l 65 803 l 821 803 l 821 519 l 675 519 l 675 660 l 381 660 l 381 478 l 503 478 l 503 556 l 619 556 l 619 264 l 503 264 l 503 344 l 381 344 l 381 142 l 469 142 l 469 0 l 65 0 l 65 142 z "},"Ḟ":{"ha":847,"x_min":65,"x_max":821,"o":"m 65 142 l 144 142 l 144 660 l 65 660 l 65 803 l 821 803 l 821 519 l 675 519 l 675 660 l 381 660 l 381 478 l 503 478 l 503 556 l 619 556 l 619 264 l 503 264 l 503 344 l 381 344 l 381 142 l 469 142 l 469 0 l 65 0 l 65 142 m 450 911 q 367 942 399 911 q 335 1022 335 974 q 367 1101 335 1071 q 450 1132 399 1132 q 533 1101 501 1132 q 564 1022 564 1071 q 533 942 565 974 q 450 911 501 911 z "},"G":{"ha":1018,"x_min":50,"x_max":942,"o":"m 942 438 l 942 381 q 886 163 942 251 q 733 30 831 74 q 510 -14 636 -14 q 269 38 374 -14 q 108 183 165 89 q 50 399 50 276 q 104 617 50 522 q 257 764 158 711 q 482 817 356 817 q 639 790 571 817 q 750 715 707 764 l 750 803 l 907 803 l 907 515 l 772 515 q 679 620 736 585 q 540 656 622 656 q 362 588 428 656 q 296 401 296 521 q 356 215 296 283 q 519 147 417 147 q 654 185 601 149 q 717 294 707 222 l 578 294 l 578 438 l 942 438 z "},"Ǵ":{"ha":1018,"x_min":50,"x_max":942,"o":"m 942 438 l 942 381 q 886 163 942 251 q 733 30 831 74 q 510 -14 636 -14 q 269 38 374 -14 q 108 183 165 89 q 50 399 50 276 q 104 617 50 522 q 257 764 158 711 q 482 817 356 817 q 639 790 571 817 q 750 715 707 764 l 750 803 l 907 803 l 907 515 l 772 515 q 679 620 736 585 q 540 656 622 656 q 362 588 428 656 q 296 401 296 521 q 356 215 296 283 q 519 147 417 147 q 654 185 601 149 q 717 294 707 222 l 578 294 l 578 438 l 942 438 m 542 1132 l 733 1132 l 599 892 l 482 892 l 542 1132 z "},"Ğ":{"ha":1018,"x_min":50,"x_max":942,"o":"m 942 438 l 942 381 q 886 163 942 251 q 733 30 831 74 q 510 -14 636 -14 q 269 38 374 -14 q 108 183 165 89 q 50 399 50 276 q 104 617 50 522 q 257 764 158 711 q 482 817 356 817 q 639 790 571 817 q 750 715 707 764 l 750 803 l 907 803 l 907 515 l 772 515 q 679 620 736 585 q 540 656 622 656 q 362 588 428 656 q 296 401 296 521 q 356 215 296 283 q 519 147 417 147 q 654 185 601 149 q 717 294 707 222 l 578 294 l 578 438 l 942 438 m 540 899 q 380 949 436 899 q 318 1096 324 999 l 453 1096 q 481 1032 458 1054 q 540 1010 503 1010 q 628 1096 619 1010 l 763 1096 q 697 949 754 999 q 540 899 640 899 z "},"Ǧ":{"ha":1018,"x_min":50,"x_max":942,"o":"m 942 438 l 942 381 q 886 163 942 251 q 733 30 831 74 q 510 -14 636 -14 q 269 38 374 -14 q 108 183 165 89 q 50 399 50 276 q 104 617 50 522 q 257 764 158 711 q 482 817 356 817 q 639 790 571 817 q 750 715 707 764 l 750 803 l 907 803 l 907 515 l 772 515 q 679 620 736 585 q 540 656 622 656 q 362 588 428 656 q 296 401 296 521 q 356 215 296 283 q 519 147 417 147 q 654 185 601 149 q 717 294 707 222 l 578 294 l 578 438 l 942 438 m 326 1129 l 463 1129 l 546 972 l 629 1129 l 753 1129 l 657 888 l 435 888 l 326 1129 z "},"Ĝ":{"ha":1018,"x_min":50,"x_max":942,"o":"m 942 438 l 942 381 q 886 163 942 251 q 733 30 831 74 q 510 -14 636 -14 q 269 38 374 -14 q 108 183 165 89 q 50 399 50 276 q 104 617 50 522 q 257 764 158 711 q 482 817 356 817 q 639 790 571 817 q 750 715 707 764 l 750 803 l 907 803 l 907 515 l 772 515 q 679 620 736 585 q 540 656 622 656 q 362 588 428 656 q 296 401 296 521 q 356 215 296 283 q 519 147 417 147 q 654 185 601 149 q 717 294 707 222 l 578 294 l 578 438 l 942 438 m 436 1131 l 647 1131 l 764 888 l 635 888 l 540 1046 l 446 888 l 317 888 l 436 1131 z "},"Ģ":{"ha":1018,"x_min":50,"x_max":942,"o":"m 942 438 l 942 381 q 886 163 942 251 q 733 30 831 74 q 510 -14 636 -14 q 269 38 374 -14 q 108 183 165 89 q 50 399 50 276 q 104 617 50 522 q 257 764 158 711 q 482 817 356 817 q 639 790 571 817 q 750 715 707 764 l 750 803 l 907 803 l 907 515 l 772 515 q 679 620 736 585 q 540 656 622 656 q 362 588 428 656 q 296 401 296 521 q 356 215 296 283 q 519 147 417 147 q 654 185 601 149 q 717 294 707 222 l 578 294 l 578 438 l 942 438 m 442 -350 q 506 -320 486 -346 q 526 -240 526 -294 l 432 -240 l 432 -78 l 628 -78 l 628 -211 q 585 -368 628 -318 q 442 -418 543 -418 l 442 -350 z "},"Ġ":{"ha":1018,"x_min":50,"x_max":942,"o":"m 942 438 l 942 381 q 886 163 942 251 q 733 30 831 74 q 510 -14 636 -14 q 269 38 374 -14 q 108 183 165 89 q 50 399 50 276 q 104 617 50 522 q 257 764 158 711 q 482 817 356 817 q 639 790 571 817 q 750 715 707 764 l 750 803 l 907 803 l 907 515 l 772 515 q 679 620 736 585 q 540 656 622 656 q 362 588 428 656 q 296 401 296 521 q 356 215 296 283 q 519 147 417 147 q 654 185 601 149 q 717 294 707 222 l 578 294 l 578 438 l 942 438 m 540 911 q 457 942 489 911 q 425 1022 425 974 q 457 1101 425 1071 q 540 1132 489 1132 q 623 1101 592 1132 q 654 1022 654 1071 q 624 942 656 974 q 540 911 592 911 z "},"Ḡ":{"ha":1018,"x_min":50,"x_max":942,"o":"m 942 438 l 942 381 q 886 163 942 251 q 733 30 831 74 q 510 -14 636 -14 q 269 38 374 -14 q 108 183 165 89 q 50 399 50 276 q 104 617 50 522 q 257 764 158 711 q 482 817 356 817 q 639 790 571 817 q 750 715 707 764 l 750 803 l 907 803 l 907 515 l 772 515 q 679 620 736 585 q 540 656 622 656 q 362 588 428 656 q 296 401 296 521 q 356 215 296 283 q 519 147 417 147 q 654 185 601 149 q 717 294 707 222 l 578 294 l 578 438 l 942 438 m 358 1008 l 722 1008 l 722 899 l 358 899 l 358 1008 z "},"H":{"ha":1039,"x_min":65,"x_max":974,"o":"m 65 142 l 144 142 l 144 660 l 65 660 l 65 803 l 460 803 l 460 660 l 381 660 l 381 475 l 660 475 l 660 660 l 579 660 l 579 803 l 974 803 l 974 660 l 893 660 l 893 142 l 974 142 l 974 0 l 579 0 l 579 142 l 660 142 l 660 342 l 381 342 l 381 142 l 460 142 l 460 0 l 65 0 l 65 142 z "},"Ħ":{"ha":1039,"x_min":65,"x_max":974,"o":"m 893 660 l 893 611 l 969 611 l 969 526 l 893 526 l 893 142 l 974 142 l 974 0 l 579 0 l 579 142 l 660 142 l 660 342 l 381 342 l 381 142 l 460 142 l 460 0 l 65 0 l 65 142 l 144 142 l 144 526 l 72 526 l 72 611 l 144 611 l 144 660 l 65 660 l 65 803 l 460 803 l 460 660 l 381 660 l 381 611 l 660 611 l 660 660 l 579 660 l 579 803 l 974 803 l 974 660 l 893 660 m 660 526 l 381 526 l 381 475 l 660 475 l 660 526 z "},"Ḫ":{"ha":1039,"x_min":65,"x_max":974,"o":"m 65 142 l 144 142 l 144 660 l 65 660 l 65 803 l 460 803 l 460 660 l 381 660 l 381 475 l 660 475 l 660 660 l 579 660 l 579 803 l 974 803 l 974 660 l 893 660 l 893 142 l 974 142 l 974 0 l 579 0 l 579 142 l 660 142 l 660 342 l 381 342 l 381 142 l 460 142 l 460 0 l 65 0 l 65 142 m 543 -275 q 383 -225 439 -275 q 321 -78 326 -175 l 456 -78 q 483 -142 461 -119 q 543 -164 506 -164 q 631 -78 622 -164 l 765 -78 q 700 -225 757 -175 q 543 -275 643 -275 z "},"Ȟ":{"ha":1039,"x_min":65,"x_max":974,"o":"m 65 142 l 144 142 l 144 660 l 65 660 l 65 803 l 460 803 l 460 660 l 381 660 l 381 475 l 660 475 l 660 660 l 579 660 l 579 803 l 974 803 l 974 660 l 893 660 l 893 142 l 974 142 l 974 0 l 579 0 l 579 142 l 660 142 l 660 342 l 381 342 l 381 142 l 460 142 l 460 0 l 65 0 l 65 142 m 307 1129 l 443 1129 l 526 972 l 610 1129 l 733 1129 l 638 888 l 415 888 l 307 1129 z "},"Ĥ":{"ha":1039,"x_min":65,"x_max":974,"o":"m 65 142 l 144 142 l 144 660 l 65 660 l 65 803 l 460 803 l 460 660 l 381 660 l 381 475 l 660 475 l 660 660 l 579 660 l 579 803 l 974 803 l 974 660 l 893 660 l 893 142 l 974 142 l 974 0 l 579 0 l 579 142 l 660 142 l 660 342 l 381 342 l 381 142 l 460 142 l 460 0 l 65 0 l 65 142 m 417 1131 l 628 1131 l 744 888 l 615 888 l 521 1046 l 426 888 l 297 888 l 417 1131 z "},"Ḥ":{"ha":1039,"x_min":65,"x_max":974,"o":"m 65 142 l 144 142 l 144 660 l 65 660 l 65 803 l 460 803 l 460 660 l 381 660 l 381 475 l 660 475 l 660 660 l 579 660 l 579 803 l 974 803 l 974 660 l 893 660 l 893 142 l 974 142 l 974 0 l 579 0 l 579 142 l 660 142 l 660 342 l 381 342 l 381 142 l 460 142 l 460 0 l 65 0 l 65 142 m 543 -269 q 468 -242 497 -269 q 439 -174 439 -215 q 467 -103 439 -129 q 543 -78 496 -78 q 619 -105 590 -78 q 647 -176 647 -132 q 618 -243 647 -217 q 543 -269 589 -269 z "},"I":{"ha":533,"x_min":69,"x_max":464,"o":"m 69 142 l 149 142 l 149 660 l 69 660 l 69 803 l 464 803 l 464 660 l 383 660 l 383 142 l 464 142 l 464 0 l 69 0 l 69 142 z "},"Ĳ":{"ha":1071,"x_min":69,"x_max":1021,"o":"m 69 142 l 149 142 l 149 660 l 69 660 l 69 803 l 464 803 l 464 660 l 383 660 l 383 142 l 464 142 l 464 0 l 69 0 l 69 142 m 554 -29 l 604 -29 q 685 1 661 -29 q 708 97 708 32 l 708 671 l 619 671 l 619 803 l 1021 803 l 1021 671 l 943 671 l 943 111 q 874 -126 943 -51 q 651 -201 806 -201 l 554 -201 l 554 -29 z "},"Í":{"ha":533,"x_min":69,"x_max":464,"o":"m 69 142 l 149 142 l 149 660 l 69 660 l 69 803 l 464 803 l 464 660 l 383 660 l 383 142 l 464 142 l 464 0 l 69 0 l 69 142 m 268 1132 l 460 1132 l 325 892 l 208 892 l 268 1132 z "},"Ĭ":{"ha":533,"x_min":44,"x_max":489,"o":"m 69 142 l 149 142 l 149 660 l 69 660 l 69 803 l 464 803 l 464 660 l 383 660 l 383 142 l 464 142 l 464 0 l 69 0 l 69 142 m 267 899 q 106 949 163 899 q 44 1096 50 999 l 179 1096 q 207 1032 185 1054 q 267 1010 229 1010 q 354 1096 346 1010 l 489 1096 q 424 949 481 999 q 267 899 367 899 z "},"Ǐ":{"ha":533,"x_min":53,"x_max":479,"o":"m 69 142 l 149 142 l 149 660 l 69 660 l 69 803 l 464 803 l 464 660 l 383 660 l 383 142 l 464 142 l 464 0 l 69 0 l 69 142 m 53 1129 l 189 1129 l 272 972 l 356 1129 l 479 1129 l 383 888 l 161 888 l 53 1129 z "},"Î":{"ha":533,"x_min":43,"x_max":490,"o":"m 69 142 l 149 142 l 149 660 l 69 660 l 69 803 l 464 803 l 464 660 l 383 660 l 383 142 l 464 142 l 464 0 l 69 0 l 69 142 m 163 1131 l 374 1131 l 490 888 l 361 888 l 267 1046 l 172 888 l 43 888 l 163 1131 z "},"Ȉ":{"ha":533,"x_min":-68,"x_max":464,"o":"m 69 142 l 149 142 l 149 660 l 69 660 l 69 803 l 464 803 l 464 660 l 383 660 l 383 142 l 464 142 l 464 0 l 69 0 l 69 142 m -68 1135 l 124 1135 l 186 892 l 68 892 l -68 1135 m 201 1135 l 393 1135 l 456 892 l 336 892 l 201 1135 z "},"Ï":{"ha":533,"x_min":-14,"x_max":547,"o":"m 69 142 l 149 142 l 149 660 l 69 660 l 69 803 l 464 803 l 464 660 l 383 660 l 383 142 l 464 142 l 464 0 l 69 0 l 69 142 m 96 911 q 17 939 49 911 q -14 1015 -14 967 q 17 1092 -14 1064 q 96 1121 49 1121 q 174 1092 142 1121 q 206 1015 206 1064 q 174 939 206 967 q 96 911 142 911 m 438 911 q 360 939 392 911 q 329 1015 329 967 q 360 1092 329 1064 q 438 1121 392 1121 q 516 1092 485 1121 q 547 1015 547 1064 q 516 939 547 967 q 438 911 485 911 z "},"Ḯ":{"ha":533,"x_min":-14,"x_max":547,"o":"m 69 142 l 149 142 l 149 660 l 69 660 l 69 803 l 464 803 l 464 660 l 383 660 l 383 142 l 464 142 l 464 0 l 69 0 l 69 142 m 96 911 q 17 939 49 911 q -14 1015 -14 967 q 17 1092 -14 1064 q 96 1121 49 1121 q 174 1092 142 1121 q 206 1015 206 1064 q 174 939 206 967 q 96 911 142 911 m 438 911 q 360 939 392 911 q 329 1015 329 967 q 360 1092 329 1064 q 438 1121 392 1121 q 516 1092 485 1121 q 547 1015 547 1064 q 516 939 547 967 q 438 911 485 911 m 268 1418 l 460 1418 l 325 1178 l 208 1178 l 268 1418 z "},"İ":{"ha":533,"x_min":69,"x_max":464,"o":"m 69 142 l 149 142 l 149 660 l 69 660 l 69 803 l 464 803 l 464 660 l 383 660 l 383 142 l 464 142 l 464 0 l 69 0 l 69 142 m 267 911 q 183 942 215 911 q 151 1022 151 974 q 183 1101 151 1071 q 267 1132 215 1132 q 349 1101 318 1132 q 381 1022 381 1071 q 350 942 382 974 q 267 911 318 911 z "},"Ị":{"ha":533,"x_min":69,"x_max":464,"o":"m 69 142 l 149 142 l 149 660 l 69 660 l 69 803 l 464 803 l 464 660 l 383 660 l 383 142 l 464 142 l 464 0 l 69 0 l 69 142 m 267 -269 q 192 -242 221 -269 q 163 -174 163 -215 q 191 -103 163 -129 q 267 -78 219 -78 q 342 -105 314 -78 q 371 -176 371 -132 q 342 -243 371 -217 q 267 -269 313 -269 z "},"Ì":{"ha":533,"x_min":69,"x_max":464,"o":"m 69 142 l 149 142 l 149 660 l 69 660 l 69 803 l 464 803 l 464 660 l 383 660 l 383 142 l 464 142 l 464 0 l 69 0 l 69 142 m 71 1132 l 263 1132 l 322 892 l 204 892 l 71 1132 z "},"Ỉ":{"ha":533,"x_min":69,"x_max":464,"o":"m 69 142 l 149 142 l 149 660 l 69 660 l 69 803 l 464 803 l 464 660 l 383 660 l 383 142 l 464 142 l 464 0 l 69 0 l 69 142 m 239 925 q 274 947 263 935 q 285 978 285 960 q 269 1010 285 999 q 228 1022 254 1022 q 149 999 188 1022 l 125 1067 q 257 1114 182 1114 q 353 1083 317 1114 q 389 1000 389 1051 q 258 864 389 897 l 239 925 z "},"Ȋ":{"ha":533,"x_min":51,"x_max":481,"o":"m 69 142 l 149 142 l 149 660 l 69 660 l 69 803 l 464 803 l 464 660 l 383 660 l 383 142 l 464 142 l 464 0 l 69 0 l 69 142 m 51 868 q 113 1026 57 971 q 267 1082 169 1082 q 420 1026 364 1082 q 481 868 476 971 l 357 868 q 267 954 344 954 q 206 932 229 954 q 176 868 183 910 l 51 868 z "},"Ī":{"ha":533,"x_min":69,"x_max":464,"o":"m 69 142 l 149 142 l 149 660 l 69 660 l 69 803 l 464 803 l 464 660 l 383 660 l 383 142 l 464 142 l 464 0 l 69 0 l 69 142 m 85 1008 l 449 1008 l 449 899 l 85 899 l 85 1008 z "},"Į":{"ha":533,"x_min":69,"x_max":464,"o":"m 69 142 l 149 142 l 149 660 l 69 660 l 69 803 l 464 803 l 464 660 l 383 660 l 383 142 l 464 142 l 464 0 l 69 0 l 69 142 m 272 -268 q 180 -236 214 -268 q 146 -154 146 -204 q 238 0 146 -76 l 310 0 q 265 -60 279 -35 q 250 -111 250 -86 q 269 -153 250 -137 q 322 -169 289 -169 q 381 -158 350 -169 l 381 -243 q 272 -268 326 -268 z "},"Ĩ":{"ha":533,"x_min":7,"x_max":526,"o":"m 69 142 l 149 142 l 149 660 l 69 660 l 69 803 l 464 803 l 464 660 l 383 660 l 383 142 l 464 142 l 464 0 l 69 0 l 69 142 m 367 901 q 308 911 338 901 q 242 939 278 921 q 194 959 213 953 q 160 965 175 965 q 104 908 110 965 l 7 908 q 59 1060 15 1011 q 168 1108 103 1108 q 224 1099 196 1108 q 292 1071 253 1089 q 335 1053 314 1061 q 372 1044 357 1044 q 431 1101 422 1044 l 526 1101 q 476 951 518 1000 q 367 901 433 901 z "},"J":{"ha":538,"x_min":21,"x_max":488,"o":"m 21 -29 l 71 -29 q 151 1 128 -29 q 175 97 175 32 l 175 671 l 86 671 l 86 803 l 488 803 l 488 671 l 410 671 l 410 111 q 341 -126 410 -51 q 118 -201 272 -201 l 21 -201 l 21 -29 z "},"Ĵ":{"ha":538,"x_min":21,"x_max":510,"o":"m 21 -29 l 71 -29 q 151 1 128 -29 q 175 97 175 32 l 175 671 l 86 671 l 86 803 l 488 803 l 488 671 l 410 671 l 410 111 q 341 -126 410 -51 q 118 -201 272 -201 l 21 -201 l 21 -29 m 182 1131 l 393 1131 l 510 888 l 381 888 l 286 1046 l 192 888 l 63 888 l 182 1131 z "},"K":{"ha":969,"x_min":65,"x_max":931,"o":"m 65 142 l 144 142 l 144 660 l 65 660 l 65 803 l 461 803 l 461 660 l 381 660 l 381 428 l 617 660 l 547 660 l 547 803 l 914 803 l 914 660 l 850 660 l 601 414 l 867 142 l 931 142 l 931 0 l 544 0 l 544 142 l 606 142 l 381 381 l 381 142 l 461 142 l 461 0 l 65 0 l 65 142 z "},"Ǩ":{"ha":969,"x_min":65,"x_max":931,"o":"m 65 142 l 144 142 l 144 660 l 65 660 l 65 803 l 461 803 l 461 660 l 381 660 l 381 428 l 617 660 l 547 660 l 547 803 l 914 803 l 914 660 l 850 660 l 601 414 l 867 142 l 931 142 l 931 0 l 544 0 l 544 142 l 606 142 l 381 381 l 381 142 l 461 142 l 461 0 l 65 0 l 65 142 m 290 1129 l 426 1129 l 510 972 l 593 1129 l 717 1129 l 621 888 l 399 888 l 290 1129 z "},"Ķ":{"ha":969,"x_min":65,"x_max":931,"o":"m 65 142 l 144 142 l 144 660 l 65 660 l 65 803 l 461 803 l 461 660 l 381 660 l 381 428 l 617 660 l 547 660 l 547 803 l 914 803 l 914 660 l 850 660 l 601 414 l 867 142 l 931 142 l 931 0 l 544 0 l 544 142 l 606 142 l 381 381 l 381 142 l 461 142 l 461 0 l 65 0 l 65 142 m 458 -350 q 523 -320 503 -346 q 543 -240 543 -294 l 449 -240 l 449 -78 l 644 -78 l 644 -211 q 602 -368 644 -318 q 458 -418 560 -418 l 458 -350 z "},"L":{"ha":789,"x_min":65,"x_max":757,"o":"m 65 142 l 144 142 l 144 671 l 65 671 l 65 803 l 460 803 l 460 671 l 381 671 l 381 142 l 600 142 l 600 354 l 757 354 l 757 0 l 65 0 l 65 142 z "},"Ǉ":{"ha":1326,"x_min":65,"x_max":1276,"o":"m 65 142 l 144 142 l 144 671 l 65 671 l 65 803 l 460 803 l 460 671 l 381 671 l 381 142 l 600 142 l 600 354 l 757 354 l 757 0 l 65 0 l 65 142 m 810 -29 l 860 -29 q 940 1 917 -29 q 964 97 964 32 l 964 671 l 875 671 l 875 803 l 1276 803 l 1276 671 l 1199 671 l 1199 111 q 1130 -126 1199 -51 q 907 -201 1061 -201 l 810 -201 l 810 -29 z "},"Ĺ":{"ha":789,"x_min":65,"x_max":757,"o":"m 65 142 l 144 142 l 144 671 l 65 671 l 65 803 l 460 803 l 460 671 l 381 671 l 381 142 l 600 142 l 600 354 l 757 354 l 757 0 l 65 0 l 65 142 m 264 1132 l 456 1132 l 321 892 l 204 892 l 264 1132 z "},"Ľ":{"ha":789,"x_min":65,"x_max":757,"o":"m 65 142 l 144 142 l 144 671 l 65 671 l 65 803 l 460 803 l 460 671 l 381 671 l 381 142 l 600 142 l 600 354 l 757 354 l 757 0 l 65 0 l 65 142 m 563 521 q 633 551 611 525 q 656 635 656 576 l 561 635 l 561 804 l 757 804 l 757 664 q 713 506 757 560 q 563 453 668 453 l 563 521 z "},"Ļ":{"ha":789,"x_min":65,"x_max":757,"o":"m 65 142 l 144 142 l 144 671 l 65 671 l 65 803 l 460 803 l 460 671 l 381 671 l 381 142 l 600 142 l 600 354 l 757 354 l 757 0 l 65 0 l 65 142 m 325 -350 q 390 -320 369 -346 q 410 -240 410 -294 l 315 -240 l 315 -78 l 511 -78 l 511 -211 q 469 -368 511 -318 q 325 -418 426 -418 l 325 -350 z "},"Ŀ":{"ha":789,"x_min":65,"x_max":757,"o":"m 65 142 l 144 142 l 144 671 l 65 671 l 65 803 l 460 803 l 460 671 l 381 671 l 381 142 l 600 142 l 600 354 l 757 354 l 757 0 l 65 0 l 65 142 m 653 458 q 587 485 614 458 q 560 547 560 511 q 587 609 560 583 q 653 635 614 635 q 720 609 693 635 q 747 547 747 583 q 720 484 747 510 q 653 458 693 458 z "},"Ḷ":{"ha":789,"x_min":65,"x_max":757,"o":"m 65 142 l 144 142 l 144 671 l 65 671 l 65 803 l 460 803 l 460 671 l 381 671 l 381 142 l 600 142 l 600 354 l 757 354 l 757 0 l 65 0 l 65 142 m 414 -269 q 339 -242 368 -269 q 310 -174 310 -215 q 338 -103 310 -129 q 414 -78 367 -78 q 490 -105 461 -78 q 518 -176 518 -132 q 489 -243 518 -217 q 414 -269 460 -269 z "},"ǈ":{"ha":1203,"x_min":65,"x_max":1146,"o":"m 65 142 l 144 142 l 144 671 l 65 671 l 65 803 l 460 803 l 460 671 l 381 671 l 381 142 l 600 142 l 600 354 l 757 354 l 757 0 l 65 0 l 65 142 m 1021 660 q 934 691 967 660 q 901 775 901 722 q 934 859 901 828 q 1021 890 967 890 q 1109 859 1076 890 q 1142 775 1142 828 q 1109 691 1142 722 q 1021 660 1076 660 m 781 -76 l 833 -76 q 915 -51 892 -76 q 939 35 939 -26 l 939 424 l 836 424 l 836 556 l 1146 556 l 1146 61 q 1074 -160 1146 -90 q 853 -229 1003 -229 l 781 -229 l 781 -76 z "},"Ḻ":{"ha":789,"x_min":65,"x_max":757,"o":"m 65 142 l 144 142 l 144 671 l 65 671 l 65 803 l 460 803 l 460 671 l 381 671 l 381 142 l 600 142 l 600 354 l 757 354 l 757 0 l 65 0 l 65 142 m 232 -104 l 596 -104 l 596 -214 l 232 -214 l 232 -104 z "},"Ł":{"ha":789,"x_min":65,"x_max":757,"o":"m 757 354 l 757 0 l 65 0 l 65 142 l 144 142 l 144 300 l 65 267 l 65 368 l 144 400 l 144 671 l 65 671 l 65 803 l 460 803 l 460 671 l 381 671 l 381 496 l 574 575 l 574 476 l 381 397 l 381 142 l 600 142 l 600 354 l 757 354 z "},"M":{"ha":1254,"x_min":65,"x_max":1189,"o":"m 65 142 l 144 142 l 144 660 l 65 660 l 65 803 l 460 803 l 638 369 l 810 803 l 1189 803 l 1189 660 l 1110 660 l 1110 142 l 1189 142 l 1189 0 l 808 0 l 808 142 l 886 142 l 886 593 l 661 32 l 558 32 l 331 593 l 331 142 l 408 142 l 408 0 l 65 0 l 65 142 z "},"Ṁ":{"ha":1254,"x_min":65,"x_max":1189,"o":"m 65 142 l 144 142 l 144 660 l 65 660 l 65 803 l 460 803 l 638 369 l 810 803 l 1189 803 l 1189 660 l 1110 660 l 1110 142 l 1189 142 l 1189 0 l 808 0 l 808 142 l 886 142 l 886 593 l 661 32 l 558 32 l 331 593 l 331 142 l 408 142 l 408 0 l 65 0 l 65 142 m 633 911 q 550 942 582 911 q 518 1022 518 974 q 550 1101 518 1071 q 633 1132 582 1132 q 716 1101 685 1132 q 747 1022 747 1071 q 717 942 749 974 q 633 911 685 911 z "},"Ṃ":{"ha":1254,"x_min":65,"x_max":1189,"o":"m 65 142 l 144 142 l 144 660 l 65 660 l 65 803 l 460 803 l 638 369 l 810 803 l 1189 803 l 1189 660 l 1110 660 l 1110 142 l 1189 142 l 1189 0 l 808 0 l 808 142 l 886 142 l 886 593 l 661 32 l 558 32 l 331 593 l 331 142 l 408 142 l 408 0 l 65 0 l 65 142 m 611 -269 q 536 -242 565 -269 q 507 -174 507 -215 q 535 -103 507 -129 q 611 -78 564 -78 q 687 -105 658 -78 q 715 -176 715 -132 q 686 -243 715 -217 q 611 -269 657 -269 z "},"N":{"ha":1042,"x_min":67,"x_max":990,"o":"m 67 142 l 147 142 l 147 660 l 67 660 l 67 803 l 418 803 l 756 294 l 756 660 l 664 660 l 664 803 l 990 803 l 990 660 l 911 660 l 911 0 l 676 0 l 299 565 l 299 142 l 390 142 l 390 0 l 67 0 l 67 142 z "},"Ǌ":{"ha":1579,"x_min":67,"x_max":1529,"o":"m 67 142 l 147 142 l 147 660 l 67 660 l 67 803 l 418 803 l 756 294 l 756 660 l 664 660 l 664 803 l 990 803 l 990 660 l 911 660 l 911 0 l 676 0 l 299 565 l 299 142 l 390 142 l 390 0 l 67 0 l 67 142 m 1063 -29 l 1113 -29 q 1193 1 1169 -29 q 1217 97 1217 32 l 1217 671 l 1128 671 l 1128 803 l 1529 803 l 1529 671 l 1451 671 l 1451 111 q 1383 -126 1451 -51 q 1160 -201 1314 -201 l 1063 -201 l 1063 -29 z "},"Ń":{"ha":1042,"x_min":67,"x_max":990,"o":"m 67 142 l 147 142 l 147 660 l 67 660 l 67 803 l 418 803 l 756 294 l 756 660 l 664 660 l 664 803 l 990 803 l 990 660 l 911 660 l 911 0 l 676 0 l 299 565 l 299 142 l 390 142 l 390 0 l 67 0 l 67 142 m 543 1132 l 735 1132 l 600 892 l 483 892 l 543 1132 z "},"Ň":{"ha":1042,"x_min":67,"x_max":990,"o":"m 67 142 l 147 142 l 147 660 l 67 660 l 67 803 l 418 803 l 756 294 l 756 660 l 664 660 l 664 803 l 990 803 l 990 660 l 911 660 l 911 0 l 676 0 l 299 565 l 299 142 l 390 142 l 390 0 l 67 0 l 67 142 m 328 1129 l 464 1129 l 547 972 l 631 1129 l 754 1129 l 658 888 l 436 888 l 328 1129 z "},"Ņ":{"ha":1042,"x_min":67,"x_max":990,"o":"m 67 142 l 147 142 l 147 660 l 67 660 l 67 803 l 418 803 l 756 294 l 756 660 l 664 660 l 664 803 l 990 803 l 990 660 l 911 660 l 911 0 l 676 0 l 299 565 l 299 142 l 390 142 l 390 0 l 67 0 l 67 142 m 451 -350 q 516 -320 496 -346 q 536 -240 536 -294 l 442 -240 l 442 -78 l 638 -78 l 638 -211 q 595 -368 638 -318 q 451 -418 553 -418 l 451 -350 z "},"Ṅ":{"ha":1042,"x_min":67,"x_max":990,"o":"m 67 142 l 147 142 l 147 660 l 67 660 l 67 803 l 418 803 l 756 294 l 756 660 l 664 660 l 664 803 l 990 803 l 990 660 l 911 660 l 911 0 l 676 0 l 299 565 l 299 142 l 390 142 l 390 0 l 67 0 l 67 142 m 542 911 q 458 942 490 911 q 426 1022 426 974 q 458 1101 426 1071 q 542 1132 490 1132 q 624 1101 593 1132 q 656 1022 656 1071 q 625 942 657 974 q 542 911 593 911 z "},"Ṇ":{"ha":1042,"x_min":67,"x_max":990,"o":"m 67 142 l 147 142 l 147 660 l 67 660 l 67 803 l 418 803 l 756 294 l 756 660 l 664 660 l 664 803 l 990 803 l 990 660 l 911 660 l 911 0 l 676 0 l 299 565 l 299 142 l 390 142 l 390 0 l 67 0 l 67 142 m 540 -269 q 465 -242 494 -269 q 436 -174 436 -215 q 465 -103 436 -129 q 540 -78 493 -78 q 616 -105 588 -78 q 644 -176 644 -132 q 615 -243 644 -217 q 540 -269 586 -269 z "},"Ǹ":{"ha":1042,"x_min":67,"x_max":990,"o":"m 67 142 l 147 142 l 147 660 l 67 660 l 67 803 l 418 803 l 756 294 l 756 660 l 664 660 l 664 803 l 990 803 l 990 660 l 911 660 l 911 0 l 676 0 l 299 565 l 299 142 l 390 142 l 390 0 l 67 0 l 67 142 m 346 1132 l 538 1132 l 597 892 l 479 892 l 346 1132 z "},"Ŋ":{"ha":1031,"x_min":65,"x_max":981,"o":"m 539 -132 l 589 -132 q 699 -103 654 -132 q 744 -17 744 -75 l 299 518 l 299 142 l 389 142 l 389 0 l 65 0 l 65 142 l 146 142 l 146 660 l 65 660 l 65 803 l 356 803 l 744 315 l 744 660 l 653 660 l 653 803 l 981 803 l 981 660 l 900 660 l 900 1 q 836 -198 900 -132 q 639 -264 772 -264 l 539 -264 l 539 -132 z "},"ǋ":{"ha":1456,"x_min":67,"x_max":1399,"o":"m 67 142 l 147 142 l 147 660 l 67 660 l 67 803 l 418 803 l 756 294 l 756 660 l 664 660 l 664 803 l 990 803 l 990 660 l 911 660 l 911 0 l 676 0 l 299 565 l 299 142 l 390 142 l 390 0 l 67 0 l 67 142 m 1274 660 q 1187 691 1219 660 q 1154 775 1154 722 q 1187 859 1154 828 q 1274 890 1219 890 q 1362 859 1329 890 q 1394 775 1394 828 q 1362 691 1394 722 q 1274 660 1329 660 m 1033 -76 l 1086 -76 q 1168 -51 1144 -76 q 1192 35 1192 -26 l 1192 424 l 1089 424 l 1089 556 l 1399 556 l 1399 61 q 1327 -160 1399 -90 q 1106 -229 1256 -229 l 1033 -229 l 1033 -76 z "},"Ṉ":{"ha":1042,"x_min":67,"x_max":990,"o":"m 67 142 l 147 142 l 147 660 l 67 660 l 67 803 l 418 803 l 756 294 l 756 660 l 664 660 l 664 803 l 990 803 l 990 660 l 911 660 l 911 0 l 676 0 l 299 565 l 299 142 l 390 142 l 390 0 l 67 0 l 67 142 m 358 -104 l 722 -104 l 722 -214 l 358 -214 l 358 -104 z "},"Ñ":{"ha":1042,"x_min":67,"x_max":990,"o":"m 67 142 l 147 142 l 147 660 l 67 660 l 67 803 l 418 803 l 756 294 l 756 660 l 664 660 l 664 803 l 990 803 l 990 660 l 911 660 l 911 0 l 676 0 l 299 565 l 299 142 l 390 142 l 390 0 l 67 0 l 67 142 m 642 901 q 583 911 613 901 q 517 939 553 921 q 469 959 488 953 q 435 965 450 965 q 379 908 385 965 l 282 908 q 334 1060 290 1011 q 443 1108 378 1108 q 499 1099 471 1108 q 567 1071 528 1089 q 610 1053 589 1061 q 647 1044 632 1044 q 706 1101 697 1044 l 801 1101 q 751 951 793 1000 q 642 901 708 901 z "},"O":{"ha":1013,"x_min":50,"x_max":961,"o":"m 506 -14 q 266 38 369 -14 q 106 183 163 89 q 50 399 50 276 q 107 616 50 521 q 267 764 164 711 q 506 817 369 817 q 745 764 642 817 q 905 616 849 711 q 961 399 961 521 q 905 183 961 276 q 745 38 849 89 q 506 -14 642 -14 m 506 147 q 660 219 603 147 q 717 403 717 290 q 660 586 717 517 q 508 656 604 656 q 353 587 411 656 q 296 403 296 518 q 353 218 296 289 q 506 147 410 147 z "},"Ó":{"ha":1013,"x_min":50,"x_max":961,"o":"m 506 -14 q 266 38 369 -14 q 106 183 163 89 q 50 399 50 276 q 107 616 50 521 q 267 764 164 711 q 506 817 369 817 q 745 764 642 817 q 905 616 849 711 q 961 399 961 521 q 905 183 961 276 q 745 38 849 89 q 506 -14 642 -14 m 506 147 q 660 219 603 147 q 717 403 717 290 q 660 586 717 517 q 508 656 604 656 q 353 587 411 656 q 296 403 296 518 q 353 218 296 289 q 506 147 410 147 m 507 1132 l 699 1132 l 564 892 l 447 892 l 507 1132 z "},"Ŏ":{"ha":1013,"x_min":50,"x_max":961,"o":"m 506 -14 q 266 38 369 -14 q 106 183 163 89 q 50 399 50 276 q 107 616 50 521 q 267 764 164 711 q 506 817 369 817 q 745 764 642 817 q 905 616 849 711 q 961 399 961 521 q 905 183 961 276 q 745 38 849 89 q 506 -14 642 -14 m 506 147 q 660 219 603 147 q 717 403 717 290 q 660 586 717 517 q 508 656 604 656 q 353 587 411 656 q 296 403 296 518 q 353 218 296 289 q 506 147 410 147 m 506 899 q 345 949 401 899 q 283 1096 289 999 l 418 1096 q 446 1032 424 1054 q 506 1010 468 1010 q 593 1096 585 1010 l 728 1096 q 663 949 719 999 q 506 899 606 899 z "},"Ǒ":{"ha":1013,"x_min":50,"x_max":961,"o":"m 506 -14 q 266 38 369 -14 q 106 183 163 89 q 50 399 50 276 q 107 616 50 521 q 267 764 164 711 q 506 817 369 817 q 745 764 642 817 q 905 616 849 711 q 961 399 961 521 q 905 183 961 276 q 745 38 849 89 q 506 -14 642 -14 m 506 147 q 660 219 603 147 q 717 403 717 290 q 660 586 717 517 q 508 656 604 656 q 353 587 411 656 q 296 403 296 518 q 353 218 296 289 q 506 147 410 147 m 292 1129 l 428 1129 l 511 972 l 594 1129 l 718 1129 l 622 888 l 400 888 l 292 1129 z "},"Ô":{"ha":1013,"x_min":50,"x_max":961,"o":"m 506 -14 q 266 38 369 -14 q 106 183 163 89 q 50 399 50 276 q 107 616 50 521 q 267 764 164 711 q 506 817 369 817 q 745 764 642 817 q 905 616 849 711 q 961 399 961 521 q 905 183 961 276 q 745 38 849 89 q 506 -14 642 -14 m 506 147 q 660 219 603 147 q 717 403 717 290 q 660 586 717 517 q 508 656 604 656 q 353 587 411 656 q 296 403 296 518 q 353 218 296 289 q 506 147 410 147 m 401 1131 l 613 1131 l 729 888 l 600 888 l 506 1046 l 411 888 l 282 888 l 401 1131 z "},"Ố":{"ha":1013,"x_min":50,"x_max":961,"o":"m 506 -14 q 266 38 369 -14 q 106 183 163 89 q 50 399 50 276 q 107 616 50 521 q 267 764 164 711 q 506 817 369 817 q 745 764 642 817 q 905 616 849 711 q 961 399 961 521 q 905 183 961 276 q 745 38 849 89 q 506 -14 642 -14 m 506 147 q 660 219 603 147 q 717 403 717 290 q 660 586 717 517 q 508 656 604 656 q 353 587 411 656 q 296 403 296 518 q 353 218 296 289 q 506 147 410 147 m 744 1206 l 894 1206 l 782 1017 l 685 1017 l 744 1206 m 411 1078 l 601 1078 l 719 888 l 590 888 l 506 994 l 421 888 l 292 888 l 411 1078 z "},"Ộ":{"ha":1013,"x_min":50,"x_max":961,"o":"m 506 -14 q 266 38 369 -14 q 106 183 163 89 q 50 399 50 276 q 107 616 50 521 q 267 764 164 711 q 506 817 369 817 q 745 764 642 817 q 905 616 849 711 q 961 399 961 521 q 905 183 961 276 q 745 38 849 89 q 506 -14 642 -14 m 506 147 q 660 219 603 147 q 717 403 717 290 q 660 586 717 517 q 508 656 604 656 q 353 587 411 656 q 296 403 296 518 q 353 218 296 289 q 506 147 410 147 m 506 -269 q 431 -242 460 -269 q 401 -174 401 -215 q 430 -103 401 -129 q 506 -78 458 -78 q 581 -105 553 -78 q 610 -176 610 -132 q 581 -243 610 -217 q 506 -269 551 -269 m 401 1131 l 613 1131 l 729 888 l 600 888 l 506 1046 l 411 888 l 282 888 l 401 1131 z "},"Ồ":{"ha":1013,"x_min":50,"x_max":961,"o":"m 506 -14 q 266 38 369 -14 q 106 183 163 89 q 50 399 50 276 q 107 616 50 521 q 267 764 164 711 q 506 817 369 817 q 745 764 642 817 q 905 616 849 711 q 961 399 961 521 q 905 183 961 276 q 745 38 849 89 q 506 -14 642 -14 m 506 147 q 660 219 603 147 q 717 403 717 290 q 660 586 717 517 q 508 656 604 656 q 353 587 411 656 q 296 403 296 518 q 353 218 296 289 q 506 147 410 147 m 728 1017 l 615 1206 l 765 1206 l 825 1017 l 728 1017 m 411 1078 l 601 1078 l 719 888 l 590 888 l 506 994 l 421 888 l 292 888 l 411 1078 z "},"Ổ":{"ha":1013,"x_min":50,"x_max":961,"o":"m 506 -14 q 266 38 369 -14 q 106 183 163 89 q 50 399 50 276 q 107 616 50 521 q 267 764 164 711 q 506 817 369 817 q 745 764 642 817 q 905 616 849 711 q 961 399 961 521 q 905 183 961 276 q 745 38 849 89 q 506 -14 642 -14 m 506 147 q 660 219 603 147 q 717 403 717 290 q 660 586 717 517 q 508 656 604 656 q 353 587 411 656 q 296 403 296 518 q 353 218 296 289 q 506 147 410 147 m 688 1056 q 722 1078 711 1065 q 733 1108 733 1090 q 718 1141 733 1129 q 676 1153 703 1153 q 597 1129 636 1153 l 574 1197 q 706 1244 631 1244 q 801 1213 765 1244 q 838 1131 838 1182 q 707 994 838 1028 l 688 1056 m 411 1078 l 601 1078 l 719 888 l 590 888 l 506 994 l 421 888 l 292 888 l 411 1078 z "},"Ỗ":{"ha":1013,"x_min":50,"x_max":961,"o":"m 506 -14 q 266 38 369 -14 q 106 183 163 89 q 50 399 50 276 q 107 616 50 521 q 267 764 164 711 q 506 817 369 817 q 745 764 642 817 q 905 616 849 711 q 961 399 961 521 q 905 183 961 276 q 745 38 849 89 q 506 -14 642 -14 m 506 147 q 660 219 603 147 q 717 403 717 290 q 660 586 717 517 q 508 656 604 656 q 353 587 411 656 q 296 403 296 518 q 353 218 296 289 q 506 147 410 147 m 610 1133 q 560 1141 583 1133 q 503 1165 538 1149 q 456 1185 475 1178 q 419 1192 438 1192 q 364 1135 369 1192 l 267 1135 q 311 1267 274 1225 q 404 1308 349 1308 q 451 1301 428 1308 q 507 1278 474 1293 q 553 1258 535 1265 q 590 1251 572 1251 q 649 1301 640 1251 l 744 1301 q 610 1133 731 1133 m 411 1078 l 601 1078 l 719 888 l 590 888 l 506 994 l 421 888 l 292 888 l 411 1078 z "},"Ȍ":{"ha":1013,"x_min":50,"x_max":961,"o":"m 506 -14 q 266 38 369 -14 q 106 183 163 89 q 50 399 50 276 q 107 616 50 521 q 267 764 164 711 q 506 817 369 817 q 745 764 642 817 q 905 616 849 711 q 961 399 961 521 q 905 183 961 276 q 745 38 849 89 q 506 -14 642 -14 m 506 147 q 660 219 603 147 q 717 403 717 290 q 660 586 717 517 q 508 656 604 656 q 353 587 411 656 q 296 403 296 518 q 353 218 296 289 q 506 147 410 147 m 171 1135 l 363 1135 l 425 892 l 307 892 l 171 1135 m 440 1135 l 632 1135 l 694 892 l 575 892 l 440 1135 z "},"Ö":{"ha":1013,"x_min":50,"x_max":961,"o":"m 506 -14 q 266 38 369 -14 q 106 183 163 89 q 50 399 50 276 q 107 616 50 521 q 267 764 164 711 q 506 817 369 817 q 745 764 642 817 q 905 616 849 711 q 961 399 961 521 q 905 183 961 276 q 745 38 849 89 q 506 -14 642 -14 m 506 147 q 660 219 603 147 q 717 403 717 290 q 660 586 717 517 q 508 656 604 656 q 353 587 411 656 q 296 403 296 518 q 353 218 296 289 q 506 147 410 147 m 335 911 q 256 939 288 911 q 225 1015 225 967 q 256 1092 225 1064 q 335 1121 288 1121 q 413 1092 381 1121 q 444 1015 444 1064 q 413 939 444 967 q 335 911 381 911 m 676 911 q 599 939 631 911 q 568 1015 568 967 q 599 1092 568 1064 q 676 1121 631 1121 q 755 1092 724 1121 q 786 1015 786 1064 q 755 939 786 967 q 676 911 724 911 z "},"Ȫ":{"ha":1013,"x_min":50,"x_max":961,"o":"m 506 -14 q 266 38 369 -14 q 106 183 163 89 q 50 399 50 276 q 107 616 50 521 q 267 764 164 711 q 506 817 369 817 q 745 764 642 817 q 905 616 849 711 q 961 399 961 521 q 905 183 961 276 q 745 38 849 89 q 506 -14 642 -14 m 506 147 q 660 219 603 147 q 717 403 717 290 q 660 586 717 517 q 508 656 604 656 q 353 587 411 656 q 296 403 296 518 q 353 218 296 289 q 506 147 410 147 m 335 911 q 256 939 288 911 q 225 1015 225 967 q 256 1092 225 1064 q 335 1121 288 1121 q 413 1092 381 1121 q 444 1015 444 1064 q 413 939 444 967 q 335 911 381 911 m 676 911 q 599 939 631 911 q 568 1015 568 967 q 599 1092 568 1064 q 676 1121 631 1121 q 755 1092 724 1121 q 786 1015 786 1064 q 755 939 786 967 q 676 911 724 911 m 324 1294 l 688 1294 l 688 1185 l 324 1185 l 324 1294 z "},"Ȯ":{"ha":1013,"x_min":50,"x_max":961,"o":"m 506 -14 q 266 38 369 -14 q 106 183 163 89 q 50 399 50 276 q 107 616 50 521 q 267 764 164 711 q 506 817 369 817 q 745 764 642 817 q 905 616 849 711 q 961 399 961 521 q 905 183 961 276 q 745 38 849 89 q 506 -14 642 -14 m 506 147 q 660 219 603 147 q 717 403 717 290 q 660 586 717 517 q 508 656 604 656 q 353 587 411 656 q 296 403 296 518 q 353 218 296 289 q 506 147 410 147 m 506 911 q 422 942 454 911 q 390 1022 390 974 q 422 1101 390 1071 q 506 1132 454 1132 q 588 1101 557 1132 q 619 1022 619 1071 q 589 942 621 974 q 506 911 557 911 z "},"Ȱ":{"ha":1013,"x_min":50,"x_max":961,"o":"m 506 -14 q 266 38 369 -14 q 106 183 163 89 q 50 399 50 276 q 107 616 50 521 q 267 764 164 711 q 506 817 369 817 q 745 764 642 817 q 905 616 849 711 q 961 399 961 521 q 905 183 961 276 q 745 38 849 89 q 506 -14 642 -14 m 506 147 q 660 219 603 147 q 717 403 717 290 q 660 586 717 517 q 508 656 604 656 q 353 587 411 656 q 296 403 296 518 q 353 218 296 289 q 506 147 410 147 m 506 911 q 422 942 454 911 q 390 1022 390 974 q 422 1101 390 1071 q 506 1132 454 1132 q 588 1101 557 1132 q 619 1022 619 1071 q 589 942 621 974 q 506 911 557 911 m 324 1303 l 688 1303 l 688 1193 l 324 1193 l 324 1303 z "},"Ọ":{"ha":1013,"x_min":50,"x_max":961,"o":"m 506 -14 q 266 38 369 -14 q 106 183 163 89 q 50 399 50 276 q 107 616 50 521 q 267 764 164 711 q 506 817 369 817 q 745 764 642 817 q 905 616 849 711 q 961 399 961 521 q 905 183 961 276 q 745 38 849 89 q 506 -14 642 -14 m 506 147 q 660 219 603 147 q 717 403 717 290 q 660 586 717 517 q 508 656 604 656 q 353 587 411 656 q 296 403 296 518 q 353 218 296 289 q 506 147 410 147 m 506 -269 q 431 -242 460 -269 q 401 -174 401 -215 q 430 -103 401 -129 q 506 -78 458 -78 q 581 -105 553 -78 q 610 -176 610 -132 q 581 -243 610 -217 q 506 -269 551 -269 z "},"Ò":{"ha":1013,"x_min":50,"x_max":961,"o":"m 506 -14 q 266 38 369 -14 q 106 183 163 89 q 50 399 50 276 q 107 616 50 521 q 267 764 164 711 q 506 817 369 817 q 745 764 642 817 q 905 616 849 711 q 961 399 961 521 q 905 183 961 276 q 745 38 849 89 q 506 -14 642 -14 m 506 147 q 660 219 603 147 q 717 403 717 290 q 660 586 717 517 q 508 656 604 656 q 353 587 411 656 q 296 403 296 518 q 353 218 296 289 q 506 147 410 147 m 310 1132 l 501 1132 l 561 892 l 443 892 l 310 1132 z "},"Ỏ":{"ha":1013,"x_min":50,"x_max":961,"o":"m 506 -14 q 266 38 369 -14 q 106 183 163 89 q 50 399 50 276 q 107 616 50 521 q 267 764 164 711 q 506 817 369 817 q 745 764 642 817 q 905 616 849 711 q 961 399 961 521 q 905 183 961 276 q 745 38 849 89 q 506 -14 642 -14 m 506 147 q 660 219 603 147 q 717 403 717 290 q 660 586 717 517 q 508 656 604 656 q 353 587 411 656 q 296 403 296 518 q 353 218 296 289 q 506 147 410 147 m 478 925 q 513 947 501 935 q 524 978 524 960 q 508 1010 524 999 q 467 1022 493 1022 q 388 999 426 1022 l 364 1067 q 496 1114 421 1114 q 592 1083 556 1114 q 628 1000 628 1051 q 497 864 628 897 l 478 925 z "},"Ơ":{"ha":1013,"x_min":50,"x_max":961,"o":"m 801 728 q 919 588 878 672 q 961 399 961 503 q 905 183 961 276 q 745 38 849 89 q 506 -14 642 -14 q 266 38 369 -14 q 106 183 163 89 q 50 399 50 276 q 106 616 50 521 q 265 764 163 711 q 503 817 368 817 q 588 811 535 817 q 658 806 638 806 q 729 830 703 806 q 758 903 756 854 l 904 903 q 801 728 896 778 m 506 147 q 660 219 603 147 q 717 403 717 290 q 660 586 717 517 q 508 656 604 656 q 353 587 411 656 q 296 403 296 518 q 353 218 296 289 q 506 147 410 147 z "},"Ớ":{"ha":1013,"x_min":50,"x_max":961,"o":"m 801 728 q 919 588 878 672 q 961 399 961 503 q 905 183 961 276 q 745 38 849 89 q 506 -14 642 -14 q 266 38 369 -14 q 106 183 163 89 q 50 399 50 276 q 106 616 50 521 q 265 764 163 711 q 503 817 368 817 q 588 811 535 817 q 658 806 638 806 q 729 830 703 806 q 758 903 756 854 l 904 903 q 801 728 896 778 m 506 147 q 660 219 603 147 q 717 403 717 290 q 660 586 717 517 q 508 656 604 656 q 353 587 411 656 q 296 403 296 518 q 353 218 296 289 q 506 147 410 147 m 507 1132 l 699 1132 l 564 892 l 447 892 l 507 1132 z "},"Ợ":{"ha":1013,"x_min":50,"x_max":961,"o":"m 801 728 q 919 588 878 672 q 961 399 961 503 q 905 183 961 276 q 745 38 849 89 q 506 -14 642 -14 q 266 38 369 -14 q 106 183 163 89 q 50 399 50 276 q 106 616 50 521 q 265 764 163 711 q 503 817 368 817 q 588 811 535 817 q 658 806 638 806 q 729 830 703 806 q 758 903 756 854 l 904 903 q 801 728 896 778 m 506 147 q 660 219 603 147 q 717 403 717 290 q 660 586 717 517 q 508 656 604 656 q 353 587 411 656 q 296 403 296 518 q 353 218 296 289 q 506 147 410 147 m 506 -269 q 431 -242 460 -269 q 401 -174 401 -215 q 430 -103 401 -129 q 506 -78 458 -78 q 581 -105 553 -78 q 610 -176 610 -132 q 581 -243 610 -217 q 506 -269 551 -269 z "},"Ờ":{"ha":1013,"x_min":50,"x_max":961,"o":"m 801 728 q 919 588 878 672 q 961 399 961 503 q 905 183 961 276 q 745 38 849 89 q 506 -14 642 -14 q 266 38 369 -14 q 106 183 163 89 q 50 399 50 276 q 106 616 50 521 q 265 764 163 711 q 503 817 368 817 q 588 811 535 817 q 658 806 638 806 q 729 830 703 806 q 758 903 756 854 l 904 903 q 801 728 896 778 m 506 147 q 660 219 603 147 q 717 403 717 290 q 660 586 717 517 q 508 656 604 656 q 353 587 411 656 q 296 403 296 518 q 353 218 296 289 q 506 147 410 147 m 310 1132 l 501 1132 l 561 892 l 443 892 l 310 1132 z "},"Ở":{"ha":1013,"x_min":50,"x_max":961,"o":"m 801 728 q 919 588 878 672 q 961 399 961 503 q 905 183 961 276 q 745 38 849 89 q 506 -14 642 -14 q 266 38 369 -14 q 106 183 163 89 q 50 399 50 276 q 106 616 50 521 q 265 764 163 711 q 503 817 368 817 q 588 811 535 817 q 658 806 638 806 q 729 830 703 806 q 758 903 756 854 l 904 903 q 801 728 896 778 m 506 147 q 660 219 603 147 q 717 403 717 290 q 660 586 717 517 q 508 656 604 656 q 353 587 411 656 q 296 403 296 518 q 353 218 296 289 q 506 147 410 147 m 478 925 q 513 947 501 935 q 524 978 524 960 q 508 1010 524 999 q 467 1022 493 1022 q 388 999 426 1022 l 364 1067 q 496 1114 421 1114 q 592 1083 556 1114 q 628 1000 628 1051 q 497 864 628 897 l 478 925 z "},"Ỡ":{"ha":1013,"x_min":50,"x_max":961,"o":"m 801 728 q 919 588 878 672 q 961 399 961 503 q 905 183 961 276 q 745 38 849 89 q 506 -14 642 -14 q 266 38 369 -14 q 106 183 163 89 q 50 399 50 276 q 106 616 50 521 q 265 764 163 711 q 503 817 368 817 q 588 811 535 817 q 658 806 638 806 q 729 830 703 806 q 758 903 756 854 l 904 903 q 801 728 896 778 m 506 147 q 660 219 603 147 q 717 403 717 290 q 660 586 717 517 q 508 656 604 656 q 353 587 411 656 q 296 403 296 518 q 353 218 296 289 q 506 147 410 147 m 606 901 q 547 911 576 901 q 481 939 517 921 q 433 959 451 953 q 399 965 414 965 q 343 908 349 965 l 246 908 q 298 1060 254 1011 q 407 1108 342 1108 q 463 1099 435 1108 q 531 1071 492 1089 q 574 1053 553 1061 q 611 1044 596 1044 q 669 1101 661 1044 l 765 1101 q 715 951 757 1000 q 606 901 672 901 z "},"Ő":{"ha":1013,"x_min":50,"x_max":961,"o":"m 506 -14 q 266 38 369 -14 q 106 183 163 89 q 50 399 50 276 q 107 616 50 521 q 267 764 164 711 q 506 817 369 817 q 745 764 642 817 q 905 616 849 711 q 961 399 961 521 q 905 183 961 276 q 745 38 849 89 q 506 -14 642 -14 m 506 147 q 660 219 603 147 q 717 403 717 290 q 660 586 717 517 q 508 656 604 656 q 353 587 411 656 q 296 403 296 518 q 353 218 296 289 q 506 147 410 147 m 365 1135 l 557 1135 l 421 892 l 303 892 l 365 1135 m 635 1135 l 826 1135 l 690 892 l 572 892 l 635 1135 z "},"Ȏ":{"ha":1013,"x_min":50,"x_max":961,"o":"m 506 -14 q 266 38 369 -14 q 106 183 163 89 q 50 399 50 276 q 107 616 50 521 q 267 764 164 711 q 506 817 369 817 q 745 764 642 817 q 905 616 849 711 q 961 399 961 521 q 905 183 961 276 q 745 38 849 89 q 506 -14 642 -14 m 506 147 q 660 219 603 147 q 717 403 717 290 q 660 586 717 517 q 508 656 604 656 q 353 587 411 656 q 296 403 296 518 q 353 218 296 289 q 506 147 410 147 m 290 868 q 352 1026 296 971 q 506 1082 408 1082 q 659 1026 603 1082 q 719 868 715 971 l 596 868 q 506 954 583 954 q 445 932 468 954 q 415 868 422 910 l 290 868 z "},"Ō":{"ha":1013,"x_min":50,"x_max":961,"o":"m 506 -14 q 266 38 369 -14 q 106 183 163 89 q 50 399 50 276 q 107 616 50 521 q 267 764 164 711 q 506 817 369 817 q 745 764 642 817 q 905 616 849 711 q 961 399 961 521 q 905 183 961 276 q 745 38 849 89 q 506 -14 642 -14 m 506 147 q 660 219 603 147 q 717 403 717 290 q 660 586 717 517 q 508 656 604 656 q 353 587 411 656 q 296 403 296 518 q 353 218 296 289 q 506 147 410 147 m 324 1008 l 688 1008 l 688 899 l 324 899 l 324 1008 z "},"Ṓ":{"ha":1013,"x_min":50,"x_max":961,"o":"m 506 -14 q 266 38 369 -14 q 106 183 163 89 q 50 399 50 276 q 107 616 50 521 q 267 764 164 711 q 506 817 369 817 q 745 764 642 817 q 905 616 849 711 q 961 399 961 521 q 905 183 961 276 q 745 38 849 89 q 506 -14 642 -14 m 506 147 q 660 219 603 147 q 717 403 717 290 q 660 586 717 517 q 508 656 604 656 q 353 587 411 656 q 296 403 296 518 q 353 218 296 289 q 506 147 410 147 m 324 1008 l 688 1008 l 688 899 l 324 899 l 324 1008 m 507 1333 l 699 1333 l 564 1093 l 447 1093 l 507 1333 z "},"Ṑ":{"ha":1013,"x_min":50,"x_max":961,"o":"m 506 -14 q 266 38 369 -14 q 106 183 163 89 q 50 399 50 276 q 107 616 50 521 q 267 764 164 711 q 506 817 369 817 q 745 764 642 817 q 905 616 849 711 q 961 399 961 521 q 905 183 961 276 q 745 38 849 89 q 506 -14 642 -14 m 506 147 q 660 219 603 147 q 717 403 717 290 q 660 586 717 517 q 508 656 604 656 q 353 587 411 656 q 296 403 296 518 q 353 218 296 289 q 506 147 410 147 m 324 1008 l 688 1008 l 688 899 l 324 899 l 324 1008 m 310 1333 l 501 1333 l 561 1093 l 443 1093 l 310 1333 z "},"Ǫ":{"ha":1013,"x_min":50,"x_max":961,"o":"m 961 399 q 913 197 961 286 q 777 54 865 108 q 569 -11 689 0 q 532 -64 544 -40 q 519 -111 519 -87 q 539 -153 519 -137 q 592 -169 558 -169 q 650 -158 619 -169 l 650 -243 q 542 -268 596 -268 q 449 -236 483 -268 q 415 -154 415 -204 q 492 -14 415 -83 q 260 41 360 -11 q 105 186 160 93 q 50 399 50 279 q 107 616 50 521 q 267 764 164 711 q 506 817 369 817 q 745 764 642 817 q 905 616 849 711 q 961 399 961 521 m 296 403 q 353 218 296 289 q 506 147 410 147 q 660 219 603 147 q 717 403 717 290 q 660 586 717 517 q 508 656 604 656 q 353 587 411 656 q 296 403 296 518 z "},"Ø":{"ha":961,"x_min":25,"x_max":936,"o":"m 799 713 q 901 576 865 656 q 936 399 936 496 q 880 183 936 276 q 720 38 824 89 q 481 -14 617 -14 q 272 24 369 -14 l 201 -69 l 113 -7 l 176 78 q 65 215 104 132 q 25 399 25 297 q 82 616 25 521 q 242 764 139 711 q 481 817 344 817 q 706 771 603 817 l 765 850 l 856 788 l 799 713 m 271 403 q 307 249 271 313 l 593 625 q 481 656 544 656 q 327 586 383 654 q 271 403 271 518 m 481 147 q 635 219 578 147 q 692 403 692 290 q 665 538 692 478 l 385 171 q 481 147 428 147 z "},"Ǿ":{"ha":961,"x_min":25,"x_max":936,"o":"m 799 713 q 901 576 865 656 q 936 399 936 496 q 880 183 936 276 q 720 38 824 89 q 481 -14 617 -14 q 272 24 369 -14 l 201 -69 l 113 -7 l 176 78 q 65 215 104 132 q 25 399 25 297 q 82 616 25 521 q 242 764 139 711 q 481 817 344 817 q 706 771 603 817 l 765 850 l 856 788 l 799 713 m 271 403 q 307 249 271 313 l 593 625 q 481 656 544 656 q 327 586 383 654 q 271 403 271 518 m 481 147 q 635 219 578 147 q 692 403 692 290 q 665 538 692 478 l 385 171 q 481 147 428 147 m 482 1132 l 674 1132 l 539 892 l 422 892 l 482 1132 z "},"Õ":{"ha":1013,"x_min":50,"x_max":961,"o":"m 506 -14 q 266 38 369 -14 q 106 183 163 89 q 50 399 50 276 q 107 616 50 521 q 267 764 164 711 q 506 817 369 817 q 745 764 642 817 q 905 616 849 711 q 961 399 961 521 q 905 183 961 276 q 745 38 849 89 q 506 -14 642 -14 m 506 147 q 660 219 603 147 q 717 403 717 290 q 660 586 717 517 q 508 656 604 656 q 353 587 411 656 q 296 403 296 518 q 353 218 296 289 q 506 147 410 147 m 606 901 q 547 911 576 901 q 481 939 517 921 q 433 959 451 953 q 399 965 414 965 q 343 908 349 965 l 246 908 q 298 1060 254 1011 q 407 1108 342 1108 q 463 1099 435 1108 q 531 1071 492 1089 q 574 1053 553 1061 q 611 1044 596 1044 q 669 1101 661 1044 l 765 1101 q 715 951 757 1000 q 606 901 672 901 z "},"Ṍ":{"ha":1013,"x_min":50,"x_max":961,"o":"m 506 -14 q 266 38 369 -14 q 106 183 163 89 q 50 399 50 276 q 107 616 50 521 q 267 764 164 711 q 506 817 369 817 q 745 764 642 817 q 905 616 849 711 q 961 399 961 521 q 905 183 961 276 q 745 38 849 89 q 506 -14 642 -14 m 506 147 q 660 219 603 147 q 717 403 717 290 q 660 586 717 517 q 508 656 604 656 q 353 587 411 656 q 296 403 296 518 q 353 218 296 289 q 506 147 410 147 m 606 901 q 547 911 576 901 q 481 939 517 921 q 433 959 451 953 q 399 965 414 965 q 343 908 349 965 l 246 908 q 298 1060 254 1011 q 407 1108 342 1108 q 463 1099 435 1108 q 531 1071 492 1089 q 574 1053 553 1061 q 611 1044 596 1044 q 669 1101 661 1044 l 765 1101 q 715 951 757 1000 q 606 901 672 901 m 507 1399 l 699 1399 l 564 1158 l 447 1158 l 507 1399 z "},"Ṏ":{"ha":1013,"x_min":50,"x_max":961,"o":"m 506 -14 q 266 38 369 -14 q 106 183 163 89 q 50 399 50 276 q 107 616 50 521 q 267 764 164 711 q 506 817 369 817 q 745 764 642 817 q 905 616 849 711 q 961 399 961 521 q 905 183 961 276 q 745 38 849 89 q 506 -14 642 -14 m 506 147 q 660 219 603 147 q 717 403 717 290 q 660 586 717 517 q 508 656 604 656 q 353 587 411 656 q 296 403 296 518 q 353 218 296 289 q 506 147 410 147 m 606 901 q 547 911 576 901 q 481 939 517 921 q 433 959 451 953 q 399 965 414 965 q 343 908 349 965 l 246 908 q 298 1060 254 1011 q 407 1108 342 1108 q 463 1099 435 1108 q 531 1071 492 1089 q 574 1053 553 1061 q 611 1044 596 1044 q 669 1101 661 1044 l 765 1101 q 715 951 757 1000 q 606 901 672 901 m 335 1178 q 256 1206 288 1178 q 225 1282 225 1233 q 256 1359 225 1331 q 335 1388 288 1388 q 413 1359 381 1388 q 444 1282 444 1331 q 413 1206 444 1233 q 335 1178 381 1178 m 676 1178 q 599 1206 631 1178 q 568 1282 568 1233 q 599 1359 568 1331 q 676 1388 631 1388 q 755 1359 724 1388 q 786 1282 786 1331 q 755 1206 786 1233 q 676 1178 724 1178 z "},"Ȭ":{"ha":1013,"x_min":50,"x_max":961,"o":"m 506 -14 q 266 38 369 -14 q 106 183 163 89 q 50 399 50 276 q 107 616 50 521 q 267 764 164 711 q 506 817 369 817 q 745 764 642 817 q 905 616 849 711 q 961 399 961 521 q 905 183 961 276 q 745 38 849 89 q 506 -14 642 -14 m 506 147 q 660 219 603 147 q 717 403 717 290 q 660 586 717 517 q 508 656 604 656 q 353 587 411 656 q 296 403 296 518 q 353 218 296 289 q 506 147 410 147 m 606 901 q 547 911 576 901 q 481 939 517 921 q 433 959 451 953 q 399 965 414 965 q 343 908 349 965 l 246 908 q 298 1060 254 1011 q 407 1108 342 1108 q 463 1099 435 1108 q 531 1071 492 1089 q 574 1053 553 1061 q 611 1044 596 1044 q 669 1101 661 1044 l 765 1101 q 715 951 757 1000 q 606 901 672 901 m 324 1275 l 688 1275 l 688 1165 l 324 1165 l 324 1275 z "},"Œ":{"ha":1419,"x_min":50,"x_max":1347,"o":"m 529 0 q 276 49 385 0 q 109 187 168 97 q 50 399 50 276 q 109 612 50 521 q 276 753 168 703 q 529 803 385 803 l 1340 803 l 1340 525 l 1194 525 l 1194 660 l 897 660 l 897 475 l 1022 475 l 1022 554 l 1139 554 l 1139 263 l 1024 263 l 1024 342 l 897 342 l 897 143 l 1201 143 l 1201 293 l 1347 293 l 1347 0 l 529 0 m 661 142 l 661 660 l 563 660 q 368 592 440 660 q 296 404 296 524 q 368 213 296 285 q 563 142 440 142 l 661 142 z "},"P":{"ha":875,"x_min":65,"x_max":844,"o":"m 65 142 l 144 142 l 144 660 l 65 660 l 65 803 l 501 803 q 758 745 672 803 q 844 561 844 688 q 763 372 844 432 q 521 313 681 313 l 433 313 l 433 454 l 489 454 q 573 481 543 454 q 603 558 603 508 q 575 634 603 608 q 494 660 547 660 l 381 660 l 381 142 l 469 142 l 469 0 l 65 0 l 65 142 z "},"Ṗ":{"ha":875,"x_min":65,"x_max":844,"o":"m 65 142 l 144 142 l 144 660 l 65 660 l 65 803 l 501 803 q 758 745 672 803 q 844 561 844 688 q 763 372 844 432 q 521 313 681 313 l 433 313 l 433 454 l 489 454 q 573 481 543 454 q 603 558 603 508 q 575 634 603 608 q 494 660 547 660 l 381 660 l 381 142 l 469 142 l 469 0 l 65 0 l 65 142 m 449 911 q 365 942 397 911 q 333 1022 333 974 q 365 1101 333 1071 q 449 1132 397 1132 q 531 1101 500 1132 q 563 1022 563 1071 q 532 942 564 974 q 449 911 500 911 z "},"Þ":{"ha":867,"x_min":69,"x_max":836,"o":"m 528 593 q 762 548 688 593 q 836 404 836 503 q 763 259 836 303 q 529 215 689 215 l 435 215 l 435 304 l 485 304 q 596 404 596 304 q 567 474 596 450 q 485 499 539 499 l 383 499 l 383 142 l 474 142 l 474 0 l 69 0 l 69 142 l 149 142 l 149 660 l 69 660 l 69 803 l 474 803 l 474 660 l 383 660 l 383 593 l 528 593 z "},"Q":{"ha":1011,"x_min":50,"x_max":961,"o":"m 769 -249 q 403 -6 506 -249 q 145 130 240 21 q 50 399 50 239 q 107 616 50 521 q 267 764 164 711 q 506 817 369 817 q 745 764 642 817 q 905 616 849 711 q 961 399 961 521 q 866 129 961 238 q 607 -6 771 21 q 672 -78 625 -54 q 781 -101 718 -101 q 908 -79 846 -101 l 908 -224 q 769 -249 846 -249 m 506 147 q 660 219 603 147 q 717 403 717 290 q 660 586 717 517 q 508 656 604 656 q 353 587 411 656 q 296 403 296 518 q 353 219 296 290 q 506 147 410 147 z "},"R":{"ha":979,"x_min":65,"x_max":932,"o":"m 65 142 l 144 142 l 144 660 l 65 660 l 65 803 l 550 803 q 794 745 704 803 q 883 564 883 688 q 719 353 883 404 l 851 143 l 932 143 l 932 0 l 678 0 l 493 325 l 435 325 l 435 468 l 533 468 q 616 496 589 468 q 643 571 643 524 q 616 635 643 611 q 539 660 589 660 l 381 660 l 381 142 l 456 142 l 456 0 l 65 0 l 65 142 z "},"Ŕ":{"ha":979,"x_min":65,"x_max":932,"o":"m 65 142 l 144 142 l 144 660 l 65 660 l 65 803 l 550 803 q 794 745 704 803 q 883 564 883 688 q 719 353 883 404 l 851 143 l 932 143 l 932 0 l 678 0 l 493 325 l 435 325 l 435 468 l 533 468 q 616 496 589 468 q 643 571 643 524 q 616 635 643 611 q 539 660 589 660 l 381 660 l 381 142 l 456 142 l 456 0 l 65 0 l 65 142 m 490 1132 l 682 1132 l 547 892 l 431 892 l 490 1132 z "},"Ř":{"ha":979,"x_min":65,"x_max":932,"o":"m 65 142 l 144 142 l 144 660 l 65 660 l 65 803 l 550 803 q 794 745 704 803 q 883 564 883 688 q 719 353 883 404 l 851 143 l 932 143 l 932 0 l 678 0 l 493 325 l 435 325 l 435 468 l 533 468 q 616 496 589 468 q 643 571 643 524 q 616 635 643 611 q 539 660 589 660 l 381 660 l 381 142 l 456 142 l 456 0 l 65 0 l 65 142 m 275 1129 l 411 1129 l 494 972 l 578 1129 l 701 1129 l 606 888 l 383 888 l 275 1129 z "},"Ŗ":{"ha":979,"x_min":65,"x_max":932,"o":"m 65 142 l 144 142 l 144 660 l 65 660 l 65 803 l 550 803 q 794 745 704 803 q 883 564 883 688 q 719 353 883 404 l 851 143 l 932 143 l 932 0 l 678 0 l 493 325 l 435 325 l 435 468 l 533 468 q 616 496 589 468 q 643 571 643 524 q 616 635 643 611 q 539 660 589 660 l 381 660 l 381 142 l 456 142 l 456 0 l 65 0 l 65 142 m 414 -350 q 478 -320 458 -346 q 499 -240 499 -294 l 404 -240 l 404 -78 l 600 -78 l 600 -211 q 558 -368 600 -318 q 414 -418 515 -418 l 414 -350 z "},"Ȑ":{"ha":979,"x_min":65,"x_max":932,"o":"m 65 142 l 144 142 l 144 660 l 65 660 l 65 803 l 550 803 q 794 745 704 803 q 883 564 883 688 q 719 353 883 404 l 851 143 l 932 143 l 932 0 l 678 0 l 493 325 l 435 325 l 435 468 l 533 468 q 616 496 589 468 q 643 571 643 524 q 616 635 643 611 q 539 660 589 660 l 381 660 l 381 142 l 456 142 l 456 0 l 65 0 l 65 142 m 154 1135 l 346 1135 l 408 892 l 290 892 l 154 1135 m 424 1135 l 615 1135 l 678 892 l 558 892 l 424 1135 z "},"Ṛ":{"ha":979,"x_min":65,"x_max":932,"o":"m 65 142 l 144 142 l 144 660 l 65 660 l 65 803 l 550 803 q 794 745 704 803 q 883 564 883 688 q 719 353 883 404 l 851 143 l 932 143 l 932 0 l 678 0 l 493 325 l 435 325 l 435 468 l 533 468 q 616 496 589 468 q 643 571 643 524 q 616 635 643 611 q 539 660 589 660 l 381 660 l 381 142 l 456 142 l 456 0 l 65 0 l 65 142 m 503 -269 q 428 -242 457 -269 q 399 -174 399 -215 q 427 -103 399 -129 q 503 -78 456 -78 q 578 -105 550 -78 q 607 -176 607 -132 q 578 -243 607 -217 q 503 -269 549 -269 z "},"Ȓ":{"ha":979,"x_min":65,"x_max":932,"o":"m 65 142 l 144 142 l 144 660 l 65 660 l 65 803 l 550 803 q 794 745 704 803 q 883 564 883 688 q 719 353 883 404 l 851 143 l 932 143 l 932 0 l 678 0 l 493 325 l 435 325 l 435 468 l 533 468 q 616 496 589 468 q 643 571 643 524 q 616 635 643 611 q 539 660 589 660 l 381 660 l 381 142 l 456 142 l 456 0 l 65 0 l 65 142 m 274 868 q 335 1026 279 971 q 489 1082 392 1082 q 642 1026 586 1082 q 703 868 699 971 l 579 868 q 489 954 567 954 q 428 932 451 954 q 399 868 406 910 l 274 868 z "},"Ṟ":{"ha":979,"x_min":65,"x_max":932,"o":"m 65 142 l 144 142 l 144 660 l 65 660 l 65 803 l 550 803 q 794 745 704 803 q 883 564 883 688 q 719 353 883 404 l 851 143 l 932 143 l 932 0 l 678 0 l 493 325 l 435 325 l 435 468 l 533 468 q 616 496 589 468 q 643 571 643 524 q 616 635 643 611 q 539 660 589 660 l 381 660 l 381 142 l 456 142 l 456 0 l 65 0 l 65 142 m 321 -104 l 685 -104 l 685 -214 l 321 -214 l 321 -104 z "},"S":{"ha":821,"x_min":71,"x_max":765,"o":"m 500 503 q 702 415 639 476 q 765 240 765 354 q 690 54 765 122 q 488 -14 615 -14 q 344 13 415 -14 q 233 86 272 39 l 233 0 l 78 0 l 78 274 l 217 274 q 306 161 246 203 q 446 119 367 119 q 519 140 493 119 q 546 200 546 161 q 517 265 546 243 q 418 300 489 286 l 326 318 q 134 410 197 347 q 71 578 71 472 q 144 751 71 685 q 339 817 218 817 q 579 726 493 817 l 579 803 l 725 803 l 725 568 l 592 568 q 519 650 568 617 q 399 683 471 683 q 328 665 353 683 q 304 611 304 646 q 338 550 304 572 q 451 513 372 528 l 500 503 z "},"Ś":{"ha":821,"x_min":71,"x_max":765,"o":"m 500 503 q 702 415 639 476 q 765 240 765 354 q 690 54 765 122 q 488 -14 615 -14 q 344 13 415 -14 q 233 86 272 39 l 233 0 l 78 0 l 78 274 l 217 274 q 306 161 246 203 q 446 119 367 119 q 519 140 493 119 q 546 200 546 161 q 517 265 546 243 q 418 300 489 286 l 326 318 q 134 410 197 347 q 71 578 71 472 q 144 751 71 685 q 339 817 218 817 q 579 726 493 817 l 579 803 l 725 803 l 725 568 l 592 568 q 519 650 568 617 q 399 683 471 683 q 328 665 353 683 q 304 611 304 646 q 338 550 304 572 q 451 513 372 528 l 500 503 m 442 1132 l 633 1132 l 499 892 l 382 892 l 442 1132 z "},"Ṥ":{"ha":821,"x_min":71,"x_max":765,"o":"m 500 503 q 702 415 639 476 q 765 240 765 354 q 690 54 765 122 q 488 -14 615 -14 q 344 13 415 -14 q 233 86 272 39 l 233 0 l 78 0 l 78 274 l 217 274 q 306 161 246 203 q 446 119 367 119 q 519 140 493 119 q 546 200 546 161 q 517 265 546 243 q 418 300 489 286 l 326 318 q 134 410 197 347 q 71 578 71 472 q 144 751 71 685 q 339 817 218 817 q 579 726 493 817 l 579 803 l 725 803 l 725 568 l 592 568 q 519 650 568 617 q 399 683 471 683 q 328 665 353 683 q 304 611 304 646 q 338 550 304 572 q 451 513 372 528 l 500 503 m 442 1132 l 633 1132 l 499 892 l 382 892 l 442 1132 m 440 1265 q 357 1297 389 1265 q 325 1376 325 1328 q 357 1456 325 1425 q 440 1486 389 1486 q 523 1456 492 1486 q 554 1376 554 1425 q 524 1297 556 1328 q 440 1265 492 1265 z "},"Š":{"ha":821,"x_min":71,"x_max":765,"o":"m 500 503 q 702 415 639 476 q 765 240 765 354 q 690 54 765 122 q 488 -14 615 -14 q 344 13 415 -14 q 233 86 272 39 l 233 0 l 78 0 l 78 274 l 217 274 q 306 161 246 203 q 446 119 367 119 q 519 140 493 119 q 546 200 546 161 q 517 265 546 243 q 418 300 489 286 l 326 318 q 134 410 197 347 q 71 578 71 472 q 144 751 71 685 q 339 817 218 817 q 579 726 493 817 l 579 803 l 725 803 l 725 568 l 592 568 q 519 650 568 617 q 399 683 471 683 q 328 665 353 683 q 304 611 304 646 q 338 550 304 572 q 451 513 372 528 l 500 503 m 226 1129 l 363 1129 l 446 972 l 529 1129 l 653 1129 l 557 888 l 335 888 l 226 1129 z "},"Ṧ":{"ha":821,"x_min":71,"x_max":765,"o":"m 500 503 q 702 415 639 476 q 765 240 765 354 q 690 54 765 122 q 488 -14 615 -14 q 344 13 415 -14 q 233 86 272 39 l 233 0 l 78 0 l 78 274 l 217 274 q 306 161 246 203 q 446 119 367 119 q 519 140 493 119 q 546 200 546 161 q 517 265 546 243 q 418 300 489 286 l 326 318 q 134 410 197 347 q 71 578 71 472 q 144 751 71 685 q 339 817 218 817 q 579 726 493 817 l 579 803 l 725 803 l 725 568 l 592 568 q 519 650 568 617 q 399 683 471 683 q 328 665 353 683 q 304 611 304 646 q 338 550 304 572 q 451 513 372 528 l 500 503 m 226 1129 l 363 1129 l 446 972 l 529 1129 l 653 1129 l 557 888 l 335 888 l 226 1129 m 440 1226 q 357 1258 389 1226 q 325 1338 325 1289 q 357 1417 325 1386 q 440 1447 389 1447 q 523 1417 492 1447 q 554 1338 554 1386 q 524 1258 556 1289 q 440 1226 492 1226 z "},"Ş":{"ha":821,"x_min":71,"x_max":765,"o":"m 472 -14 l 456 -79 q 532 -115 506 -86 q 558 -181 558 -143 q 522 -256 558 -231 q 431 -282 485 -282 q 366 -273 399 -282 q 307 -247 333 -264 l 307 -193 q 386 -211 353 -211 q 435 -168 435 -211 q 354 -122 435 -126 l 401 -4 q 305 30 349 7 q 233 86 261 53 l 233 0 l 78 0 l 78 274 l 217 274 q 306 161 246 203 q 446 119 367 119 q 519 140 493 119 q 546 200 546 161 q 517 265 546 243 q 418 300 489 286 l 326 318 q 134 410 197 347 q 71 578 71 472 q 144 751 71 685 q 339 817 218 817 q 579 726 493 817 l 579 803 l 725 803 l 725 568 l 592 568 q 519 650 568 617 q 399 683 471 683 q 328 665 353 683 q 304 611 304 646 q 338 550 304 572 q 451 513 372 528 l 500 503 q 702 415 639 476 q 765 240 765 354 q 690 54 765 122 q 488 -14 615 -14 l 472 -14 z "},"Ŝ":{"ha":821,"x_min":71,"x_max":765,"o":"m 500 503 q 702 415 639 476 q 765 240 765 354 q 690 54 765 122 q 488 -14 615 -14 q 344 13 415 -14 q 233 86 272 39 l 233 0 l 78 0 l 78 274 l 217 274 q 306 161 246 203 q 446 119 367 119 q 519 140 493 119 q 546 200 546 161 q 517 265 546 243 q 418 300 489 286 l 326 318 q 134 410 197 347 q 71 578 71 472 q 144 751 71 685 q 339 817 218 817 q 579 726 493 817 l 579 803 l 725 803 l 725 568 l 592 568 q 519 650 568 617 q 399 683 471 683 q 328 665 353 683 q 304 611 304 646 q 338 550 304 572 q 451 513 372 528 l 500 503 m 336 1131 l 547 1131 l 664 888 l 535 888 l 440 1046 l 346 888 l 217 888 l 336 1131 z "},"Ș":{"ha":821,"x_min":71,"x_max":765,"o":"m 500 503 q 702 415 639 476 q 765 240 765 354 q 690 54 765 122 q 488 -14 615 -14 q 344 13 415 -14 q 233 86 272 39 l 233 0 l 78 0 l 78 274 l 217 274 q 306 161 246 203 q 446 119 367 119 q 519 140 493 119 q 546 200 546 161 q 517 265 546 243 q 418 300 489 286 l 326 318 q 134 410 197 347 q 71 578 71 472 q 144 751 71 685 q 339 817 218 817 q 579 726 493 817 l 579 803 l 725 803 l 725 568 l 592 568 q 519 650 568 617 q 399 683 471 683 q 328 665 353 683 q 304 611 304 646 q 338 550 304 572 q 451 513 372 528 l 500 503 m 350 -350 q 415 -320 394 -346 q 435 -240 435 -294 l 340 -240 l 340 -78 l 536 -78 l 536 -211 q 494 -368 536 -318 q 350 -418 451 -418 l 350 -350 z "},"Ṡ":{"ha":821,"x_min":71,"x_max":765,"o":"m 500 503 q 702 415 639 476 q 765 240 765 354 q 690 54 765 122 q 488 -14 615 -14 q 344 13 415 -14 q 233 86 272 39 l 233 0 l 78 0 l 78 274 l 217 274 q 306 161 246 203 q 446 119 367 119 q 519 140 493 119 q 546 200 546 161 q 517 265 546 243 q 418 300 489 286 l 326 318 q 134 410 197 347 q 71 578 71 472 q 144 751 71 685 q 339 817 218 817 q 579 726 493 817 l 579 803 l 725 803 l 725 568 l 592 568 q 519 650 568 617 q 399 683 471 683 q 328 665 353 683 q 304 611 304 646 q 338 550 304 572 q 451 513 372 528 l 500 503 m 440 911 q 357 942 389 911 q 325 1022 325 974 q 357 1101 325 1071 q 440 1132 389 1132 q 523 1101 492 1132 q 554 1022 554 1071 q 524 942 556 974 q 440 911 492 911 z "},"Ṣ":{"ha":821,"x_min":71,"x_max":765,"o":"m 500 503 q 702 415 639 476 q 765 240 765 354 q 690 54 765 122 q 488 -14 615 -14 q 344 13 415 -14 q 233 86 272 39 l 233 0 l 78 0 l 78 274 l 217 274 q 306 161 246 203 q 446 119 367 119 q 519 140 493 119 q 546 200 546 161 q 517 265 546 243 q 418 300 489 286 l 326 318 q 134 410 197 347 q 71 578 71 472 q 144 751 71 685 q 339 817 218 817 q 579 726 493 817 l 579 803 l 725 803 l 725 568 l 592 568 q 519 650 568 617 q 399 683 471 683 q 328 665 353 683 q 304 611 304 646 q 338 550 304 572 q 451 513 372 528 l 500 503 m 439 -269 q 364 -242 393 -269 q 335 -174 335 -215 q 363 -103 335 -129 q 439 -78 392 -78 q 515 -105 486 -78 q 543 -176 543 -132 q 514 -243 543 -217 q 439 -269 485 -269 z "},"Ṩ":{"ha":821,"x_min":71,"x_max":765,"o":"m 500 503 q 702 415 639 476 q 765 240 765 354 q 690 54 765 122 q 488 -14 615 -14 q 344 13 415 -14 q 233 86 272 39 l 233 0 l 78 0 l 78 274 l 217 274 q 306 161 246 203 q 446 119 367 119 q 519 140 493 119 q 546 200 546 161 q 517 265 546 243 q 418 300 489 286 l 326 318 q 134 410 197 347 q 71 578 71 472 q 144 751 71 685 q 339 817 218 817 q 579 726 493 817 l 579 803 l 725 803 l 725 568 l 592 568 q 519 650 568 617 q 399 683 471 683 q 328 665 353 683 q 304 611 304 646 q 338 550 304 572 q 451 513 372 528 l 500 503 m 439 -269 q 364 -242 393 -269 q 335 -174 335 -215 q 363 -103 335 -129 q 439 -78 392 -78 q 515 -105 486 -78 q 543 -176 543 -132 q 514 -243 543 -217 q 439 -269 485 -269 m 440 911 q 357 942 389 911 q 325 1022 325 974 q 357 1101 325 1071 q 440 1132 389 1132 q 523 1101 492 1132 q 554 1022 554 1071 q 524 942 556 974 q 440 911 492 911 z "},"ẞ":{"ha":899,"x_min":64,"x_max":854,"o":"m 529 149 q 638 251 638 161 q 587 341 638 311 q 443 371 536 371 l 443 449 l 599 644 q 494 661 549 661 q 396 629 431 661 q 361 532 361 597 l 361 142 l 439 142 l 439 0 l 64 0 l 64 142 l 133 142 l 133 521 q 479 817 133 817 q 638 799 563 817 q 769 750 713 781 l 769 613 l 638 447 q 854 219 854 408 q 529 -14 854 -14 l 529 149 z "},"Ə":{"ha":933,"x_min":53,"x_max":882,"o":"m 449 814 q 679 763 582 814 q 829 619 776 713 q 882 400 882 525 q 829 185 882 279 q 681 38 776 90 q 457 -14 585 -14 q 235 38 326 -14 q 99 180 144 89 q 53 390 53 271 l 53 446 l 631 446 q 552 571 613 528 q 401 614 492 614 q 138 525 268 614 l 60 683 q 236 778 136 742 q 449 814 336 814 m 464 147 q 582 193 539 147 q 635 324 625 239 l 297 324 q 341 194 297 240 q 464 147 385 147 z "},"T":{"ha":892,"x_min":36,"x_max":856,"o":"m 239 142 l 329 142 l 329 664 l 188 664 l 188 506 l 36 506 l 36 803 l 856 803 l 856 506 l 704 506 l 704 664 l 564 664 l 564 142 l 654 142 l 654 0 l 239 0 l 239 142 z "},"Ŧ":{"ha":892,"x_min":36,"x_max":856,"o":"m 856 803 l 856 506 l 704 506 l 704 664 l 564 664 l 564 444 l 654 444 l 654 335 l 564 335 l 564 142 l 654 142 l 654 0 l 239 0 l 239 142 l 329 142 l 329 335 l 238 335 l 238 444 l 329 444 l 329 664 l 188 664 l 188 506 l 36 506 l 36 803 l 856 803 z "},"Ť":{"ha":892,"x_min":36,"x_max":856,"o":"m 239 142 l 329 142 l 329 664 l 188 664 l 188 506 l 36 506 l 36 803 l 856 803 l 856 506 l 704 506 l 704 664 l 564 664 l 564 142 l 654 142 l 654 0 l 239 0 l 239 142 m 232 1129 l 368 1129 l 451 972 l 535 1129 l 658 1129 l 563 888 l 340 888 l 232 1129 z "},"Ţ":{"ha":892,"x_min":36,"x_max":856,"o":"m 239 142 l 329 142 l 329 664 l 188 664 l 188 506 l 36 506 l 36 803 l 856 803 l 856 506 l 704 506 l 704 664 l 564 664 l 564 142 l 654 142 l 654 0 l 239 0 l 239 142 m 439 -282 q 374 -273 407 -282 q 315 -247 342 -264 l 315 -193 q 394 -211 361 -211 q 443 -168 443 -211 q 363 -122 443 -126 l 411 0 l 485 0 l 464 -79 q 540 -115 514 -86 q 567 -181 567 -143 q 530 -256 567 -231 q 439 -282 493 -282 z "},"Ț":{"ha":892,"x_min":36,"x_max":856,"o":"m 239 142 l 329 142 l 329 664 l 188 664 l 188 506 l 36 506 l 36 803 l 856 803 l 856 506 l 704 506 l 704 664 l 564 664 l 564 142 l 654 142 l 654 0 l 239 0 l 239 142 m 358 -350 q 423 -320 403 -346 q 443 -240 443 -294 l 349 -240 l 349 -78 l 544 -78 l 544 -211 q 502 -368 544 -318 q 358 -418 460 -418 l 358 -350 z "},"Ṫ":{"ha":892,"x_min":36,"x_max":856,"o":"m 239 142 l 329 142 l 329 664 l 188 664 l 188 506 l 36 506 l 36 803 l 856 803 l 856 506 l 704 506 l 704 664 l 564 664 l 564 142 l 654 142 l 654 0 l 239 0 l 239 142 m 446 911 q 363 942 394 911 q 331 1022 331 974 q 363 1101 331 1071 q 446 1132 394 1132 q 528 1101 497 1132 q 560 1022 560 1071 q 529 942 561 974 q 446 911 497 911 z "},"Ṭ":{"ha":892,"x_min":36,"x_max":856,"o":"m 239 142 l 329 142 l 329 664 l 188 664 l 188 506 l 36 506 l 36 803 l 856 803 l 856 506 l 704 506 l 704 664 l 564 664 l 564 142 l 654 142 l 654 0 l 239 0 l 239 142 m 447 -269 q 372 -242 401 -269 q 343 -174 343 -215 q 372 -103 343 -129 q 447 -78 400 -78 q 523 -105 494 -78 q 551 -176 551 -132 q 522 -243 551 -217 q 447 -269 493 -269 z "},"Ṯ":{"ha":892,"x_min":36,"x_max":856,"o":"m 239 142 l 329 142 l 329 664 l 188 664 l 188 506 l 36 506 l 36 803 l 856 803 l 856 506 l 704 506 l 704 664 l 564 664 l 564 142 l 654 142 l 654 0 l 239 0 l 239 142 m 265 -104 l 629 -104 l 629 -214 l 265 -214 l 265 -104 z "},"U":{"ha":963,"x_min":44,"x_max":921,"o":"m 489 -15 q 217 64 310 -15 q 124 293 124 143 l 124 660 l 44 660 l 44 803 l 444 803 l 444 660 l 358 660 l 358 292 q 397 172 358 214 q 508 131 436 131 q 624 172 583 131 q 664 292 664 214 l 664 660 l 597 660 l 597 803 l 921 803 l 921 660 l 842 660 l 842 294 q 751 64 842 143 q 489 -15 661 -15 z "},"Ú":{"ha":963,"x_min":44,"x_max":921,"o":"m 489 -15 q 217 64 310 -15 q 124 293 124 143 l 124 660 l 44 660 l 44 803 l 444 803 l 444 660 l 358 660 l 358 292 q 397 172 358 214 q 508 131 436 131 q 624 172 583 131 q 664 292 664 214 l 664 660 l 597 660 l 597 803 l 921 803 l 921 660 l 842 660 l 842 294 q 751 64 842 143 q 489 -15 661 -15 m 503 1132 l 694 1132 l 560 892 l 443 892 l 503 1132 z "},"Ŭ":{"ha":963,"x_min":44,"x_max":921,"o":"m 489 -15 q 217 64 310 -15 q 124 293 124 143 l 124 660 l 44 660 l 44 803 l 444 803 l 444 660 l 358 660 l 358 292 q 397 172 358 214 q 508 131 436 131 q 624 172 583 131 q 664 292 664 214 l 664 660 l 597 660 l 597 803 l 921 803 l 921 660 l 842 660 l 842 294 q 751 64 842 143 q 489 -15 661 -15 m 501 899 q 341 949 397 899 q 279 1096 285 999 l 414 1096 q 442 1032 419 1054 q 501 1010 464 1010 q 589 1096 581 1010 l 724 1096 q 658 949 715 999 q 501 899 601 899 z "},"Ǔ":{"ha":963,"x_min":44,"x_max":921,"o":"m 489 -15 q 217 64 310 -15 q 124 293 124 143 l 124 660 l 44 660 l 44 803 l 444 803 l 444 660 l 358 660 l 358 292 q 397 172 358 214 q 508 131 436 131 q 624 172 583 131 q 664 292 664 214 l 664 660 l 597 660 l 597 803 l 921 803 l 921 660 l 842 660 l 842 294 q 751 64 842 143 q 489 -15 661 -15 m 288 1129 l 424 1129 l 507 972 l 590 1129 l 714 1129 l 618 888 l 396 888 l 288 1129 z "},"Û":{"ha":963,"x_min":44,"x_max":921,"o":"m 489 -15 q 217 64 310 -15 q 124 293 124 143 l 124 660 l 44 660 l 44 803 l 444 803 l 444 660 l 358 660 l 358 292 q 397 172 358 214 q 508 131 436 131 q 624 172 583 131 q 664 292 664 214 l 664 660 l 597 660 l 597 803 l 921 803 l 921 660 l 842 660 l 842 294 q 751 64 842 143 q 489 -15 661 -15 m 397 1131 l 608 1131 l 725 888 l 596 888 l 501 1046 l 407 888 l 278 888 l 397 1131 z "},"Ȕ":{"ha":963,"x_min":44,"x_max":921,"o":"m 489 -15 q 217 64 310 -15 q 124 293 124 143 l 124 660 l 44 660 l 44 803 l 444 803 l 444 660 l 358 660 l 358 292 q 397 172 358 214 q 508 131 436 131 q 624 172 583 131 q 664 292 664 214 l 664 660 l 597 660 l 597 803 l 921 803 l 921 660 l 842 660 l 842 294 q 751 64 842 143 q 489 -15 661 -15 m 167 1135 l 358 1135 l 421 892 l 303 892 l 167 1135 m 436 1135 l 628 1135 l 690 892 l 571 892 l 436 1135 z "},"Ü":{"ha":963,"x_min":44,"x_max":921,"o":"m 489 -15 q 217 64 310 -15 q 124 293 124 143 l 124 660 l 44 660 l 44 803 l 444 803 l 444 660 l 358 660 l 358 292 q 397 172 358 214 q 508 131 436 131 q 624 172 583 131 q 664 292 664 214 l 664 660 l 597 660 l 597 803 l 921 803 l 921 660 l 842 660 l 842 294 q 751 64 842 143 q 489 -15 661 -15 m 331 911 q 252 939 283 911 q 221 1015 221 967 q 252 1092 221 1064 q 331 1121 283 1121 q 408 1092 376 1121 q 440 1015 440 1064 q 408 939 440 967 q 331 911 376 911 m 672 911 q 595 939 626 911 q 564 1015 564 967 q 595 1092 564 1064 q 672 1121 626 1121 q 751 1092 719 1121 q 782 1015 782 1064 q 751 939 782 967 q 672 911 719 911 z "},"Ụ":{"ha":963,"x_min":44,"x_max":921,"o":"m 489 -15 q 217 64 310 -15 q 124 293 124 143 l 124 660 l 44 660 l 44 803 l 444 803 l 444 660 l 358 660 l 358 292 q 397 172 358 214 q 508 131 436 131 q 624 172 583 131 q 664 292 664 214 l 664 660 l 597 660 l 597 803 l 921 803 l 921 660 l 842 660 l 842 294 q 751 64 842 143 q 489 -15 661 -15 m 499 -269 q 424 -242 453 -269 q 394 -174 394 -215 q 423 -103 394 -129 q 499 -78 451 -78 q 574 -105 546 -78 q 603 -176 603 -132 q 574 -243 603 -217 q 499 -269 544 -269 z "},"Ù":{"ha":963,"x_min":44,"x_max":921,"o":"m 489 -15 q 217 64 310 -15 q 124 293 124 143 l 124 660 l 44 660 l 44 803 l 444 803 l 444 660 l 358 660 l 358 292 q 397 172 358 214 q 508 131 436 131 q 624 172 583 131 q 664 292 664 214 l 664 660 l 597 660 l 597 803 l 921 803 l 921 660 l 842 660 l 842 294 q 751 64 842 143 q 489 -15 661 -15 m 306 1132 l 497 1132 l 557 892 l 439 892 l 306 1132 z "},"Ủ":{"ha":963,"x_min":44,"x_max":921,"o":"m 489 -15 q 217 64 310 -15 q 124 293 124 143 l 124 660 l 44 660 l 44 803 l 444 803 l 444 660 l 358 660 l 358 292 q 397 172 358 214 q 508 131 436 131 q 624 172 583 131 q 664 292 664 214 l 664 660 l 597 660 l 597 803 l 921 803 l 921 660 l 842 660 l 842 294 q 751 64 842 143 q 489 -15 661 -15 m 474 925 q 508 947 497 935 q 519 978 519 960 q 504 1010 519 999 q 463 1022 489 1022 q 383 999 422 1022 l 360 1067 q 492 1114 417 1114 q 588 1083 551 1114 q 624 1000 624 1051 q 493 864 624 897 l 474 925 z "},"Ư":{"ha":963,"x_min":44,"x_max":978,"o":"m 978 903 q 842 713 968 753 l 842 294 q 751 64 842 143 q 489 -15 661 -15 q 217 64 310 -15 q 124 293 124 143 l 124 660 l 44 660 l 44 803 l 444 803 l 444 660 l 358 660 l 358 292 q 397 172 358 214 q 508 131 436 131 q 624 172 583 131 q 664 292 664 214 l 664 660 l 597 660 l 597 803 l 732 803 q 832 903 824 803 l 978 903 z "},"Ứ":{"ha":963,"x_min":44,"x_max":978,"o":"m 978 903 q 842 713 968 753 l 842 294 q 751 64 842 143 q 489 -15 661 -15 q 217 64 310 -15 q 124 293 124 143 l 124 660 l 44 660 l 44 803 l 444 803 l 444 660 l 358 660 l 358 292 q 397 172 358 214 q 508 131 436 131 q 624 172 583 131 q 664 292 664 214 l 664 660 l 597 660 l 597 803 l 732 803 q 832 903 824 803 l 978 903 m 503 1132 l 694 1132 l 560 892 l 443 892 l 503 1132 z "},"Ự":{"ha":963,"x_min":44,"x_max":978,"o":"m 978 903 q 842 713 968 753 l 842 294 q 751 64 842 143 q 489 -15 661 -15 q 217 64 310 -15 q 124 293 124 143 l 124 660 l 44 660 l 44 803 l 444 803 l 444 660 l 358 660 l 358 292 q 397 172 358 214 q 508 131 436 131 q 624 172 583 131 q 664 292 664 214 l 664 660 l 597 660 l 597 803 l 732 803 q 832 903 824 803 l 978 903 m 499 -269 q 424 -242 453 -269 q 394 -174 394 -215 q 423 -103 394 -129 q 499 -78 451 -78 q 574 -105 546 -78 q 603 -176 603 -132 q 574 -243 603 -217 q 499 -269 544 -269 z "},"Ừ":{"ha":963,"x_min":44,"x_max":978,"o":"m 978 903 q 842 713 968 753 l 842 294 q 751 64 842 143 q 489 -15 661 -15 q 217 64 310 -15 q 124 293 124 143 l 124 660 l 44 660 l 44 803 l 444 803 l 444 660 l 358 660 l 358 292 q 397 172 358 214 q 508 131 436 131 q 624 172 583 131 q 664 292 664 214 l 664 660 l 597 660 l 597 803 l 732 803 q 832 903 824 803 l 978 903 m 306 1132 l 497 1132 l 557 892 l 439 892 l 306 1132 z "},"Ử":{"ha":963,"x_min":44,"x_max":978,"o":"m 978 903 q 842 713 968 753 l 842 294 q 751 64 842 143 q 489 -15 661 -15 q 217 64 310 -15 q 124 293 124 143 l 124 660 l 44 660 l 44 803 l 444 803 l 444 660 l 358 660 l 358 292 q 397 172 358 214 q 508 131 436 131 q 624 172 583 131 q 664 292 664 214 l 664 660 l 597 660 l 597 803 l 732 803 q 832 903 824 803 l 978 903 m 474 925 q 508 947 497 935 q 519 978 519 960 q 504 1010 519 999 q 463 1022 489 1022 q 383 999 422 1022 l 360 1067 q 492 1114 417 1114 q 588 1083 551 1114 q 624 1000 624 1051 q 493 864 624 897 l 474 925 z "},"Ữ":{"ha":963,"x_min":44,"x_max":978,"o":"m 978 903 q 842 713 968 753 l 842 294 q 751 64 842 143 q 489 -15 661 -15 q 217 64 310 -15 q 124 293 124 143 l 124 660 l 44 660 l 44 803 l 444 803 l 444 660 l 358 660 l 358 292 q 397 172 358 214 q 508 131 436 131 q 624 172 583 131 q 664 292 664 214 l 664 660 l 597 660 l 597 803 l 732 803 q 832 903 824 803 l 978 903 m 601 901 q 542 911 572 901 q 476 939 513 921 q 428 959 447 953 q 394 965 410 965 q 339 908 344 965 l 242 908 q 294 1060 250 1011 q 403 1108 338 1108 q 459 1099 431 1108 q 526 1071 488 1089 q 570 1053 549 1061 q 607 1044 592 1044 q 665 1101 657 1044 l 761 1101 q 710 951 753 1000 q 601 901 668 901 z "},"Ű":{"ha":963,"x_min":44,"x_max":921,"o":"m 489 -15 q 217 64 310 -15 q 124 293 124 143 l 124 660 l 44 660 l 44 803 l 444 803 l 444 660 l 358 660 l 358 292 q 397 172 358 214 q 508 131 436 131 q 624 172 583 131 q 664 292 664 214 l 664 660 l 597 660 l 597 803 l 921 803 l 921 660 l 842 660 l 842 294 q 751 64 842 143 q 489 -15 661 -15 m 361 1135 l 553 1135 l 417 892 l 299 892 l 361 1135 m 631 1135 l 822 1135 l 686 892 l 568 892 l 631 1135 z "},"Ȗ":{"ha":963,"x_min":44,"x_max":921,"o":"m 489 -15 q 217 64 310 -15 q 124 293 124 143 l 124 660 l 44 660 l 44 803 l 444 803 l 444 660 l 358 660 l 358 292 q 397 172 358 214 q 508 131 436 131 q 624 172 583 131 q 664 292 664 214 l 664 660 l 597 660 l 597 803 l 921 803 l 921 660 l 842 660 l 842 294 q 751 64 842 143 q 489 -15 661 -15 m 286 868 q 348 1026 292 971 q 501 1082 404 1082 q 655 1026 599 1082 q 715 868 711 971 l 592 868 q 501 954 579 954 q 441 932 464 954 q 411 868 418 910 l 286 868 z "},"Ū":{"ha":963,"x_min":44,"x_max":921,"o":"m 489 -15 q 217 64 310 -15 q 124 293 124 143 l 124 660 l 44 660 l 44 803 l 444 803 l 444 660 l 358 660 l 358 292 q 397 172 358 214 q 508 131 436 131 q 624 172 583 131 q 664 292 664 214 l 664 660 l 597 660 l 597 803 l 921 803 l 921 660 l 842 660 l 842 294 q 751 64 842 143 q 489 -15 661 -15 m 319 1008 l 683 1008 l 683 899 l 319 899 l 319 1008 z "},"Ṻ":{"ha":963,"x_min":44,"x_max":921,"o":"m 489 -15 q 217 64 310 -15 q 124 293 124 143 l 124 660 l 44 660 l 44 803 l 444 803 l 444 660 l 358 660 l 358 292 q 397 172 358 214 q 508 131 436 131 q 624 172 583 131 q 664 292 664 214 l 664 660 l 597 660 l 597 803 l 921 803 l 921 660 l 842 660 l 842 294 q 751 64 842 143 q 489 -15 661 -15 m 319 1008 l 683 1008 l 683 899 l 319 899 l 319 1008 m 331 1113 q 252 1140 283 1113 q 221 1217 221 1168 q 252 1294 221 1265 q 331 1322 283 1322 q 408 1294 376 1322 q 440 1217 440 1265 q 408 1140 440 1168 q 331 1113 376 1113 m 672 1113 q 595 1140 626 1113 q 564 1217 564 1168 q 595 1294 564 1265 q 672 1322 626 1322 q 751 1294 719 1322 q 782 1217 782 1265 q 751 1140 782 1168 q 672 1113 719 1113 z "},"Ų":{"ha":963,"x_min":44,"x_max":921,"o":"m 921 803 l 921 660 l 842 660 l 842 294 q 760 72 842 150 q 521 -14 678 -7 q 485 -67 497 -44 q 474 -111 474 -90 q 493 -153 474 -137 q 546 -169 513 -169 q 604 -158 574 -169 l 604 -243 q 496 -268 550 -268 q 403 -236 438 -268 q 369 -154 369 -204 q 444 -14 369 -85 q 205 74 286 -4 q 124 293 124 151 l 124 660 l 44 660 l 44 803 l 444 803 l 444 660 l 358 660 l 358 292 q 397 172 358 214 q 508 131 436 131 q 624 172 583 131 q 664 292 664 214 l 664 660 l 597 660 l 597 803 l 921 803 z "},"Ů":{"ha":963,"x_min":44,"x_max":921,"o":"m 489 -15 q 217 64 310 -15 q 124 293 124 143 l 124 660 l 44 660 l 44 803 l 444 803 l 444 660 l 358 660 l 358 292 q 397 172 358 214 q 508 131 436 131 q 624 172 583 131 q 664 292 664 214 l 664 660 l 597 660 l 597 803 l 921 803 l 921 660 l 842 660 l 842 294 q 751 64 842 143 q 489 -15 661 -15 m 504 879 q 406 912 442 879 q 371 1003 371 944 q 406 1094 371 1061 q 501 1128 440 1128 q 597 1094 563 1128 q 632 1003 632 1061 q 598 913 632 946 q 504 879 564 879 m 501 942 q 547 958 531 942 q 563 1003 563 975 q 547 1050 563 1033 q 501 1067 531 1067 q 456 1050 472 1067 q 440 1003 440 1033 q 456 958 440 975 q 501 942 472 942 z "},"Ũ":{"ha":963,"x_min":44,"x_max":921,"o":"m 489 -15 q 217 64 310 -15 q 124 293 124 143 l 124 660 l 44 660 l 44 803 l 444 803 l 444 660 l 358 660 l 358 292 q 397 172 358 214 q 508 131 436 131 q 624 172 583 131 q 664 292 664 214 l 664 660 l 597 660 l 597 803 l 921 803 l 921 660 l 842 660 l 842 294 q 751 64 842 143 q 489 -15 661 -15 m 601 901 q 542 911 572 901 q 476 939 513 921 q 428 959 447 953 q 394 965 410 965 q 339 908 344 965 l 242 908 q 294 1060 250 1011 q 403 1108 338 1108 q 459 1099 431 1108 q 526 1071 488 1089 q 570 1053 549 1061 q 607 1044 592 1044 q 665 1101 657 1044 l 761 1101 q 710 951 753 1000 q 601 901 668 901 z "},"Ṹ":{"ha":963,"x_min":44,"x_max":921,"o":"m 489 -15 q 217 64 310 -15 q 124 293 124 143 l 124 660 l 44 660 l 44 803 l 444 803 l 444 660 l 358 660 l 358 292 q 397 172 358 214 q 508 131 436 131 q 624 172 583 131 q 664 292 664 214 l 664 660 l 597 660 l 597 803 l 921 803 l 921 660 l 842 660 l 842 294 q 751 64 842 143 q 489 -15 661 -15 m 601 901 q 542 911 572 901 q 476 939 513 921 q 428 959 447 953 q 394 965 410 965 q 339 908 344 965 l 242 908 q 294 1060 250 1011 q 403 1108 338 1108 q 459 1099 431 1108 q 526 1071 488 1089 q 570 1053 549 1061 q 607 1044 592 1044 q 665 1101 657 1044 l 761 1101 q 710 951 753 1000 q 601 901 668 901 m 503 1399 l 694 1399 l 560 1158 l 443 1158 l 503 1399 z "},"V":{"ha":940,"x_min":21,"x_max":919,"o":"m 93 660 l 21 660 l 21 803 l 432 803 l 432 660 l 338 660 l 497 256 l 651 660 l 560 660 l 560 803 l 919 803 l 919 660 l 847 660 l 565 0 l 401 0 l 93 660 z "},"W":{"ha":1268,"x_min":24,"x_max":1246,"o":"m 96 660 l 24 660 l 24 803 l 376 803 l 376 660 l 300 660 l 406 311 l 572 778 l 717 778 l 879 311 l 993 660 l 907 660 l 907 803 l 1246 803 l 1246 660 l 1172 660 l 957 0 l 808 0 l 639 461 l 469 0 l 322 0 l 96 660 z "},"Ẃ":{"ha":1268,"x_min":24,"x_max":1246,"o":"m 96 660 l 24 660 l 24 803 l 376 803 l 376 660 l 300 660 l 406 311 l 572 778 l 717 778 l 879 311 l 993 660 l 907 660 l 907 803 l 1246 803 l 1246 660 l 1172 660 l 957 0 l 808 0 l 639 461 l 469 0 l 322 0 l 96 660 m 646 1107 l 838 1107 l 703 867 l 586 867 l 646 1107 z "},"Ŵ":{"ha":1268,"x_min":24,"x_max":1246,"o":"m 96 660 l 24 660 l 24 803 l 376 803 l 376 660 l 300 660 l 406 311 l 572 778 l 717 778 l 879 311 l 993 660 l 907 660 l 907 803 l 1246 803 l 1246 660 l 1172 660 l 957 0 l 808 0 l 639 461 l 469 0 l 322 0 l 96 660 m 540 1106 l 751 1106 l 868 863 l 739 863 l 644 1021 l 550 863 l 421 863 l 540 1106 z "},"Ẅ":{"ha":1268,"x_min":24,"x_max":1246,"o":"m 96 660 l 24 660 l 24 803 l 376 803 l 376 660 l 300 660 l 406 311 l 572 778 l 717 778 l 879 311 l 993 660 l 907 660 l 907 803 l 1246 803 l 1246 660 l 1172 660 l 957 0 l 808 0 l 639 461 l 469 0 l 322 0 l 96 660 m 474 886 q 395 914 426 886 q 364 990 364 942 q 395 1067 364 1039 q 474 1096 426 1096 q 551 1067 519 1096 q 583 990 583 1039 q 551 914 583 942 q 474 886 519 886 m 815 886 q 738 914 769 886 q 707 990 707 942 q 738 1067 707 1039 q 815 1096 769 1096 q 894 1067 863 1096 q 925 990 925 1039 q 894 914 925 942 q 815 886 863 886 z "},"Ẁ":{"ha":1268,"x_min":24,"x_max":1246,"o":"m 96 660 l 24 660 l 24 803 l 376 803 l 376 660 l 300 660 l 406 311 l 572 778 l 717 778 l 879 311 l 993 660 l 907 660 l 907 803 l 1246 803 l 1246 660 l 1172 660 l 957 0 l 808 0 l 639 461 l 469 0 l 322 0 l 96 660 m 449 1107 l 640 1107 l 700 867 l 582 867 l 449 1107 z "},"X":{"ha":950,"x_min":40,"x_max":911,"o":"m 40 142 l 106 142 l 322 403 l 117 661 l 53 661 l 53 803 l 433 803 l 433 661 l 372 661 l 485 508 l 600 661 l 538 661 l 538 803 l 896 803 l 896 661 l 829 661 l 625 415 l 844 142 l 911 142 l 911 0 l 528 0 l 528 142 l 590 142 l 465 311 l 336 142 l 400 142 l 400 0 l 40 0 l 40 142 z "},"Y":{"ha":935,"x_min":15,"x_max":919,"o":"m 264 142 l 356 142 l 356 300 l 94 660 l 15 660 l 15 803 l 438 803 l 438 660 l 351 660 l 499 440 l 644 660 l 557 660 l 557 803 l 919 803 l 919 660 l 839 660 l 590 300 l 590 142 l 682 142 l 682 0 l 264 0 l 264 142 z "},"Ý":{"ha":935,"x_min":15,"x_max":919,"o":"m 264 142 l 356 142 l 356 300 l 94 660 l 15 660 l 15 803 l 438 803 l 438 660 l 351 660 l 499 440 l 644 660 l 557 660 l 557 803 l 919 803 l 919 660 l 839 660 l 590 300 l 590 142 l 682 142 l 682 0 l 264 0 l 264 142 m 499 1132 l 690 1132 l 556 892 l 439 892 l 499 1132 z "},"Ŷ":{"ha":935,"x_min":15,"x_max":919,"o":"m 264 142 l 356 142 l 356 300 l 94 660 l 15 660 l 15 803 l 438 803 l 438 660 l 351 660 l 499 440 l 644 660 l 557 660 l 557 803 l 919 803 l 919 660 l 839 660 l 590 300 l 590 142 l 682 142 l 682 0 l 264 0 l 264 142 m 393 1131 l 604 1131 l 721 888 l 592 888 l 497 1046 l 403 888 l 274 888 l 393 1131 z "},"Ÿ":{"ha":935,"x_min":15,"x_max":919,"o":"m 264 142 l 356 142 l 356 300 l 94 660 l 15 660 l 15 803 l 438 803 l 438 660 l 351 660 l 499 440 l 644 660 l 557 660 l 557 803 l 919 803 l 919 660 l 839 660 l 590 300 l 590 142 l 682 142 l 682 0 l 264 0 l 264 142 m 326 911 q 248 939 279 911 q 217 1015 217 967 q 248 1092 217 1064 q 326 1121 279 1121 q 404 1092 372 1121 q 436 1015 436 1064 q 404 939 436 967 q 326 911 372 911 m 668 911 q 591 939 622 911 q 560 1015 560 967 q 591 1092 560 1064 q 668 1121 622 1121 q 747 1092 715 1121 q 778 1015 778 1064 q 747 939 778 967 q 668 911 715 911 z "},"Ẏ":{"ha":935,"x_min":15,"x_max":919,"o":"m 264 142 l 356 142 l 356 300 l 94 660 l 15 660 l 15 803 l 438 803 l 438 660 l 351 660 l 499 440 l 644 660 l 557 660 l 557 803 l 919 803 l 919 660 l 839 660 l 590 300 l 590 142 l 682 142 l 682 0 l 264 0 l 264 142 m 497 911 q 414 942 446 911 q 382 1022 382 974 q 414 1101 382 1071 q 497 1132 446 1132 q 580 1101 549 1132 q 611 1022 611 1071 q 581 942 613 974 q 497 911 549 911 z "},"Ỵ":{"ha":935,"x_min":15,"x_max":919,"o":"m 264 142 l 356 142 l 356 300 l 94 660 l 15 660 l 15 803 l 438 803 l 438 660 l 351 660 l 499 440 l 644 660 l 557 660 l 557 803 l 919 803 l 919 660 l 839 660 l 590 300 l 590 142 l 682 142 l 682 0 l 264 0 l 264 142 m 474 -269 q 399 -242 428 -269 q 369 -174 369 -215 q 398 -103 369 -129 q 474 -78 426 -78 q 549 -105 521 -78 q 578 -176 578 -132 q 549 -243 578 -217 q 474 -269 519 -269 z "},"Ỳ":{"ha":935,"x_min":15,"x_max":919,"o":"m 264 142 l 356 142 l 356 300 l 94 660 l 15 660 l 15 803 l 438 803 l 438 660 l 351 660 l 499 440 l 644 660 l 557 660 l 557 803 l 919 803 l 919 660 l 839 660 l 590 300 l 590 142 l 682 142 l 682 0 l 264 0 l 264 142 m 301 1132 l 493 1132 l 553 892 l 435 892 l 301 1132 z "},"Ỷ":{"ha":935,"x_min":15,"x_max":919,"o":"m 264 142 l 356 142 l 356 300 l 94 660 l 15 660 l 15 803 l 438 803 l 438 660 l 351 660 l 499 440 l 644 660 l 557 660 l 557 803 l 919 803 l 919 660 l 839 660 l 590 300 l 590 142 l 682 142 l 682 0 l 264 0 l 264 142 m 469 925 q 504 947 493 935 q 515 978 515 960 q 500 1010 515 999 q 458 1022 485 1022 q 379 999 418 1022 l 356 1067 q 488 1114 413 1114 q 583 1083 547 1114 q 619 1000 619 1051 q 489 864 619 897 l 469 925 z "},"Ȳ":{"ha":935,"x_min":15,"x_max":919,"o":"m 264 142 l 356 142 l 356 300 l 94 660 l 15 660 l 15 803 l 438 803 l 438 660 l 351 660 l 499 440 l 644 660 l 557 660 l 557 803 l 919 803 l 919 660 l 839 660 l 590 300 l 590 142 l 682 142 l 682 0 l 264 0 l 264 142 m 315 1008 l 679 1008 l 679 899 l 315 899 l 315 1008 z "},"Ỹ":{"ha":935,"x_min":15,"x_max":919,"o":"m 264 142 l 356 142 l 356 300 l 94 660 l 15 660 l 15 803 l 438 803 l 438 660 l 351 660 l 499 440 l 644 660 l 557 660 l 557 803 l 919 803 l 919 660 l 839 660 l 590 300 l 590 142 l 682 142 l 682 0 l 264 0 l 264 142 m 597 901 q 538 911 568 901 q 472 939 508 921 q 424 959 443 953 q 390 965 406 965 q 335 908 340 965 l 238 908 q 290 1060 246 1011 q 399 1108 333 1108 q 455 1099 426 1108 q 522 1071 483 1089 q 566 1053 544 1061 q 603 1044 588 1044 q 661 1101 653 1044 l 757 1101 q 706 951 749 1000 q 597 901 664 901 z "},"Z":{"ha":822,"x_min":56,"x_max":771,"o":"m 56 113 l 442 664 l 217 664 l 217 510 l 65 510 l 65 803 l 758 803 l 758 692 l 369 138 l 615 138 l 615 310 l 771 310 l 771 0 l 56 0 l 56 113 z "},"Ź":{"ha":822,"x_min":56,"x_max":771,"o":"m 56 113 l 442 664 l 217 664 l 217 510 l 65 510 l 65 803 l 758 803 l 758 692 l 369 138 l 615 138 l 615 310 l 771 310 l 771 0 l 56 0 l 56 113 m 424 1132 l 615 1132 l 481 892 l 364 892 l 424 1132 z "},"Ž":{"ha":822,"x_min":56,"x_max":771,"o":"m 56 113 l 442 664 l 217 664 l 217 510 l 65 510 l 65 803 l 758 803 l 758 692 l 369 138 l 615 138 l 615 310 l 771 310 l 771 0 l 56 0 l 56 113 m 208 1129 l 344 1129 l 428 972 l 511 1129 l 635 1129 l 539 888 l 317 888 l 208 1129 z "},"Ż":{"ha":822,"x_min":56,"x_max":771,"o":"m 56 113 l 442 664 l 217 664 l 217 510 l 65 510 l 65 803 l 758 803 l 758 692 l 369 138 l 615 138 l 615 310 l 771 310 l 771 0 l 56 0 l 56 113 m 422 911 q 339 942 371 911 q 307 1022 307 974 q 339 1101 307 1071 q 422 1132 371 1132 q 505 1101 474 1132 q 536 1022 536 1071 q 506 942 538 974 q 422 911 474 911 z "},"Ẓ":{"ha":822,"x_min":56,"x_max":771,"o":"m 56 113 l 442 664 l 217 664 l 217 510 l 65 510 l 65 803 l 758 803 l 758 692 l 369 138 l 615 138 l 615 310 l 771 310 l 771 0 l 56 0 l 56 113 m 413 -269 q 338 -242 367 -269 q 308 -174 308 -215 q 337 -103 308 -129 q 413 -78 365 -78 q 488 -105 460 -78 q 517 -176 517 -132 q 488 -243 517 -217 q 413 -269 458 -269 z "},"a":{"ha":671,"x_min":43,"x_max":654,"o":"m 654 122 l 654 0 l 418 0 l 403 49 q 228 -14 326 -14 q 93 31 143 -14 q 43 149 43 75 q 106 279 43 238 q 264 321 168 321 q 386 304 329 321 l 386 331 q 281 435 386 435 q 97 388 206 435 l 51 506 q 331 569 188 569 q 520 510 453 569 q 588 343 588 450 l 588 122 l 654 122 m 226 161 q 245 111 226 129 q 299 93 264 93 q 386 126 347 93 l 386 219 q 311 232 349 232 q 251 215 275 232 q 226 161 226 197 z "},"á":{"ha":671,"x_min":43,"x_max":654,"o":"m 654 122 l 654 0 l 418 0 l 403 49 q 228 -14 326 -14 q 93 31 143 -14 q 43 149 43 75 q 106 279 43 238 q 264 321 168 321 q 386 304 329 321 l 386 331 q 281 435 386 435 q 97 388 206 435 l 51 506 q 331 569 188 569 q 520 510 453 569 q 588 343 588 450 l 588 122 l 654 122 m 226 161 q 245 111 226 129 q 299 93 264 93 q 386 126 347 93 l 386 219 q 311 232 349 232 q 251 215 275 232 q 226 161 226 197 m 332 885 l 524 885 l 389 644 l 272 644 l 332 885 z "},"ă":{"ha":671,"x_min":43,"x_max":654,"o":"m 654 122 l 654 0 l 418 0 l 403 49 q 228 -14 326 -14 q 93 31 143 -14 q 43 149 43 75 q 106 279 43 238 q 264 321 168 321 q 386 304 329 321 l 386 331 q 281 435 386 435 q 97 388 206 435 l 51 506 q 331 569 188 569 q 520 510 453 569 q 588 343 588 450 l 588 122 l 654 122 m 226 161 q 245 111 226 129 q 299 93 264 93 q 386 126 347 93 l 386 219 q 311 232 349 232 q 251 215 275 232 q 226 161 226 197 m 331 651 q 170 701 226 651 q 108 849 114 751 l 243 849 q 271 785 249 807 q 331 763 293 763 q 418 849 410 763 l 553 849 q 488 701 544 751 q 331 651 431 651 z "},"ắ":{"ha":671,"x_min":43,"x_max":654,"o":"m 654 122 l 654 0 l 418 0 l 403 49 q 228 -14 326 -14 q 93 31 143 -14 q 43 149 43 75 q 106 279 43 238 q 264 321 168 321 q 386 304 329 321 l 386 331 q 281 435 386 435 q 97 388 206 435 l 51 506 q 331 569 188 569 q 520 510 453 569 q 588 343 588 450 l 588 122 l 654 122 m 226 161 q 245 111 226 129 q 299 93 264 93 q 386 126 347 93 l 386 219 q 311 232 349 232 q 251 215 275 232 q 226 161 226 197 m 333 1040 l 496 1040 l 369 856 l 269 856 l 333 1040 m 331 646 q 170 691 226 646 q 108 824 114 736 l 232 824 q 331 742 247 742 q 399 763 374 742 q 428 824 425 783 l 553 824 q 488 692 544 736 q 331 646 431 647 z "},"ặ":{"ha":671,"x_min":43,"x_max":654,"o":"m 654 122 l 654 0 l 418 0 l 403 49 q 228 -14 326 -14 q 93 31 143 -14 q 43 149 43 75 q 106 279 43 238 q 264 321 168 321 q 386 304 329 321 l 386 331 q 281 435 386 435 q 97 388 206 435 l 51 506 q 331 569 188 569 q 520 510 453 569 q 588 343 588 450 l 588 122 l 654 122 m 226 161 q 245 111 226 129 q 299 93 264 93 q 386 126 347 93 l 386 219 q 311 232 349 232 q 251 215 275 232 q 226 161 226 197 m 357 -269 q 282 -242 311 -269 q 253 -174 253 -215 q 281 -103 253 -129 q 357 -78 310 -78 q 433 -105 404 -78 q 461 -176 461 -132 q 432 -243 461 -217 q 357 -269 403 -269 m 331 651 q 170 701 226 651 q 108 849 114 751 l 243 849 q 271 785 249 807 q 331 763 293 763 q 418 849 410 763 l 553 849 q 488 701 544 751 q 331 651 431 651 z "},"ằ":{"ha":671,"x_min":43,"x_max":654,"o":"m 654 122 l 654 0 l 418 0 l 403 49 q 228 -14 326 -14 q 93 31 143 -14 q 43 149 43 75 q 106 279 43 238 q 264 321 168 321 q 386 304 329 321 l 386 331 q 281 435 386 435 q 97 388 206 435 l 51 506 q 331 569 188 569 q 520 510 453 569 q 588 343 588 450 l 588 122 l 654 122 m 226 161 q 245 111 226 129 q 299 93 264 93 q 386 126 347 93 l 386 219 q 311 232 349 232 q 251 215 275 232 q 226 161 226 197 m 165 1040 l 328 1040 l 390 856 l 290 856 l 165 1040 m 331 646 q 170 691 226 646 q 108 824 114 736 l 232 824 q 331 742 247 742 q 399 763 374 742 q 428 824 425 783 l 553 824 q 488 692 544 736 q 331 646 431 647 z "},"ẳ":{"ha":671,"x_min":43,"x_max":654,"o":"m 654 122 l 654 0 l 418 0 l 403 49 q 228 -14 326 -14 q 93 31 143 -14 q 43 149 43 75 q 106 279 43 238 q 264 321 168 321 q 386 304 329 321 l 386 331 q 281 435 386 435 q 97 388 206 435 l 51 506 q 331 569 188 569 q 520 510 453 569 q 588 343 588 450 l 588 122 l 654 122 m 226 161 q 245 111 226 129 q 299 93 264 93 q 386 126 347 93 l 386 219 q 311 232 349 232 q 251 215 275 232 q 226 161 226 197 m 300 886 q 346 939 346 904 q 331 969 346 958 q 289 979 315 979 q 210 954 250 979 l 188 1024 q 247 1058 213 1044 q 318 1071 282 1071 q 415 1041 378 1071 q 451 961 451 1011 q 417 874 451 908 q 319 825 383 840 l 300 886 m 331 646 q 170 691 226 646 q 108 824 114 736 l 232 824 q 331 742 247 742 q 399 763 374 742 q 428 824 425 783 l 553 824 q 488 692 544 736 q 331 646 431 647 z "},"ẵ":{"ha":671,"x_min":43,"x_max":654,"o":"m 654 122 l 654 0 l 418 0 l 403 49 q 228 -14 326 -14 q 93 31 143 -14 q 43 149 43 75 q 106 279 43 238 q 264 321 168 321 q 386 304 329 321 l 386 331 q 281 435 386 435 q 97 388 206 435 l 51 506 q 331 569 188 569 q 520 510 453 569 q 588 343 588 450 l 588 122 l 654 122 m 226 161 q 245 111 226 129 q 299 93 264 93 q 386 126 347 93 l 386 219 q 311 232 349 232 q 251 215 275 232 q 226 161 226 197 m 435 881 q 376 890 406 881 q 306 918 346 900 q 224 944 247 944 q 168 889 174 944 l 71 889 q 122 1025 79 982 q 229 1068 164 1068 q 281 1060 256 1068 q 343 1033 306 1051 q 436 1004 404 1004 q 494 1061 486 1004 l 590 1061 q 542 925 582 969 q 435 881 501 881 m 331 646 q 170 691 226 646 q 108 824 114 736 l 232 824 q 331 742 247 742 q 399 763 374 742 q 428 824 425 783 l 553 824 q 488 692 544 736 q 331 646 431 647 z "},"ǎ":{"ha":671,"x_min":43,"x_max":654,"o":"m 654 122 l 654 0 l 418 0 l 403 49 q 228 -14 326 -14 q 93 31 143 -14 q 43 149 43 75 q 106 279 43 238 q 264 321 168 321 q 386 304 329 321 l 386 331 q 281 435 386 435 q 97 388 206 435 l 51 506 q 331 569 188 569 q 520 510 453 569 q 588 343 588 450 l 588 122 l 654 122 m 226 161 q 245 111 226 129 q 299 93 264 93 q 386 126 347 93 l 386 219 q 311 232 349 232 q 251 215 275 232 q 226 161 226 197 m 117 882 l 253 882 l 336 725 l 419 882 l 543 882 l 447 640 l 225 640 l 117 882 z "},"â":{"ha":671,"x_min":43,"x_max":654,"o":"m 654 122 l 654 0 l 418 0 l 403 49 q 228 -14 326 -14 q 93 31 143 -14 q 43 149 43 75 q 106 279 43 238 q 264 321 168 321 q 386 304 329 321 l 386 331 q 281 435 386 435 q 97 388 206 435 l 51 506 q 331 569 188 569 q 520 510 453 569 q 588 343 588 450 l 588 122 l 654 122 m 226 161 q 245 111 226 129 q 299 93 264 93 q 386 126 347 93 l 386 219 q 311 232 349 232 q 251 215 275 232 q 226 161 226 197 m 226 883 l 438 883 l 554 640 l 425 640 l 331 799 l 236 640 l 107 640 l 226 883 z "},"ấ":{"ha":671,"x_min":43,"x_max":719,"o":"m 654 122 l 654 0 l 418 0 l 403 49 q 228 -14 326 -14 q 93 31 143 -14 q 43 149 43 75 q 106 279 43 238 q 264 321 168 321 q 386 304 329 321 l 386 331 q 281 435 386 435 q 97 388 206 435 l 51 506 q 331 569 188 569 q 520 510 453 569 q 588 343 588 450 l 588 122 l 654 122 m 226 161 q 245 111 226 129 q 299 93 264 93 q 386 126 347 93 l 386 219 q 311 232 349 232 q 251 215 275 232 q 226 161 226 197 m 569 958 l 719 958 l 607 769 l 510 769 l 569 958 m 236 831 l 426 831 l 544 640 l 415 640 l 331 747 l 246 640 l 117 640 l 236 831 z "},"ậ":{"ha":671,"x_min":43,"x_max":654,"o":"m 654 122 l 654 0 l 418 0 l 403 49 q 228 -14 326 -14 q 93 31 143 -14 q 43 149 43 75 q 106 279 43 238 q 264 321 168 321 q 386 304 329 321 l 386 331 q 281 435 386 435 q 97 388 206 435 l 51 506 q 331 569 188 569 q 520 510 453 569 q 588 343 588 450 l 588 122 l 654 122 m 226 161 q 245 111 226 129 q 299 93 264 93 q 386 126 347 93 l 386 219 q 311 232 349 232 q 251 215 275 232 q 226 161 226 197 m 357 -269 q 282 -242 311 -269 q 253 -174 253 -215 q 281 -103 253 -129 q 357 -78 310 -78 q 433 -105 404 -78 q 461 -176 461 -132 q 432 -243 461 -217 q 357 -269 403 -269 m 226 883 l 438 883 l 554 640 l 425 640 l 331 799 l 236 640 l 107 640 l 226 883 z "},"ầ":{"ha":671,"x_min":43,"x_max":654,"o":"m 654 122 l 654 0 l 418 0 l 403 49 q 228 -14 326 -14 q 93 31 143 -14 q 43 149 43 75 q 106 279 43 238 q 264 321 168 321 q 386 304 329 321 l 386 331 q 281 435 386 435 q 97 388 206 435 l 51 506 q 331 569 188 569 q 520 510 453 569 q 588 343 588 450 l 588 122 l 654 122 m 226 161 q 245 111 226 129 q 299 93 264 93 q 386 126 347 93 l 386 219 q 311 232 349 232 q 251 215 275 232 q 226 161 226 197 m 553 769 l 440 958 l 590 958 l 650 769 l 553 769 m 236 831 l 426 831 l 544 640 l 415 640 l 331 747 l 246 640 l 117 640 l 236 831 z "},"ẩ":{"ha":671,"x_min":43,"x_max":663,"o":"m 654 122 l 654 0 l 418 0 l 403 49 q 228 -14 326 -14 q 93 31 143 -14 q 43 149 43 75 q 106 279 43 238 q 264 321 168 321 q 386 304 329 321 l 386 331 q 281 435 386 435 q 97 388 206 435 l 51 506 q 331 569 188 569 q 520 510 453 569 q 588 343 588 450 l 588 122 l 654 122 m 226 161 q 245 111 226 129 q 299 93 264 93 q 386 126 347 93 l 386 219 q 311 232 349 232 q 251 215 275 232 q 226 161 226 197 m 513 808 q 547 831 536 818 q 558 861 558 843 q 543 894 558 882 q 501 906 528 906 q 422 882 461 906 l 399 950 q 531 997 456 997 q 626 966 590 997 q 663 883 663 935 q 532 747 663 781 l 513 808 m 236 831 l 426 831 l 544 640 l 415 640 l 331 747 l 246 640 l 117 640 l 236 831 z "},"ẫ":{"ha":671,"x_min":43,"x_max":654,"o":"m 654 122 l 654 0 l 418 0 l 403 49 q 228 -14 326 -14 q 93 31 143 -14 q 43 149 43 75 q 106 279 43 238 q 264 321 168 321 q 386 304 329 321 l 386 331 q 281 435 386 435 q 97 388 206 435 l 51 506 q 331 569 188 569 q 520 510 453 569 q 588 343 588 450 l 588 122 l 654 122 m 226 161 q 245 111 226 129 q 299 93 264 93 q 386 126 347 93 l 386 219 q 311 232 349 232 q 251 215 275 232 q 226 161 226 197 m 435 886 q 385 894 408 886 q 328 918 363 901 q 281 938 300 931 q 244 944 263 944 q 189 888 194 944 l 92 888 q 136 1019 99 978 q 229 1061 174 1061 q 276 1053 253 1061 q 332 1031 299 1046 q 378 1011 360 1018 q 415 1004 397 1004 q 474 1054 465 1004 l 569 1054 q 435 886 556 886 m 236 831 l 426 831 l 544 640 l 415 640 l 331 747 l 246 640 l 117 640 l 236 831 z "},"ȁ":{"ha":671,"x_min":-4,"x_max":654,"o":"m 654 122 l 654 0 l 418 0 l 403 49 q 228 -14 326 -14 q 93 31 143 -14 q 43 149 43 75 q 106 279 43 238 q 264 321 168 321 q 386 304 329 321 l 386 331 q 281 435 386 435 q 97 388 206 435 l 51 506 q 331 569 188 569 q 520 510 453 569 q 588 343 588 450 l 588 122 l 654 122 m 226 161 q 245 111 226 129 q 299 93 264 93 q 386 126 347 93 l 386 219 q 311 232 349 232 q 251 215 275 232 q 226 161 226 197 m -4 888 l 188 888 l 250 644 l 132 644 l -4 888 m 265 888 l 457 888 l 519 644 l 400 644 l 265 888 z "},"ä":{"ha":671,"x_min":43,"x_max":654,"o":"m 654 122 l 654 0 l 418 0 l 403 49 q 228 -14 326 -14 q 93 31 143 -14 q 43 149 43 75 q 106 279 43 238 q 264 321 168 321 q 386 304 329 321 l 386 331 q 281 435 386 435 q 97 388 206 435 l 51 506 q 331 569 188 569 q 520 510 453 569 q 588 343 588 450 l 588 122 l 654 122 m 226 161 q 245 111 226 129 q 299 93 264 93 q 386 126 347 93 l 386 219 q 311 232 349 232 q 251 215 275 232 q 226 161 226 197 m 160 664 q 81 692 113 664 q 50 768 50 719 q 81 845 50 817 q 160 874 113 874 q 238 845 206 874 q 269 768 269 817 q 238 692 269 719 q 160 664 206 664 m 501 664 q 424 692 456 664 q 393 768 393 719 q 424 845 393 817 q 501 874 456 874 q 580 845 549 874 q 611 768 611 817 q 580 692 611 719 q 501 664 549 664 z "},"ȧ":{"ha":671,"x_min":43,"x_max":654,"o":"m 654 122 l 654 0 l 418 0 l 403 49 q 228 -14 326 -14 q 93 31 143 -14 q 43 149 43 75 q 106 279 43 238 q 264 321 168 321 q 386 304 329 321 l 386 331 q 281 435 386 435 q 97 388 206 435 l 51 506 q 331 569 188 569 q 520 510 453 569 q 588 343 588 450 l 588 122 l 654 122 m 226 161 q 245 111 226 129 q 299 93 264 93 q 386 126 347 93 l 386 219 q 311 232 349 232 q 251 215 275 232 q 226 161 226 197 m 331 664 q 247 695 279 664 q 215 775 215 726 q 247 854 215 824 q 331 885 279 885 q 413 854 382 885 q 444 775 444 824 q 414 695 446 726 q 331 664 382 664 z "},"ạ":{"ha":671,"x_min":43,"x_max":654,"o":"m 654 122 l 654 0 l 418 0 l 403 49 q 228 -14 326 -14 q 93 31 143 -14 q 43 149 43 75 q 106 279 43 238 q 264 321 168 321 q 386 304 329 321 l 386 331 q 281 435 386 435 q 97 388 206 435 l 51 506 q 331 569 188 569 q 520 510 453 569 q 588 343 588 450 l 588 122 l 654 122 m 226 161 q 245 111 226 129 q 299 93 264 93 q 386 126 347 93 l 386 219 q 311 232 349 232 q 251 215 275 232 q 226 161 226 197 m 357 -269 q 282 -242 311 -269 q 253 -174 253 -215 q 281 -103 253 -129 q 357 -78 310 -78 q 433 -105 404 -78 q 461 -176 461 -132 q 432 -243 461 -217 q 357 -269 403 -269 z "},"à":{"ha":671,"x_min":43,"x_max":654,"o":"m 654 122 l 654 0 l 418 0 l 403 49 q 228 -14 326 -14 q 93 31 143 -14 q 43 149 43 75 q 106 279 43 238 q 264 321 168 321 q 386 304 329 321 l 386 331 q 281 435 386 435 q 97 388 206 435 l 51 506 q 331 569 188 569 q 520 510 453 569 q 588 343 588 450 l 588 122 l 654 122 m 226 161 q 245 111 226 129 q 299 93 264 93 q 386 126 347 93 l 386 219 q 311 232 349 232 q 251 215 275 232 q 226 161 226 197 m 135 885 l 326 885 l 386 644 l 268 644 l 135 885 z "},"ả":{"ha":671,"x_min":43,"x_max":654,"o":"m 654 122 l 654 0 l 418 0 l 403 49 q 228 -14 326 -14 q 93 31 143 -14 q 43 149 43 75 q 106 279 43 238 q 264 321 168 321 q 386 304 329 321 l 386 331 q 281 435 386 435 q 97 388 206 435 l 51 506 q 331 569 188 569 q 520 510 453 569 q 588 343 588 450 l 588 122 l 654 122 m 226 161 q 245 111 226 129 q 299 93 264 93 q 386 126 347 93 l 386 219 q 311 232 349 232 q 251 215 275 232 q 226 161 226 197 m 303 678 q 338 700 326 688 q 349 731 349 713 q 333 763 349 751 q 292 775 318 775 q 213 751 251 775 l 189 819 q 321 867 246 867 q 417 835 381 867 q 453 753 453 804 q 322 617 453 650 l 303 678 z "},"ȃ":{"ha":671,"x_min":43,"x_max":654,"o":"m 654 122 l 654 0 l 418 0 l 403 49 q 228 -14 326 -14 q 93 31 143 -14 q 43 149 43 75 q 106 279 43 238 q 264 321 168 321 q 386 304 329 321 l 386 331 q 281 435 386 435 q 97 388 206 435 l 51 506 q 331 569 188 569 q 520 510 453 569 q 588 343 588 450 l 588 122 l 654 122 m 226 161 q 245 111 226 129 q 299 93 264 93 q 386 126 347 93 l 386 219 q 311 232 349 232 q 251 215 275 232 q 226 161 226 197 m 115 621 q 177 779 121 724 q 331 835 233 835 q 484 779 428 835 q 544 621 540 724 l 421 621 q 331 707 408 707 q 270 685 293 707 q 240 621 247 663 l 115 621 z "},"ā":{"ha":671,"x_min":43,"x_max":654,"o":"m 654 122 l 654 0 l 418 0 l 403 49 q 228 -14 326 -14 q 93 31 143 -14 q 43 149 43 75 q 106 279 43 238 q 264 321 168 321 q 386 304 329 321 l 386 331 q 281 435 386 435 q 97 388 206 435 l 51 506 q 331 569 188 569 q 520 510 453 569 q 588 343 588 450 l 588 122 l 654 122 m 226 161 q 245 111 226 129 q 299 93 264 93 q 386 126 347 93 l 386 219 q 311 232 349 232 q 251 215 275 232 q 226 161 226 197 m 149 761 l 513 761 l 513 651 l 149 651 l 149 761 z "},"ą":{"ha":671,"x_min":43,"x_max":664,"o":"m 606 -169 q 664 -158 633 -169 l 664 -243 q 556 -268 610 -268 q 463 -236 497 -268 q 429 -154 429 -204 q 521 0 429 -76 l 418 0 l 403 49 q 228 -14 326 -14 q 93 31 143 -14 q 43 149 43 75 q 106 279 43 238 q 264 321 168 321 q 386 304 329 321 l 386 331 q 281 435 386 435 q 97 388 206 435 l 51 506 q 331 569 188 569 q 520 510 453 569 q 588 343 588 450 l 588 122 l 654 122 l 654 0 l 593 0 q 548 -60 563 -35 q 533 -111 533 -86 q 553 -153 533 -137 q 606 -169 572 -169 m 226 161 q 245 111 226 129 q 299 93 264 93 q 386 126 347 93 l 386 219 q 311 232 349 232 q 251 215 275 232 q 226 161 226 197 z "},"å":{"ha":671,"x_min":43,"x_max":654,"o":"m 654 122 l 654 0 l 418 0 l 403 49 q 228 -14 326 -14 q 93 31 143 -14 q 43 149 43 75 q 106 279 43 238 q 264 321 168 321 q 386 304 329 321 l 386 331 q 281 435 386 435 q 97 388 206 435 l 51 506 q 331 569 188 569 q 520 510 453 569 q 588 343 588 450 l 588 122 l 654 122 m 226 161 q 245 111 226 129 q 299 93 264 93 q 386 126 347 93 l 386 219 q 311 232 349 232 q 251 215 275 232 q 226 161 226 197 m 333 632 q 235 665 271 632 q 200 756 200 697 q 235 847 200 814 q 331 881 269 881 q 426 847 392 881 q 461 756 461 814 q 427 665 461 699 q 333 632 393 632 m 331 694 q 376 711 360 694 q 392 756 392 728 q 376 803 392 786 q 331 819 360 819 q 285 803 301 819 q 269 756 269 786 q 285 711 269 728 q 331 694 301 694 z "},"ǻ":{"ha":671,"x_min":43,"x_max":654,"o":"m 654 122 l 654 0 l 418 0 l 403 49 q 228 -14 326 -14 q 93 31 143 -14 q 43 149 43 75 q 106 279 43 238 q 264 321 168 321 q 386 304 329 321 l 386 331 q 281 435 386 435 q 97 388 206 435 l 51 506 q 331 569 188 569 q 520 510 453 569 q 588 343 588 450 l 588 122 l 654 122 m 226 161 q 245 111 226 129 q 299 93 264 93 q 386 126 347 93 l 386 219 q 311 232 349 232 q 251 215 275 232 q 226 161 226 197 m 333 632 q 235 665 271 632 q 200 756 200 697 q 235 847 200 814 q 331 881 269 881 q 426 847 392 881 q 461 756 461 814 q 427 665 461 699 q 333 632 393 632 m 331 694 q 376 711 360 694 q 392 756 392 728 q 376 803 392 786 q 331 819 360 819 q 285 803 301 819 q 269 756 269 786 q 285 711 269 728 q 331 694 301 694 m 332 1176 l 524 1176 l 389 936 l 272 936 l 332 1176 z "},"ã":{"ha":671,"x_min":43,"x_max":654,"o":"m 654 122 l 654 0 l 418 0 l 403 49 q 228 -14 326 -14 q 93 31 143 -14 q 43 149 43 75 q 106 279 43 238 q 264 321 168 321 q 386 304 329 321 l 386 331 q 281 435 386 435 q 97 388 206 435 l 51 506 q 331 569 188 569 q 520 510 453 569 q 588 343 588 450 l 588 122 l 654 122 m 226 161 q 245 111 226 129 q 299 93 264 93 q 386 126 347 93 l 386 219 q 311 232 349 232 q 251 215 275 232 q 226 161 226 197 m 431 654 q 372 664 401 654 q 306 692 342 674 q 258 712 276 706 q 224 718 239 718 q 168 661 174 718 l 71 661 q 123 813 79 764 q 232 861 167 861 q 288 851 260 861 q 356 824 317 842 q 399 806 378 814 q 436 797 421 797 q 494 854 486 797 l 590 854 q 540 703 582 753 q 431 654 497 654 z "},"æ":{"ha":997,"x_min":43,"x_max":969,"o":"m 247 -14 q 97 28 151 -14 q 43 149 43 71 q 113 279 43 238 q 288 321 182 321 l 386 321 l 386 335 q 359 410 386 385 q 281 435 332 435 q 97 388 206 435 l 51 506 q 322 569 183 569 q 510 515 443 569 q 700 571 590 571 q 898 492 826 571 q 969 283 969 413 l 969 246 l 588 246 q 640 167 600 194 q 736 139 679 139 q 908 199 832 139 l 965 76 q 851 9 917 33 q 708 -15 785 -15 q 469 71 558 -15 q 247 -14 372 -14 m 779 333 q 755 410 779 382 q 686 438 731 438 q 617 410 643 438 q 583 333 590 383 l 779 333 m 308 93 q 421 138 364 93 q 392 231 399 179 l 325 231 q 254 213 282 231 q 226 161 226 196 q 248 111 226 129 q 308 93 269 93 z "},"ǽ":{"ha":997,"x_min":43,"x_max":969,"o":"m 247 -14 q 97 28 151 -14 q 43 149 43 71 q 113 279 43 238 q 288 321 182 321 l 386 321 l 386 335 q 359 410 386 385 q 281 435 332 435 q 97 388 206 435 l 51 506 q 322 569 183 569 q 510 515 443 569 q 700 571 590 571 q 898 492 826 571 q 969 283 969 413 l 969 246 l 588 246 q 640 167 600 194 q 736 139 679 139 q 908 199 832 139 l 965 76 q 851 9 917 33 q 708 -15 785 -15 q 469 71 558 -15 q 247 -14 372 -14 m 779 333 q 755 410 779 382 q 686 438 731 438 q 617 410 643 438 q 583 333 590 383 l 779 333 m 308 93 q 421 138 364 93 q 392 231 399 179 l 325 231 q 254 213 282 231 q 226 161 226 196 q 248 111 226 129 q 308 93 269 93 m 510 885 l 701 885 l 567 644 l 450 644 l 510 885 z "},"ǣ":{"ha":997,"x_min":43,"x_max":969,"o":"m 247 -14 q 97 28 151 -14 q 43 149 43 71 q 113 279 43 238 q 288 321 182 321 l 386 321 l 386 335 q 359 410 386 385 q 281 435 332 435 q 97 388 206 435 l 51 506 q 322 569 183 569 q 510 515 443 569 q 700 571 590 571 q 898 492 826 571 q 969 283 969 413 l 969 246 l 588 246 q 640 167 600 194 q 736 139 679 139 q 908 199 832 139 l 965 76 q 851 9 917 33 q 708 -15 785 -15 q 469 71 558 -15 q 247 -14 372 -14 m 779 333 q 755 410 779 382 q 686 438 731 438 q 617 410 643 438 q 583 333 590 383 l 779 333 m 308 93 q 421 138 364 93 q 392 231 399 179 l 325 231 q 254 213 282 231 q 226 161 226 196 q 248 111 226 129 q 308 93 269 93 m 326 761 l 690 761 l 690 651 l 326 651 l 326 761 z "},"b":{"ha":742,"x_min":19,"x_max":715,"o":"m 467 569 q 648 492 581 569 q 715 285 715 414 q 644 67 715 149 q 456 -14 572 -14 q 286 40 357 -14 l 282 0 l 19 0 l 19 122 l 92 122 l 92 694 l 19 694 l 19 817 l 297 817 l 297 508 q 467 569 368 569 m 383 139 q 470 177 438 139 q 503 278 503 215 q 471 381 503 344 q 383 417 439 417 q 297 385 338 417 l 297 165 q 383 139 339 139 z "},"ḃ":{"ha":742,"x_min":19,"x_max":715,"o":"m 467 569 q 648 492 581 569 q 715 285 715 414 q 644 67 715 149 q 456 -14 572 -14 q 286 40 357 -14 l 282 0 l 19 0 l 19 122 l 92 122 l 92 694 l 19 694 l 19 817 l 297 817 l 297 508 q 467 569 368 569 m 383 139 q 470 177 438 139 q 503 278 503 215 q 471 381 503 344 q 383 417 439 417 q 297 385 338 417 l 297 165 q 383 139 339 139 m 260 860 q 176 891 208 860 q 144 971 144 922 q 176 1050 144 1019 q 260 1081 208 1081 q 342 1050 311 1081 q 374 971 374 1019 q 343 891 375 922 q 260 860 311 860 z "},"c":{"ha":633,"x_min":26,"x_max":603,"o":"m 603 79 q 340 -14 499 -14 q 176 24 247 -14 q 66 128 106 61 q 26 285 26 196 q 63 435 26 369 q 161 535 99 500 q 301 571 224 571 q 454 517 400 571 l 454 557 l 590 557 l 590 326 l 463 326 q 343 436 449 436 q 252 398 286 436 q 218 294 218 360 q 260 181 218 222 q 374 139 303 139 q 544 203 471 139 l 603 79 z "},"ć":{"ha":633,"x_min":26,"x_max":603,"o":"m 603 79 q 340 -14 499 -14 q 176 24 247 -14 q 66 128 106 61 q 26 285 26 196 q 63 435 26 369 q 161 535 99 500 q 301 571 224 571 q 454 517 400 571 l 454 557 l 590 557 l 590 326 l 463 326 q 343 436 449 436 q 252 398 286 436 q 218 294 218 360 q 260 181 218 222 q 374 139 303 139 q 544 203 471 139 l 603 79 m 336 885 l 528 885 l 393 644 l 276 644 l 336 885 z "},"č":{"ha":633,"x_min":26,"x_max":603,"o":"m 603 79 q 340 -14 499 -14 q 176 24 247 -14 q 66 128 106 61 q 26 285 26 196 q 63 435 26 369 q 161 535 99 500 q 301 571 224 571 q 454 517 400 571 l 454 557 l 590 557 l 590 326 l 463 326 q 343 436 449 436 q 252 398 286 436 q 218 294 218 360 q 260 181 218 222 q 374 139 303 139 q 544 203 471 139 l 603 79 m 121 882 l 257 882 l 340 725 l 424 882 l 547 882 l 451 640 l 229 640 l 121 882 z "},"ç":{"ha":633,"x_min":26,"x_max":603,"o":"m 367 -79 q 443 -115 417 -86 q 469 -181 469 -143 q 433 -256 469 -231 q 342 -282 396 -282 q 277 -273 310 -282 q 218 -247 244 -264 l 218 -193 q 297 -211 264 -211 q 346 -168 346 -211 q 265 -122 346 -126 l 308 -12 q 103 78 181 -3 q 26 285 26 158 q 63 435 26 369 q 161 535 99 500 q 301 571 224 571 q 454 517 400 571 l 454 557 l 590 557 l 590 326 l 463 326 q 343 436 449 436 q 252 398 286 436 q 218 294 218 360 q 260 181 218 222 q 374 139 303 139 q 544 203 471 139 l 603 79 q 385 -12 514 -1 l 367 -79 z "},"ḉ":{"ha":633,"x_min":26,"x_max":603,"o":"m 393 644 l 276 644 l 336 885 l 528 885 l 393 644 m 367 -79 q 443 -115 417 -86 q 469 -181 469 -143 q 433 -256 469 -231 q 342 -282 396 -282 q 277 -273 310 -282 q 218 -247 244 -264 l 218 -193 q 297 -211 264 -211 q 346 -168 346 -211 q 265 -122 346 -126 l 308 -12 q 103 78 181 -3 q 26 285 26 158 q 63 435 26 369 q 161 535 99 500 q 301 571 224 571 q 454 517 400 571 l 454 557 l 590 557 l 590 326 l 463 326 q 343 436 449 436 q 252 398 286 436 q 218 294 218 360 q 260 181 218 222 q 374 139 303 139 q 544 203 471 139 l 603 79 q 385 -12 514 -1 l 367 -79 z "},"ĉ":{"ha":633,"x_min":26,"x_max":603,"o":"m 603 79 q 340 -14 499 -14 q 176 24 247 -14 q 66 128 106 61 q 26 285 26 196 q 63 435 26 369 q 161 535 99 500 q 301 571 224 571 q 454 517 400 571 l 454 557 l 590 557 l 590 326 l 463 326 q 343 436 449 436 q 252 398 286 436 q 218 294 218 360 q 260 181 218 222 q 374 139 303 139 q 544 203 471 139 l 603 79 m 231 883 l 442 883 l 558 640 l 429 640 l 335 799 l 240 640 l 111 640 l 231 883 z "},"ċ":{"ha":633,"x_min":26,"x_max":603,"o":"m 603 79 q 340 -14 499 -14 q 176 24 247 -14 q 66 128 106 61 q 26 285 26 196 q 63 435 26 369 q 161 535 99 500 q 301 571 224 571 q 454 517 400 571 l 454 557 l 590 557 l 590 326 l 463 326 q 343 436 449 436 q 252 398 286 436 q 218 294 218 360 q 260 181 218 222 q 374 139 303 139 q 544 203 471 139 l 603 79 m 335 664 q 251 695 283 664 q 219 775 219 726 q 251 854 219 824 q 335 885 283 885 q 417 854 386 885 q 449 775 449 824 q 418 695 450 726 q 335 664 386 664 z "},"d":{"ha":736,"x_min":26,"x_max":719,"o":"m 719 122 l 719 0 l 461 0 l 458 39 q 285 -14 382 -14 q 150 22 208 -14 q 59 125 92 58 q 26 281 26 192 q 59 432 26 367 q 150 533 92 497 q 282 569 208 569 q 446 513 379 569 l 446 694 l 358 694 l 358 817 l 651 817 l 651 122 l 719 122 m 239 275 q 273 176 239 214 q 360 139 307 139 q 446 164 408 139 l 446 388 q 358 417 408 417 q 271 380 303 417 q 239 275 239 343 z "},"ð":{"ha":683,"x_min":32,"x_max":649,"o":"m 438 718 q 649 289 649 503 q 564 67 649 147 q 336 -14 479 -14 q 114 62 196 -14 q 32 261 32 138 q 65 401 32 339 q 160 499 97 464 q 308 535 222 535 q 407 515 358 535 q 290 653 365 582 l 126 579 l 79 676 l 203 732 q 79 825 133 788 l 172 940 q 353 799 285 858 l 508 868 l 558 772 l 438 718 m 336 140 q 422 174 392 140 q 451 264 451 208 q 421 351 451 319 q 336 382 390 382 q 251 350 282 382 q 221 261 221 318 q 251 173 221 206 q 336 140 282 140 z "},"ď":{"ha":885,"x_min":26,"x_max":908,"o":"m 719 122 l 719 0 l 461 0 l 458 39 q 285 -14 382 -14 q 150 22 208 -14 q 59 125 92 58 q 26 281 26 192 q 59 432 26 367 q 150 533 92 497 q 282 569 208 569 q 446 513 379 569 l 446 694 l 358 694 l 358 817 l 651 817 l 651 122 l 719 122 m 239 275 q 273 176 239 214 q 360 139 307 139 q 446 164 408 139 l 446 388 q 358 417 408 417 q 271 380 303 417 q 239 275 239 343 m 714 533 q 785 563 763 538 q 807 647 807 589 l 713 647 l 713 817 l 908 817 l 908 676 q 864 519 908 572 q 714 465 819 465 l 714 533 z "},"đ":{"ha":771,"x_min":26,"x_max":718,"o":"m 651 638 l 651 131 l 718 131 l 718 0 l 461 0 l 458 39 q 285 -14 382 -14 q 150 22 208 -14 q 59 125 92 58 q 26 281 26 192 q 59 432 26 367 q 150 533 92 497 q 282 569 208 569 q 446 513 379 569 l 446 638 l 299 638 l 299 726 l 446 726 l 446 807 l 651 807 l 651 726 l 718 726 l 718 638 l 651 638 m 239 275 q 273 176 239 214 q 360 139 307 139 q 446 164 408 139 l 446 388 q 358 417 408 417 q 271 380 303 417 q 239 275 239 343 z "},"ḋ":{"ha":736,"x_min":26,"x_max":719,"o":"m 719 122 l 719 0 l 461 0 l 458 39 q 285 -14 382 -14 q 150 22 208 -14 q 59 125 92 58 q 26 281 26 192 q 59 432 26 367 q 150 533 92 497 q 282 569 208 569 q 446 513 379 569 l 446 694 l 358 694 l 358 817 l 651 817 l 651 122 l 719 122 m 239 275 q 273 176 239 214 q 360 139 307 139 q 446 164 408 139 l 446 388 q 358 417 408 417 q 271 380 303 417 q 239 275 239 343 m 549 925 q 465 956 497 925 q 433 1036 433 988 q 465 1115 433 1085 q 549 1146 497 1146 q 631 1115 600 1146 q 663 1036 663 1085 q 632 956 664 988 q 549 925 600 925 z "},"ḍ":{"ha":736,"x_min":26,"x_max":719,"o":"m 719 122 l 719 0 l 461 0 l 458 39 q 285 -14 382 -14 q 150 22 208 -14 q 59 125 92 58 q 26 281 26 192 q 59 432 26 367 q 150 533 92 497 q 282 569 208 569 q 446 513 379 569 l 446 694 l 358 694 l 358 817 l 651 817 l 651 122 l 719 122 m 239 275 q 273 176 239 214 q 360 139 307 139 q 446 164 408 139 l 446 388 q 358 417 408 417 q 271 380 303 417 q 239 275 239 343 m 389 -269 q 314 -242 343 -269 q 285 -174 285 -215 q 313 -103 285 -129 q 389 -78 342 -78 q 465 -105 436 -78 q 493 -176 493 -132 q 464 -243 493 -217 q 389 -269 435 -269 z "},"ḏ":{"ha":736,"x_min":26,"x_max":719,"o":"m 719 122 l 719 0 l 461 0 l 458 39 q 285 -14 382 -14 q 150 22 208 -14 q 59 125 92 58 q 26 281 26 192 q 59 432 26 367 q 150 533 92 497 q 282 569 208 569 q 446 513 379 569 l 446 694 l 358 694 l 358 817 l 651 817 l 651 122 l 719 122 m 239 275 q 273 176 239 214 q 360 139 307 139 q 446 164 408 139 l 446 388 q 358 417 408 417 q 271 380 303 417 q 239 275 239 343 m 207 -104 l 571 -104 l 571 -214 l 207 -214 l 207 -104 z "},"ǳ":{"ha":1368,"x_min":26,"x_max":1328,"o":"m 719 122 l 719 0 l 461 0 l 458 39 q 285 -14 382 -14 q 150 22 208 -14 q 59 125 92 58 q 26 281 26 192 q 59 432 26 367 q 150 533 92 497 q 282 569 208 569 q 446 513 379 569 l 446 694 l 358 694 l 358 817 l 651 817 l 651 122 l 719 122 m 239 275 q 273 176 239 214 q 360 139 307 139 q 446 164 408 139 l 446 388 q 358 417 408 417 q 271 380 303 417 q 239 275 239 343 m 779 101 l 1078 440 l 904 440 l 904 338 l 781 338 l 781 556 l 1317 556 l 1317 454 l 1014 114 l 1204 114 l 1204 232 l 1328 232 l 1328 0 l 779 0 l 779 101 z "},"ǆ":{"ha":1368,"x_min":26,"x_max":1328,"o":"m 719 122 l 719 0 l 461 0 l 458 39 q 285 -14 382 -14 q 150 22 208 -14 q 59 125 92 58 q 26 281 26 192 q 59 432 26 367 q 150 533 92 497 q 282 569 208 569 q 446 513 379 569 l 446 694 l 358 694 l 358 817 l 651 817 l 651 122 l 719 122 m 239 275 q 273 176 239 214 q 360 139 307 139 q 446 164 408 139 l 446 388 q 358 417 408 417 q 271 380 303 417 q 239 275 239 343 m 779 101 l 1078 440 l 904 440 l 904 338 l 781 338 l 781 556 l 1317 556 l 1317 454 l 1014 114 l 1204 114 l 1204 232 l 1328 232 l 1328 0 l 779 0 l 779 101 m 847 882 l 983 882 l 1067 725 l 1150 882 l 1274 882 l 1178 640 l 956 640 l 847 882 z "},"e":{"ha":633,"x_min":25,"x_max":606,"o":"m 606 246 l 222 246 q 274 166 235 193 q 372 139 314 139 q 544 199 468 139 l 601 76 q 487 9 553 33 q 344 -15 421 -15 q 112 63 199 -15 q 25 278 25 140 q 64 431 25 364 q 172 534 103 497 q 329 571 242 571 q 532 492 458 571 q 606 283 606 413 l 606 246 m 415 333 q 391 410 415 382 q 322 438 367 438 q 253 410 279 438 q 219 333 226 383 l 415 333 z "},"é":{"ha":633,"x_min":25,"x_max":606,"o":"m 606 246 l 222 246 q 274 166 235 193 q 372 139 314 139 q 544 199 468 139 l 601 76 q 487 9 553 33 q 344 -15 421 -15 q 112 63 199 -15 q 25 278 25 140 q 64 431 25 364 q 172 534 103 497 q 329 571 242 571 q 532 492 458 571 q 606 283 606 413 l 606 246 m 415 333 q 391 410 415 382 q 322 438 367 438 q 253 410 279 438 q 219 333 226 383 l 415 333 m 347 885 l 539 885 l 404 644 l 288 644 l 347 885 z "},"ĕ":{"ha":633,"x_min":25,"x_max":606,"o":"m 606 246 l 222 246 q 274 166 235 193 q 372 139 314 139 q 544 199 468 139 l 601 76 q 487 9 553 33 q 344 -15 421 -15 q 112 63 199 -15 q 25 278 25 140 q 64 431 25 364 q 172 534 103 497 q 329 571 242 571 q 532 492 458 571 q 606 283 606 413 l 606 246 m 415 333 q 391 410 415 382 q 322 438 367 438 q 253 410 279 438 q 219 333 226 383 l 415 333 m 346 651 q 185 701 242 651 q 124 849 129 751 l 258 849 q 286 785 264 807 q 346 763 308 763 q 433 849 425 763 l 568 849 q 503 701 560 751 q 346 651 446 651 z "},"ě":{"ha":633,"x_min":25,"x_max":606,"o":"m 606 246 l 222 246 q 274 166 235 193 q 372 139 314 139 q 544 199 468 139 l 601 76 q 487 9 553 33 q 344 -15 421 -15 q 112 63 199 -15 q 25 278 25 140 q 64 431 25 364 q 172 534 103 497 q 329 571 242 571 q 532 492 458 571 q 606 283 606 413 l 606 246 m 415 333 q 391 410 415 382 q 322 438 367 438 q 253 410 279 438 q 219 333 226 383 l 415 333 m 132 882 l 268 882 l 351 725 l 435 882 l 558 882 l 463 640 l 240 640 l 132 882 z "},"ȩ":{"ha":633,"x_min":25,"x_max":606,"o":"m 606 246 l 222 246 q 274 166 235 193 q 372 139 314 139 q 544 199 468 139 l 601 76 q 508 17 561 40 q 393 -12 454 -7 l 375 -79 q 451 -115 425 -86 q 478 -181 478 -143 q 441 -256 478 -231 q 350 -282 404 -282 q 285 -273 318 -282 q 226 -247 253 -264 l 226 -193 q 306 -211 272 -211 q 354 -168 354 -211 q 274 -122 354 -126 l 317 -14 q 103 70 182 -7 q 25 278 25 147 q 64 431 25 364 q 172 534 103 497 q 329 571 242 571 q 532 492 458 571 q 606 283 606 413 l 606 246 m 415 333 q 391 410 415 382 q 322 438 367 438 q 253 410 279 438 q 219 333 226 383 l 415 333 z "},"ḝ":{"ha":633,"x_min":25,"x_max":606,"o":"m 346 651 q 185 701 242 651 q 124 849 129 751 l 258 849 q 286 785 264 807 q 346 763 308 763 q 433 849 425 763 l 568 849 q 503 701 560 751 q 346 651 446 651 m 606 246 l 222 246 q 274 166 235 193 q 372 139 314 139 q 544 199 468 139 l 601 76 q 508 17 561 40 q 393 -12 454 -7 l 375 -79 q 451 -115 425 -86 q 478 -181 478 -143 q 441 -256 478 -231 q 350 -282 404 -282 q 285 -273 318 -282 q 226 -247 253 -264 l 226 -193 q 306 -211 272 -211 q 354 -168 354 -211 q 274 -122 354 -126 l 317 -14 q 103 70 182 -7 q 25 278 25 147 q 64 431 25 364 q 172 534 103 497 q 329 571 242 571 q 532 492 458 571 q 606 283 606 413 l 606 246 m 415 333 q 391 410 415 382 q 322 438 367 438 q 253 410 279 438 q 219 333 226 383 l 415 333 z "},"ê":{"ha":633,"x_min":25,"x_max":606,"o":"m 606 246 l 222 246 q 274 166 235 193 q 372 139 314 139 q 544 199 468 139 l 601 76 q 487 9 553 33 q 344 -15 421 -15 q 112 63 199 -15 q 25 278 25 140 q 64 431 25 364 q 172 534 103 497 q 329 571 242 571 q 532 492 458 571 q 606 283 606 413 l 606 246 m 415 333 q 391 410 415 382 q 322 438 367 438 q 253 410 279 438 q 219 333 226 383 l 415 333 m 242 883 l 453 883 l 569 640 l 440 640 l 346 799 l 251 640 l 122 640 l 242 883 z "},"ế":{"ha":633,"x_min":25,"x_max":735,"o":"m 606 246 l 222 246 q 274 166 235 193 q 372 139 314 139 q 544 199 468 139 l 601 76 q 487 9 553 33 q 344 -15 421 -15 q 112 63 199 -15 q 25 278 25 140 q 64 431 25 364 q 172 534 103 497 q 329 571 242 571 q 532 492 458 571 q 606 283 606 413 l 606 246 m 415 333 q 391 410 415 382 q 322 438 367 438 q 253 410 279 438 q 219 333 226 383 l 415 333 m 585 958 l 735 958 l 622 769 l 525 769 l 585 958 m 251 831 l 442 831 l 560 640 l 431 640 l 346 747 l 261 640 l 132 640 l 251 831 z "},"ệ":{"ha":633,"x_min":25,"x_max":606,"o":"m 606 246 l 222 246 q 274 166 235 193 q 372 139 314 139 q 544 199 468 139 l 601 76 q 487 9 553 33 q 344 -15 421 -15 q 112 63 199 -15 q 25 278 25 140 q 64 431 25 364 q 172 534 103 497 q 329 571 242 571 q 532 492 458 571 q 606 283 606 413 l 606 246 m 415 333 q 391 410 415 382 q 322 438 367 438 q 253 410 279 438 q 219 333 226 383 l 415 333 m 358 -269 q 283 -242 313 -269 q 254 -174 254 -215 q 283 -103 254 -129 q 358 -78 311 -78 q 434 -105 406 -78 q 463 -176 463 -132 q 433 -243 463 -217 q 358 -269 404 -269 m 242 883 l 453 883 l 569 640 l 440 640 l 346 799 l 251 640 l 122 640 l 242 883 z "},"ề":{"ha":633,"x_min":25,"x_max":665,"o":"m 606 246 l 222 246 q 274 166 235 193 q 372 139 314 139 q 544 199 468 139 l 601 76 q 487 9 553 33 q 344 -15 421 -15 q 112 63 199 -15 q 25 278 25 140 q 64 431 25 364 q 172 534 103 497 q 329 571 242 571 q 532 492 458 571 q 606 283 606 413 l 606 246 m 415 333 q 391 410 415 382 q 322 438 367 438 q 253 410 279 438 q 219 333 226 383 l 415 333 m 568 769 l 456 958 l 606 958 l 665 769 l 568 769 m 251 831 l 442 831 l 560 640 l 431 640 l 346 747 l 261 640 l 132 640 l 251 831 z "},"ể":{"ha":633,"x_min":25,"x_max":678,"o":"m 606 246 l 222 246 q 274 166 235 193 q 372 139 314 139 q 544 199 468 139 l 601 76 q 487 9 553 33 q 344 -15 421 -15 q 112 63 199 -15 q 25 278 25 140 q 64 431 25 364 q 172 534 103 497 q 329 571 242 571 q 532 492 458 571 q 606 283 606 413 l 606 246 m 415 333 q 391 410 415 382 q 322 438 367 438 q 253 410 279 438 q 219 333 226 383 l 415 333 m 528 808 q 563 831 551 818 q 574 861 574 843 q 558 894 574 882 q 517 906 543 906 q 438 882 476 906 l 414 950 q 546 997 471 997 q 642 966 606 997 q 678 883 678 935 q 547 747 678 781 l 528 808 m 251 831 l 442 831 l 560 640 l 431 640 l 346 747 l 261 640 l 132 640 l 251 831 z "},"ễ":{"ha":633,"x_min":25,"x_max":606,"o":"m 606 246 l 222 246 q 274 166 235 193 q 372 139 314 139 q 544 199 468 139 l 601 76 q 487 9 553 33 q 344 -15 421 -15 q 112 63 199 -15 q 25 278 25 140 q 64 431 25 364 q 172 534 103 497 q 329 571 242 571 q 532 492 458 571 q 606 283 606 413 l 606 246 m 415 333 q 391 410 415 382 q 322 438 367 438 q 253 410 279 438 q 219 333 226 383 l 415 333 m 450 886 q 401 894 424 886 q 343 918 378 901 q 297 938 315 931 q 260 944 278 944 q 204 888 210 944 l 107 888 q 151 1019 114 978 q 244 1061 189 1061 q 291 1053 268 1061 q 347 1031 314 1046 q 394 1011 375 1018 q 431 1004 413 1004 q 489 1054 481 1004 l 585 1054 q 450 886 571 886 m 251 831 l 442 831 l 560 640 l 431 640 l 346 747 l 261 640 l 132 640 l 251 831 z "},"ȅ":{"ha":633,"x_min":11,"x_max":606,"o":"m 606 246 l 222 246 q 274 166 235 193 q 372 139 314 139 q 544 199 468 139 l 601 76 q 487 9 553 33 q 344 -15 421 -15 q 112 63 199 -15 q 25 278 25 140 q 64 431 25 364 q 172 534 103 497 q 329 571 242 571 q 532 492 458 571 q 606 283 606 413 l 606 246 m 415 333 q 391 410 415 382 q 322 438 367 438 q 253 410 279 438 q 219 333 226 383 l 415 333 m 11 888 l 203 888 l 265 644 l 147 644 l 11 888 m 281 888 l 472 888 l 535 644 l 415 644 l 281 888 z "},"ë":{"ha":633,"x_min":25,"x_max":626,"o":"m 606 246 l 222 246 q 274 166 235 193 q 372 139 314 139 q 544 199 468 139 l 601 76 q 487 9 553 33 q 344 -15 421 -15 q 112 63 199 -15 q 25 278 25 140 q 64 431 25 364 q 172 534 103 497 q 329 571 242 571 q 532 492 458 571 q 606 283 606 413 l 606 246 m 415 333 q 391 410 415 382 q 322 438 367 438 q 253 410 279 438 q 219 333 226 383 l 415 333 m 175 664 q 97 692 128 664 q 65 768 65 719 q 97 845 65 817 q 175 874 128 874 q 253 845 221 874 q 285 768 285 817 q 253 692 285 719 q 175 664 221 664 m 517 664 q 440 692 471 664 q 408 768 408 719 q 440 845 408 817 q 517 874 471 874 q 595 845 564 874 q 626 768 626 817 q 595 692 626 719 q 517 664 564 664 z "},"ė":{"ha":633,"x_min":25,"x_max":606,"o":"m 606 246 l 222 246 q 274 166 235 193 q 372 139 314 139 q 544 199 468 139 l 601 76 q 487 9 553 33 q 344 -15 421 -15 q 112 63 199 -15 q 25 278 25 140 q 64 431 25 364 q 172 534 103 497 q 329 571 242 571 q 532 492 458 571 q 606 283 606 413 l 606 246 m 415 333 q 391 410 415 382 q 322 438 367 438 q 253 410 279 438 q 219 333 226 383 l 415 333 m 346 664 q 263 695 294 664 q 231 775 231 726 q 263 854 231 824 q 346 885 294 885 q 428 854 397 885 q 460 775 460 824 q 429 695 461 726 q 346 664 397 664 z "},"ẹ":{"ha":633,"x_min":25,"x_max":606,"o":"m 606 246 l 222 246 q 274 166 235 193 q 372 139 314 139 q 544 199 468 139 l 601 76 q 487 9 553 33 q 344 -15 421 -15 q 112 63 199 -15 q 25 278 25 140 q 64 431 25 364 q 172 534 103 497 q 329 571 242 571 q 532 492 458 571 q 606 283 606 413 l 606 246 m 415 333 q 391 410 415 382 q 322 438 367 438 q 253 410 279 438 q 219 333 226 383 l 415 333 m 358 -269 q 283 -242 313 -269 q 254 -174 254 -215 q 283 -103 254 -129 q 358 -78 311 -78 q 434 -105 406 -78 q 463 -176 463 -132 q 433 -243 463 -217 q 358 -269 404 -269 z "},"è":{"ha":633,"x_min":25,"x_max":606,"o":"m 606 246 l 222 246 q 274 166 235 193 q 372 139 314 139 q 544 199 468 139 l 601 76 q 487 9 553 33 q 344 -15 421 -15 q 112 63 199 -15 q 25 278 25 140 q 64 431 25 364 q 172 534 103 497 q 329 571 242 571 q 532 492 458 571 q 606 283 606 413 l 606 246 m 415 333 q 391 410 415 382 q 322 438 367 438 q 253 410 279 438 q 219 333 226 383 l 415 333 m 150 885 l 342 885 l 401 644 l 283 644 l 150 885 z "},"ẻ":{"ha":633,"x_min":25,"x_max":606,"o":"m 606 246 l 222 246 q 274 166 235 193 q 372 139 314 139 q 544 199 468 139 l 601 76 q 487 9 553 33 q 344 -15 421 -15 q 112 63 199 -15 q 25 278 25 140 q 64 431 25 364 q 172 534 103 497 q 329 571 242 571 q 532 492 458 571 q 606 283 606 413 l 606 246 m 415 333 q 391 410 415 382 q 322 438 367 438 q 253 410 279 438 q 219 333 226 383 l 415 333 m 318 678 q 353 700 342 688 q 364 731 364 713 q 349 763 364 751 q 307 775 333 775 q 228 751 267 775 l 204 819 q 336 867 261 867 q 432 835 396 867 q 468 753 468 804 q 338 617 468 650 l 318 678 z "},"ȇ":{"ha":633,"x_min":25,"x_max":606,"o":"m 606 246 l 222 246 q 274 166 235 193 q 372 139 314 139 q 544 199 468 139 l 601 76 q 487 9 553 33 q 344 -15 421 -15 q 112 63 199 -15 q 25 278 25 140 q 64 431 25 364 q 172 534 103 497 q 329 571 242 571 q 532 492 458 571 q 606 283 606 413 l 606 246 m 415 333 q 391 410 415 382 q 322 438 367 438 q 253 410 279 438 q 219 333 226 383 l 415 333 m 131 621 q 192 779 136 724 q 346 835 249 835 q 499 779 443 835 q 560 621 556 724 l 436 621 q 346 707 424 707 q 285 685 308 707 q 256 621 263 663 l 131 621 z "},"ē":{"ha":633,"x_min":25,"x_max":606,"o":"m 606 246 l 222 246 q 274 166 235 193 q 372 139 314 139 q 544 199 468 139 l 601 76 q 487 9 553 33 q 344 -15 421 -15 q 112 63 199 -15 q 25 278 25 140 q 64 431 25 364 q 172 534 103 497 q 329 571 242 571 q 532 492 458 571 q 606 283 606 413 l 606 246 m 415 333 q 391 410 415 382 q 322 438 367 438 q 253 410 279 438 q 219 333 226 383 l 415 333 m 164 761 l 528 761 l 528 651 l 164 651 l 164 761 z "},"ḗ":{"ha":633,"x_min":25,"x_max":606,"o":"m 606 246 l 222 246 q 274 166 235 193 q 372 139 314 139 q 544 199 468 139 l 601 76 q 487 9 553 33 q 344 -15 421 -15 q 112 63 199 -15 q 25 278 25 140 q 64 431 25 364 q 172 534 103 497 q 329 571 242 571 q 532 492 458 571 q 606 283 606 413 l 606 246 m 415 333 q 391 410 415 382 q 322 438 367 438 q 253 410 279 438 q 219 333 226 383 l 415 333 m 164 761 l 528 761 l 528 651 l 164 651 l 164 761 m 347 1086 l 539 1086 l 404 846 l 288 846 l 347 1086 z "},"ḕ":{"ha":633,"x_min":25,"x_max":606,"o":"m 606 246 l 222 246 q 274 166 235 193 q 372 139 314 139 q 544 199 468 139 l 601 76 q 487 9 553 33 q 344 -15 421 -15 q 112 63 199 -15 q 25 278 25 140 q 64 431 25 364 q 172 534 103 497 q 329 571 242 571 q 532 492 458 571 q 606 283 606 413 l 606 246 m 415 333 q 391 410 415 382 q 322 438 367 438 q 253 410 279 438 q 219 333 226 383 l 415 333 m 164 761 l 528 761 l 528 651 l 164 651 l 164 761 m 150 1086 l 342 1086 l 401 846 l 283 846 l 150 1086 z "},"ę":{"ha":633,"x_min":25,"x_max":606,"o":"m 606 246 l 222 246 q 274 166 235 193 q 372 139 314 139 q 544 199 468 139 l 601 76 q 411 -10 522 7 q 374 -63 386 -40 q 363 -108 363 -86 q 382 -151 363 -135 q 435 -167 401 -167 q 493 -156 463 -167 l 493 -240 q 385 -265 439 -265 q 292 -233 326 -265 q 258 -151 258 -201 q 329 -15 258 -83 q 107 67 189 -11 q 25 278 25 144 q 64 431 25 364 q 172 534 103 497 q 329 571 242 571 q 532 492 458 571 q 606 283 606 413 l 606 246 m 415 333 q 391 410 415 382 q 322 438 367 438 q 253 410 279 438 q 219 333 226 383 l 415 333 z "},"ẽ":{"ha":633,"x_min":25,"x_max":606,"o":"m 606 246 l 222 246 q 274 166 235 193 q 372 139 314 139 q 544 199 468 139 l 601 76 q 487 9 553 33 q 344 -15 421 -15 q 112 63 199 -15 q 25 278 25 140 q 64 431 25 364 q 172 534 103 497 q 329 571 242 571 q 532 492 458 571 q 606 283 606 413 l 606 246 m 415 333 q 391 410 415 382 q 322 438 367 438 q 253 410 279 438 q 219 333 226 383 l 415 333 m 446 654 q 387 664 417 654 q 321 692 357 674 q 273 712 292 706 q 239 718 254 718 q 183 661 189 718 l 86 661 q 138 813 94 764 q 247 861 182 861 q 303 851 275 861 q 371 824 332 842 q 415 806 393 814 q 451 797 436 797 q 510 854 501 797 l 606 854 q 555 703 597 753 q 446 654 513 654 z "},"ə":{"ha":633,"x_min":28,"x_max":607,"o":"m 301 571 q 524 494 442 571 q 607 279 607 417 q 569 126 607 193 q 464 23 532 60 q 310 -14 396 -14 q 101 65 174 -14 q 28 272 28 143 l 28 311 l 410 311 q 360 390 399 363 q 265 417 322 417 q 89 357 174 417 l 32 479 q 153 546 83 521 q 301 571 222 571 m 315 119 q 413 222 400 119 l 218 222 q 244 147 218 174 q 315 119 269 119 z "},"f":{"ha":440,"x_min":25,"x_max":585,"o":"m 25 122 l 99 122 l 99 435 l 25 435 l 25 556 l 99 556 l 99 626 q 163 792 99 729 q 354 856 228 856 q 585 682 563 856 l 428 654 q 413 714 426 693 q 368 735 399 735 q 321 710 336 735 q 306 631 306 686 l 306 556 l 440 556 l 440 435 l 306 435 l 306 122 l 403 122 l 403 0 l 25 0 l 25 122 z "},"ḟ":{"ha":440,"x_min":25,"x_max":585,"o":"m 25 122 l 99 122 l 99 435 l 25 435 l 25 556 l 99 556 l 99 626 q 163 792 99 729 q 354 856 228 856 q 585 682 563 856 l 428 654 q 413 714 426 693 q 368 735 399 735 q 321 710 336 735 q 306 631 306 686 l 306 556 l 440 556 l 440 435 l 306 435 l 306 122 l 403 122 l 403 0 l 25 0 l 25 122 m 356 950 q 272 981 304 950 q 240 1061 240 1013 q 272 1140 240 1110 q 356 1171 304 1171 q 438 1140 407 1171 q 469 1061 469 1110 q 439 981 471 1013 q 356 950 407 950 z "},"g":{"ha":743,"x_min":29,"x_max":725,"o":"m 725 556 l 725 435 l 657 435 l 657 29 q 576 -194 657 -118 q 351 -271 494 -271 q 103 -226 239 -271 l 136 -100 q 314 -132 233 -132 q 417 -98 382 -132 q 451 1 451 -64 l 451 39 q 381 1 418 14 q 294 -11 343 -11 q 101 67 172 -11 q 29 278 29 144 q 100 490 29 411 q 293 569 171 569 q 387 551 343 569 q 461 503 431 533 l 463 556 l 725 556 m 242 276 q 275 174 242 211 q 363 136 308 136 q 451 161 410 136 l 450 392 q 360 422 407 422 q 274 384 306 422 q 242 276 242 346 z "},"ǵ":{"ha":743,"x_min":29,"x_max":725,"o":"m 725 556 l 725 435 l 657 435 l 657 29 q 576 -194 657 -118 q 351 -271 494 -271 q 103 -226 239 -271 l 136 -100 q 314 -132 233 -132 q 417 -98 382 -132 q 451 1 451 -64 l 451 39 q 381 1 418 14 q 294 -11 343 -11 q 101 67 172 -11 q 29 278 29 144 q 100 490 29 411 q 293 569 171 569 q 387 551 343 569 q 461 503 431 533 l 463 556 l 725 556 m 242 276 q 275 174 242 211 q 363 136 308 136 q 451 161 410 136 l 450 392 q 360 422 407 422 q 274 384 306 422 q 242 276 242 346 m 383 885 l 575 885 l 440 644 l 324 644 l 383 885 z "},"ğ":{"ha":743,"x_min":29,"x_max":725,"o":"m 725 556 l 725 435 l 657 435 l 657 29 q 576 -194 657 -118 q 351 -271 494 -271 q 103 -226 239 -271 l 136 -100 q 314 -132 233 -132 q 417 -98 382 -132 q 451 1 451 -64 l 451 39 q 381 1 418 14 q 294 -11 343 -11 q 101 67 172 -11 q 29 278 29 144 q 100 490 29 411 q 293 569 171 569 q 387 551 343 569 q 461 503 431 533 l 463 556 l 725 556 m 242 276 q 275 174 242 211 q 363 136 308 136 q 451 161 410 136 l 450 392 q 360 422 407 422 q 274 384 306 422 q 242 276 242 346 m 382 651 q 222 701 278 651 q 160 849 165 751 l 294 849 q 322 785 300 807 q 382 763 344 763 q 469 849 461 763 l 604 849 q 539 701 596 751 q 382 651 482 651 z "},"ǧ":{"ha":743,"x_min":29,"x_max":725,"o":"m 725 556 l 725 435 l 657 435 l 657 29 q 576 -194 657 -118 q 351 -271 494 -271 q 103 -226 239 -271 l 136 -100 q 314 -132 233 -132 q 417 -98 382 -132 q 451 1 451 -64 l 451 39 q 381 1 418 14 q 294 -11 343 -11 q 101 67 172 -11 q 29 278 29 144 q 100 490 29 411 q 293 569 171 569 q 387 551 343 569 q 461 503 431 533 l 463 556 l 725 556 m 242 276 q 275 174 242 211 q 363 136 308 136 q 451 161 410 136 l 450 392 q 360 422 407 422 q 274 384 306 422 q 242 276 242 346 m 168 882 l 304 882 l 388 725 l 471 882 l 594 882 l 499 640 l 276 640 l 168 882 z "},"ĝ":{"ha":743,"x_min":29,"x_max":725,"o":"m 725 556 l 725 435 l 657 435 l 657 29 q 576 -194 657 -118 q 351 -271 494 -271 q 103 -226 239 -271 l 136 -100 q 314 -132 233 -132 q 417 -98 382 -132 q 451 1 451 -64 l 451 39 q 381 1 418 14 q 294 -11 343 -11 q 101 67 172 -11 q 29 278 29 144 q 100 490 29 411 q 293 569 171 569 q 387 551 343 569 q 461 503 431 533 l 463 556 l 725 556 m 242 276 q 275 174 242 211 q 363 136 308 136 q 451 161 410 136 l 450 392 q 360 422 407 422 q 274 384 306 422 q 242 276 242 346 m 278 883 l 489 883 l 606 640 l 476 640 l 382 799 l 288 640 l 158 640 l 278 883 z "},"ģ":{"ha":743,"x_min":29,"x_max":725,"o":"m 725 556 l 725 435 l 657 435 l 657 29 q 576 -194 657 -118 q 351 -271 494 -271 q 103 -226 239 -271 l 136 -100 q 314 -132 233 -132 q 417 -98 382 -132 q 451 1 451 -64 l 451 39 q 381 1 418 14 q 294 -11 343 -11 q 101 67 172 -11 q 29 278 29 144 q 100 490 29 411 q 293 569 171 569 q 387 551 343 569 q 461 503 431 533 l 463 556 l 725 556 m 242 276 q 275 174 242 211 q 363 136 308 136 q 451 161 410 136 l 450 392 q 360 422 407 422 q 274 384 306 422 q 242 276 242 346 m 469 943 q 405 913 425 939 q 385 833 385 888 l 479 833 l 479 671 l 283 671 l 283 804 q 326 961 283 911 q 469 1011 368 1011 l 469 943 z "},"ġ":{"ha":743,"x_min":29,"x_max":725,"o":"m 725 556 l 725 435 l 657 435 l 657 29 q 576 -194 657 -118 q 351 -271 494 -271 q 103 -226 239 -271 l 136 -100 q 314 -132 233 -132 q 417 -98 382 -132 q 451 1 451 -64 l 451 39 q 381 1 418 14 q 294 -11 343 -11 q 101 67 172 -11 q 29 278 29 144 q 100 490 29 411 q 293 569 171 569 q 387 551 343 569 q 461 503 431 533 l 463 556 l 725 556 m 242 276 q 275 174 242 211 q 363 136 308 136 q 451 161 410 136 l 450 392 q 360 422 407 422 q 274 384 306 422 q 242 276 242 346 m 382 664 q 299 695 331 664 q 267 775 267 726 q 299 854 267 824 q 382 885 331 885 q 465 854 433 885 q 496 775 496 824 q 465 695 497 726 q 382 664 433 664 z "},"ḡ":{"ha":743,"x_min":29,"x_max":725,"o":"m 725 556 l 725 435 l 657 435 l 657 29 q 576 -194 657 -118 q 351 -271 494 -271 q 103 -226 239 -271 l 136 -100 q 314 -132 233 -132 q 417 -98 382 -132 q 451 1 451 -64 l 451 39 q 381 1 418 14 q 294 -11 343 -11 q 101 67 172 -11 q 29 278 29 144 q 100 490 29 411 q 293 569 171 569 q 387 551 343 569 q 461 503 431 533 l 463 556 l 725 556 m 242 276 q 275 174 242 211 q 363 136 308 136 q 451 161 410 136 l 450 392 q 360 422 407 422 q 274 384 306 422 q 242 276 242 346 m 200 761 l 564 761 l 564 651 l 200 651 l 200 761 z "},"h":{"ha":750,"x_min":15,"x_max":736,"o":"m 736 122 l 736 0 l 400 0 l 400 122 l 458 122 l 458 343 q 439 408 458 385 q 383 431 419 431 q 293 404 342 431 l 293 122 l 351 122 l 351 0 l 15 0 l 15 122 l 86 122 l 86 694 l 17 694 l 17 817 l 293 817 l 293 513 q 475 569 383 569 q 613 515 563 569 q 664 376 664 461 l 664 122 l 736 122 z "},"ħ":{"ha":750,"x_min":8,"x_max":736,"o":"m 736 122 l 736 0 l 400 0 l 400 122 l 458 122 l 458 343 q 439 408 458 385 q 383 431 419 431 q 293 404 342 431 l 293 122 l 351 122 l 351 0 l 15 0 l 15 122 l 86 122 l 86 694 l 17 694 l 17 817 l 293 817 l 293 513 q 475 569 383 569 q 613 515 563 569 q 664 376 664 461 l 664 122 l 736 122 m 8 1022 l 372 1022 l 372 913 l 8 913 l 8 1022 z "},"ḫ":{"ha":750,"x_min":15,"x_max":736,"o":"m 736 122 l 736 0 l 400 0 l 400 122 l 458 122 l 458 343 q 439 408 458 385 q 383 431 419 431 q 293 404 342 431 l 293 122 l 351 122 l 351 0 l 15 0 l 15 122 l 86 122 l 86 694 l 17 694 l 17 817 l 293 817 l 293 513 q 475 569 383 569 q 613 515 563 569 q 664 376 664 461 l 664 122 l 736 122 m 376 -275 q 216 -225 272 -275 q 154 -78 160 -175 l 289 -78 q 317 -142 294 -119 q 376 -164 339 -164 q 464 -78 456 -164 l 599 -78 q 533 -225 590 -175 q 376 -275 476 -275 z "},"ȟ":{"ha":750,"x_min":-24,"x_max":736,"o":"m 736 122 l 736 0 l 400 0 l 400 122 l 458 122 l 458 343 q 439 408 458 385 q 383 431 419 431 q 293 404 342 431 l 293 122 l 351 122 l 351 0 l 15 0 l 15 122 l 86 122 l 86 694 l 17 694 l 17 817 l 293 817 l 293 513 q 475 569 383 569 q 613 515 563 569 q 664 376 664 461 l 664 122 l 736 122 m -24 1143 l 113 1143 l 196 986 l 279 1143 l 403 1143 l 307 901 l 85 901 l -24 1143 z "},"ĥ":{"ha":750,"x_min":-33,"x_max":736,"o":"m 736 122 l 736 0 l 400 0 l 400 122 l 458 122 l 458 343 q 439 408 458 385 q 383 431 419 431 q 293 404 342 431 l 293 122 l 351 122 l 351 0 l 15 0 l 15 122 l 86 122 l 86 694 l 17 694 l 17 817 l 293 817 l 293 513 q 475 569 383 569 q 613 515 563 569 q 664 376 664 461 l 664 122 l 736 122 m 86 1144 l 297 1144 l 414 901 l 285 901 l 190 1060 l 96 901 l -33 901 l 86 1144 z "},"ḥ":{"ha":750,"x_min":15,"x_max":736,"o":"m 736 122 l 736 0 l 400 0 l 400 122 l 458 122 l 458 343 q 439 408 458 385 q 383 431 419 431 q 293 404 342 431 l 293 122 l 351 122 l 351 0 l 15 0 l 15 122 l 86 122 l 86 694 l 17 694 l 17 817 l 293 817 l 293 513 q 475 569 383 569 q 613 515 563 569 q 664 376 664 461 l 664 122 l 736 122 m 376 -269 q 301 -242 331 -269 q 272 -174 272 -215 q 301 -103 272 -129 q 376 -78 329 -78 q 452 -105 424 -78 q 481 -176 481 -132 q 451 -243 481 -217 q 376 -269 422 -269 z "},"i":{"ha":389,"x_min":22,"x_max":372,"o":"m 182 658 q 94 690 128 658 q 61 774 61 722 q 94 857 61 825 q 182 889 128 889 q 269 858 236 889 q 301 774 301 826 q 269 690 303 722 q 182 658 236 658 m 22 122 l 94 122 l 94 435 l 22 435 l 22 556 l 301 556 l 301 122 l 372 122 l 372 0 l 22 0 l 22 122 z "},"ı":{"ha":401,"x_min":22,"x_max":385,"o":"m 22 131 l 107 131 l 107 424 l 29 424 l 29 556 l 310 556 l 310 131 l 385 131 l 385 0 l 22 0 l 22 131 z "},"í":{"ha":401,"x_min":22,"x_max":399,"o":"m 22 131 l 107 131 l 107 424 l 29 424 l 29 556 l 310 556 l 310 131 l 385 131 l 385 0 l 22 0 l 22 131 m 207 885 l 399 885 l 264 644 l 147 644 l 207 885 z "},"ĭ":{"ha":401,"x_min":-17,"x_max":428,"o":"m 22 131 l 107 131 l 107 424 l 29 424 l 29 556 l 310 556 l 310 131 l 385 131 l 385 0 l 22 0 l 22 131 m 206 651 q 45 701 101 651 q -17 849 -11 751 l 118 849 q 146 785 124 807 q 206 763 168 763 q 293 849 285 763 l 428 849 q 363 701 419 751 q 206 651 306 651 z "},"ǐ":{"ha":401,"x_min":-8,"x_max":418,"o":"m 22 131 l 107 131 l 107 424 l 29 424 l 29 556 l 310 556 l 310 131 l 385 131 l 385 0 l 22 0 l 22 131 m -8 882 l 128 882 l 211 725 l 294 882 l 418 882 l 322 640 l 100 640 l -8 882 z "},"î":{"ha":401,"x_min":-18,"x_max":429,"o":"m 22 131 l 107 131 l 107 424 l 29 424 l 29 556 l 310 556 l 310 131 l 385 131 l 385 0 l 22 0 l 22 131 m 101 883 l 313 883 l 429 640 l 300 640 l 206 799 l 111 640 l -18 640 l 101 883 z "},"ȉ":{"ha":401,"x_min":-129,"x_max":394,"o":"m 22 131 l 107 131 l 107 424 l 29 424 l 29 556 l 310 556 l 310 131 l 385 131 l 385 0 l 22 0 l 22 131 m -129 888 l 63 888 l 125 644 l 7 644 l -129 888 m 140 888 l 332 888 l 394 644 l 275 644 l 140 888 z "},"ï":{"ha":401,"x_min":-75,"x_max":486,"o":"m 22 131 l 107 131 l 107 424 l 29 424 l 29 556 l 310 556 l 310 131 l 385 131 l 385 0 l 22 0 l 22 131 m 35 664 q -44 692 -12 664 q -75 768 -75 719 q -44 845 -75 817 q 35 874 -12 874 q 113 845 81 874 q 144 768 144 817 q 113 692 144 719 q 35 664 81 664 m 376 664 q 299 692 331 664 q 268 768 268 719 q 299 845 268 817 q 376 874 331 874 q 455 845 424 874 q 486 768 486 817 q 455 692 486 719 q 376 664 424 664 z "},"ḯ":{"ha":401,"x_min":-75,"x_max":486,"o":"m 22 131 l 107 131 l 107 424 l 29 424 l 29 556 l 310 556 l 310 131 l 385 131 l 385 0 l 22 0 l 22 131 m 35 664 q -44 692 -12 664 q -75 768 -75 719 q -44 845 -75 817 q 35 874 -12 874 q 113 845 81 874 q 144 768 144 817 q 113 692 144 719 q 35 664 81 664 m 376 664 q 299 692 331 664 q 268 768 268 719 q 299 845 268 817 q 376 874 331 874 q 455 845 424 874 q 486 768 486 817 q 455 692 486 719 q 376 664 424 664 m 207 1171 l 399 1171 l 264 931 l 147 931 l 207 1171 z "},"ị":{"ha":389,"x_min":22,"x_max":372,"o":"m 182 658 q 94 690 128 658 q 61 774 61 722 q 94 857 61 825 q 182 889 128 889 q 269 858 236 889 q 301 774 301 826 q 269 690 303 722 q 182 658 236 658 m 22 122 l 94 122 l 94 435 l 22 435 l 22 556 l 301 556 l 301 122 l 372 122 l 372 0 l 22 0 l 22 122 m 199 -269 q 124 -242 153 -269 q 94 -174 94 -215 q 123 -103 94 -129 q 199 -78 151 -78 q 274 -105 246 -78 q 303 -176 303 -132 q 274 -243 303 -217 q 199 -269 244 -269 z "},"ì":{"ha":401,"x_min":10,"x_max":385,"o":"m 22 131 l 107 131 l 107 424 l 29 424 l 29 556 l 310 556 l 310 131 l 385 131 l 385 0 l 22 0 l 22 131 m 10 885 l 201 885 l 261 644 l 143 644 l 10 885 z "},"ỉ":{"ha":401,"x_min":22,"x_max":385,"o":"m 22 131 l 107 131 l 107 424 l 29 424 l 29 556 l 310 556 l 310 131 l 385 131 l 385 0 l 22 0 l 22 131 m 178 678 q 213 700 201 688 q 224 731 224 713 q 208 763 224 751 q 167 775 193 775 q 88 751 126 775 l 64 819 q 196 867 121 867 q 292 835 256 867 q 328 753 328 804 q 197 617 328 650 l 178 678 z "},"ȋ":{"ha":401,"x_min":-10,"x_max":419,"o":"m 22 131 l 107 131 l 107 424 l 29 424 l 29 556 l 310 556 l 310 131 l 385 131 l 385 0 l 22 0 l 22 131 m -10 621 q 52 779 -4 724 q 206 835 108 835 q 359 779 303 835 q 419 621 415 724 l 296 621 q 206 707 283 707 q 145 685 168 707 q 115 621 122 663 l -10 621 z "},"ĳ":{"ha":803,"x_min":22,"x_max":746,"o":"m 182 658 q 94 690 128 658 q 61 774 61 722 q 94 857 61 825 q 182 889 128 889 q 269 858 236 889 q 301 774 301 826 q 269 690 303 722 q 182 658 236 658 m 22 122 l 94 122 l 94 435 l 22 435 l 22 556 l 301 556 l 301 122 l 372 122 l 372 0 l 22 0 l 22 122 m 621 660 q 534 691 567 660 q 501 775 501 722 q 534 859 501 828 q 621 890 567 890 q 709 859 676 890 q 742 775 742 828 q 709 691 742 722 q 621 660 676 660 m 381 -76 l 433 -76 q 515 -51 492 -76 q 539 35 539 -26 l 539 424 l 436 424 l 436 556 l 746 556 l 746 61 q 674 -160 746 -90 q 453 -229 603 -229 l 381 -229 l 381 -76 z "},"ī":{"ha":401,"x_min":22,"x_max":388,"o":"m 22 131 l 107 131 l 107 424 l 29 424 l 29 556 l 310 556 l 310 131 l 385 131 l 385 0 l 22 0 l 22 131 m 24 761 l 388 761 l 388 651 l 24 651 l 24 761 z "},"į":{"ha":401,"x_min":22,"x_max":385,"o":"m 22 131 l 107 131 l 107 424 l 29 424 l 29 556 l 310 556 l 310 131 l 385 131 l 385 0 l 22 0 l 22 131 m 186 -268 q 94 -236 128 -268 q 60 -154 60 -204 q 151 0 60 -76 l 224 0 q 178 -60 193 -35 q 164 -111 164 -86 q 183 -153 164 -137 q 236 -169 203 -169 q 294 -158 264 -169 l 294 -243 q 186 -268 240 -268 m 206 664 q 122 695 154 664 q 90 775 90 726 q 122 854 90 824 q 206 885 154 885 q 288 854 257 885 q 319 775 319 824 q 289 695 321 726 q 206 664 257 664 z "},"ĩ":{"ha":401,"x_min":-54,"x_max":465,"o":"m 22 131 l 107 131 l 107 424 l 29 424 l 29 556 l 310 556 l 310 131 l 385 131 l 385 0 l 22 0 l 22 131 m 306 654 q 247 664 276 654 q 181 692 217 674 q 133 712 151 706 q 99 718 114 718 q 43 661 49 718 l -54 661 q -2 813 -46 764 q 107 861 42 861 q 163 851 135 861 q 231 824 192 842 q 274 806 253 814 q 311 797 296 797 q 369 854 361 797 l 465 854 q 415 703 457 753 q 306 654 372 654 z "},"j":{"ha":414,"x_min":-8,"x_max":357,"o":"m 232 660 q 145 691 178 660 q 113 775 113 722 q 145 859 113 828 q 232 890 178 890 q 320 859 288 890 q 353 775 353 828 q 320 691 353 722 q 232 660 288 660 m -8 -76 l 44 -76 q 126 -51 103 -76 q 150 35 150 -26 l 150 424 l 47 424 l 47 556 l 357 556 l 357 61 q 285 -160 357 -90 q 64 -229 214 -229 l -8 -229 l -8 -76 z "},"ȷ":{"ha":418,"x_min":-8,"x_max":361,"o":"m -8 -76 l 44 -76 q 126 -51 103 -76 q 150 36 150 -25 l 150 424 l 47 424 l 47 556 l 361 556 l 361 64 q 289 -158 361 -87 q 64 -229 217 -229 l -8 -229 l -8 -76 z "},"ǰ":{"ha":418,"x_min":-8,"x_max":440,"o":"m -8 -76 l 44 -76 q 126 -51 103 -76 q 150 36 150 -25 l 150 424 l 47 424 l 47 556 l 361 556 l 361 64 q 289 -158 361 -87 q 64 -229 217 -229 l -8 -229 l -8 -76 m 14 882 l 150 882 l 233 725 l 317 882 l 440 882 l 344 640 l 122 640 l 14 882 z "},"ĵ":{"ha":418,"x_min":-8,"x_max":451,"o":"m -8 -76 l 44 -76 q 126 -51 103 -76 q 150 36 150 -25 l 150 424 l 47 424 l 47 556 l 361 556 l 361 64 q 289 -158 361 -87 q 64 -229 217 -229 l -8 -229 l -8 -76 m 124 883 l 335 883 l 451 640 l 322 640 l 228 799 l 133 640 l 4 640 l 124 883 z "},"k":{"ha":743,"x_min":22,"x_max":726,"o":"m 22 122 l 94 122 l 94 694 l 22 694 l 22 817 l 296 817 l 296 296 l 476 435 l 406 435 l 406 556 l 721 556 l 721 435 l 664 435 l 497 304 l 667 122 l 726 122 l 726 0 l 532 0 l 296 272 l 296 122 l 364 122 l 364 0 l 22 0 l 22 122 z "},"ǩ":{"ha":743,"x_min":-18,"x_max":726,"o":"m 22 122 l 94 122 l 94 694 l 22 694 l 22 817 l 296 817 l 296 296 l 476 435 l 406 435 l 406 556 l 721 556 l 721 435 l 664 435 l 497 304 l 667 122 l 726 122 l 726 0 l 532 0 l 296 272 l 296 122 l 364 122 l 364 0 l 22 0 l 22 122 m -18 1143 l 118 1143 l 201 986 l 285 1143 l 408 1143 l 313 901 l 90 901 l -18 1143 z "},"ķ":{"ha":743,"x_min":22,"x_max":726,"o":"m 22 122 l 94 122 l 94 694 l 22 694 l 22 817 l 296 817 l 296 296 l 476 435 l 406 435 l 406 556 l 721 556 l 721 435 l 664 435 l 497 304 l 667 122 l 726 122 l 726 0 l 532 0 l 296 272 l 296 122 l 364 122 l 364 0 l 22 0 l 22 122 m 321 -350 q 385 -320 365 -346 q 406 -240 406 -294 l 311 -240 l 311 -78 l 507 -78 l 507 -211 q 465 -368 507 -318 q 321 -418 422 -418 l 321 -350 z "},"ĸ":{"ha":872,"x_min":86,"x_max":889,"o":"m 889 132 l 889 0 l 713 0 l 390 265 l 390 132 l 454 132 l 454 0 l 88 0 l 88 132 l 186 132 l 186 415 l 86 415 l 86 546 l 390 546 l 390 274 l 567 415 l 486 415 l 486 546 l 874 546 l 874 415 l 772 415 l 582 279 l 772 132 l 889 132 z "},"l":{"ha":383,"x_min":22,"x_max":365,"o":"m 22 122 l 94 122 l 94 694 l 22 694 l 22 817 l 297 817 l 297 122 l 365 122 l 365 0 l 22 0 l 22 122 z "},"ĺ":{"ha":383,"x_min":22,"x_max":389,"o":"m 22 122 l 94 122 l 94 694 l 22 694 l 22 817 l 297 817 l 297 122 l 365 122 l 365 0 l 22 0 l 22 122 m 197 1146 l 389 1146 l 254 906 l 138 906 l 197 1146 z "},"ľ":{"ha":567,"x_min":22,"x_max":554,"o":"m 22 122 l 94 122 l 94 694 l 22 694 l 22 817 l 297 817 l 297 122 l 365 122 l 365 0 l 22 0 l 22 122 m 360 533 q 431 563 408 538 q 453 647 453 589 l 358 647 l 358 817 l 554 817 l 554 676 q 510 519 554 572 q 360 465 465 465 l 360 533 z "},"ļ":{"ha":383,"x_min":22,"x_max":365,"o":"m 22 122 l 94 122 l 94 694 l 22 694 l 22 817 l 297 817 l 297 122 l 365 122 l 365 0 l 22 0 l 22 122 m 106 -350 q 170 -320 150 -346 q 190 -240 190 -294 l 96 -240 l 96 -78 l 292 -78 l 292 -211 q 249 -368 292 -318 q 106 -418 207 -418 l 106 -350 z "},"ŀ":{"ha":472,"x_min":22,"x_max":528,"o":"m 22 122 l 94 122 l 94 694 l 22 694 l 22 817 l 297 817 l 297 122 l 365 122 l 365 0 l 22 0 l 22 122 m 433 368 q 367 394 394 368 q 340 457 340 421 q 367 519 340 493 q 433 544 394 544 q 501 519 474 544 q 528 457 528 493 q 501 394 528 419 q 433 368 474 368 z "},"ḷ":{"ha":383,"x_min":22,"x_max":365,"o":"m 22 122 l 94 122 l 94 694 l 22 694 l 22 817 l 297 817 l 297 122 l 365 122 l 365 0 l 22 0 l 22 122 m 194 -269 q 119 -242 149 -269 q 90 -174 90 -215 q 119 -103 90 -129 q 194 -78 147 -78 q 270 -105 242 -78 q 299 -176 299 -132 q 269 -243 299 -217 q 194 -269 240 -269 z "},"ǉ":{"ha":797,"x_min":22,"x_max":740,"o":"m 22 122 l 94 122 l 94 694 l 22 694 l 22 817 l 297 817 l 297 122 l 365 122 l 365 0 l 22 0 l 22 122 m 615 660 q 528 691 561 660 q 496 775 496 722 q 528 859 496 828 q 615 890 561 890 q 703 859 671 890 q 736 775 736 828 q 703 691 736 722 q 615 660 671 660 m 375 -76 l 428 -76 q 510 -51 486 -76 q 533 35 533 -26 l 533 424 l 431 424 l 431 556 l 740 556 l 740 61 q 669 -160 740 -90 q 447 -229 597 -229 l 375 -229 l 375 -76 z "},"ḻ":{"ha":383,"x_min":13,"x_max":376,"o":"m 22 122 l 94 122 l 94 694 l 22 694 l 22 817 l 297 817 l 297 122 l 365 122 l 365 0 l 22 0 l 22 122 m 13 -104 l 376 -104 l 376 -214 l 13 -214 l 13 -104 z "},"ł":{"ha":382,"x_min":13,"x_max":410,"o":"m 297 411 l 297 122 l 365 122 l 365 0 l 22 0 l 22 122 l 94 122 l 94 301 l 13 257 l 13 408 l 94 454 l 94 694 l 22 694 l 22 817 l 297 817 l 297 567 l 410 629 l 410 472 l 297 411 z "},"m":{"ha":1132,"x_min":22,"x_max":1121,"o":"m 1121 122 l 1121 0 l 785 0 l 785 122 l 844 122 l 844 343 q 824 408 844 385 q 769 431 804 431 q 668 397 721 431 q 669 375 669 390 l 669 122 l 740 122 l 740 0 l 404 0 l 404 122 l 464 122 l 464 343 q 444 408 464 385 q 389 431 425 431 q 301 406 349 431 l 301 122 l 361 122 l 361 0 l 22 0 l 22 122 l 94 122 l 94 435 l 24 435 l 24 556 l 286 556 l 289 507 q 481 569 382 569 q 577 547 536 569 q 640 486 618 525 q 860 569 750 569 q 999 516 949 569 q 1050 376 1050 463 l 1050 122 l 1121 122 z "},"ṁ":{"ha":1132,"x_min":22,"x_max":1121,"o":"m 1121 122 l 1121 0 l 785 0 l 785 122 l 844 122 l 844 343 q 824 408 844 385 q 769 431 804 431 q 668 397 721 431 q 669 375 669 390 l 669 122 l 740 122 l 740 0 l 404 0 l 404 122 l 464 122 l 464 343 q 444 408 464 385 q 389 431 425 431 q 301 406 349 431 l 301 122 l 361 122 l 361 0 l 22 0 l 22 122 l 94 122 l 94 435 l 24 435 l 24 556 l 286 556 l 289 507 q 481 569 382 569 q 577 547 536 569 q 640 486 618 525 q 860 569 750 569 q 999 516 949 569 q 1050 376 1050 463 l 1050 122 l 1121 122 m 593 664 q 510 695 542 664 q 478 775 478 726 q 510 854 478 824 q 593 885 542 885 q 676 854 644 885 q 707 775 707 824 q 676 695 708 726 q 593 664 644 664 z "},"ṃ":{"ha":1132,"x_min":22,"x_max":1121,"o":"m 1121 122 l 1121 0 l 785 0 l 785 122 l 844 122 l 844 343 q 824 408 844 385 q 769 431 804 431 q 668 397 721 431 q 669 375 669 390 l 669 122 l 740 122 l 740 0 l 404 0 l 404 122 l 464 122 l 464 343 q 444 408 464 385 q 389 431 425 431 q 301 406 349 431 l 301 122 l 361 122 l 361 0 l 22 0 l 22 122 l 94 122 l 94 435 l 24 435 l 24 556 l 286 556 l 289 507 q 481 569 382 569 q 577 547 536 569 q 640 486 618 525 q 860 569 750 569 q 999 516 949 569 q 1050 376 1050 463 l 1050 122 l 1121 122 m 567 -269 q 492 -242 521 -269 q 463 -174 463 -215 q 491 -103 463 -129 q 567 -78 519 -78 q 642 -105 614 -78 q 671 -176 671 -132 q 642 -243 671 -217 q 567 -269 613 -269 z "},"n":{"ha":753,"x_min":22,"x_max":742,"o":"m 742 122 l 742 0 l 406 0 l 406 122 l 464 122 l 464 343 q 444 408 464 385 q 390 431 425 431 q 301 404 347 431 l 301 122 l 361 122 l 361 0 l 22 0 l 22 122 l 94 122 l 94 435 l 22 435 l 22 556 l 286 556 l 289 506 q 481 569 383 569 q 620 516 569 569 q 671 376 671 463 l 671 122 l 742 122 z "},"ń":{"ha":753,"x_min":22,"x_max":742,"o":"m 742 122 l 742 0 l 406 0 l 406 122 l 464 122 l 464 343 q 444 408 464 385 q 390 431 425 431 q 301 404 347 431 l 301 122 l 361 122 l 361 0 l 22 0 l 22 122 l 94 122 l 94 435 l 22 435 l 22 556 l 286 556 l 289 506 q 481 569 383 569 q 620 516 569 569 q 671 376 671 463 l 671 122 l 742 122 m 372 885 l 564 885 l 429 644 l 313 644 l 372 885 z "},"ŉ":{"ha":1092,"x_min":139,"x_max":1081,"o":"m 140 661 q 211 691 189 665 q 233 775 233 717 l 139 775 l 139 944 l 335 944 l 335 804 q 290 647 335 700 q 140 593 246 593 l 140 661 m 1081 122 l 1081 0 l 744 0 l 744 122 l 803 122 l 803 343 q 783 408 803 385 q 729 431 764 431 q 640 404 686 431 l 640 122 l 700 122 l 700 0 l 361 0 l 361 122 l 433 122 l 433 435 l 361 435 l 361 556 l 625 556 l 628 506 q 819 569 722 569 q 959 516 908 569 q 1010 376 1010 463 l 1010 122 l 1081 122 z "},"ň":{"ha":753,"x_min":22,"x_max":742,"o":"m 742 122 l 742 0 l 406 0 l 406 122 l 464 122 l 464 343 q 444 408 464 385 q 390 431 425 431 q 301 404 347 431 l 301 122 l 361 122 l 361 0 l 22 0 l 22 122 l 94 122 l 94 435 l 22 435 l 22 556 l 286 556 l 289 506 q 481 569 383 569 q 620 516 569 569 q 671 376 671 463 l 671 122 l 742 122 m 157 882 l 293 882 l 376 725 l 460 882 l 583 882 l 488 640 l 265 640 l 157 882 z "},"ņ":{"ha":753,"x_min":22,"x_max":742,"o":"m 742 122 l 742 0 l 406 0 l 406 122 l 464 122 l 464 343 q 444 408 464 385 q 390 431 425 431 q 301 404 347 431 l 301 122 l 361 122 l 361 0 l 22 0 l 22 122 l 94 122 l 94 435 l 22 435 l 22 556 l 286 556 l 289 506 q 481 569 383 569 q 620 516 569 569 q 671 376 671 463 l 671 122 l 742 122 m 297 -350 q 362 -320 342 -346 q 382 -240 382 -294 l 288 -240 l 288 -78 l 483 -78 l 483 -211 q 441 -368 483 -318 q 297 -418 399 -418 l 297 -350 z "},"ṅ":{"ha":753,"x_min":22,"x_max":742,"o":"m 742 122 l 742 0 l 406 0 l 406 122 l 464 122 l 464 343 q 444 408 464 385 q 390 431 425 431 q 301 404 347 431 l 301 122 l 361 122 l 361 0 l 22 0 l 22 122 l 94 122 l 94 435 l 22 435 l 22 556 l 286 556 l 289 506 q 481 569 383 569 q 620 516 569 569 q 671 376 671 463 l 671 122 l 742 122 m 371 664 q 288 695 319 664 q 256 775 256 726 q 288 854 256 824 q 371 885 319 885 q 453 854 422 885 q 485 775 485 824 q 454 695 486 726 q 371 664 422 664 z "},"ṇ":{"ha":753,"x_min":22,"x_max":742,"o":"m 742 122 l 742 0 l 406 0 l 406 122 l 464 122 l 464 343 q 444 408 464 385 q 390 431 425 431 q 301 404 347 431 l 301 122 l 361 122 l 361 0 l 22 0 l 22 122 l 94 122 l 94 435 l 22 435 l 22 556 l 286 556 l 289 506 q 481 569 383 569 q 620 516 569 569 q 671 376 671 463 l 671 122 l 742 122 m 386 -269 q 311 -242 340 -269 q 282 -174 282 -215 q 310 -103 282 -129 q 386 -78 339 -78 q 462 -105 433 -78 q 490 -176 490 -132 q 461 -243 490 -217 q 386 -269 432 -269 z "},"ǹ":{"ha":753,"x_min":22,"x_max":742,"o":"m 742 122 l 742 0 l 406 0 l 406 122 l 464 122 l 464 343 q 444 408 464 385 q 390 431 425 431 q 301 404 347 431 l 301 122 l 361 122 l 361 0 l 22 0 l 22 122 l 94 122 l 94 435 l 22 435 l 22 556 l 286 556 l 289 506 q 481 569 383 569 q 620 516 569 569 q 671 376 671 463 l 671 122 l 742 122 m 175 885 l 367 885 l 426 644 l 308 644 l 175 885 z "},"ŋ":{"ha":764,"x_min":22,"x_max":686,"o":"m 347 -90 q 449 -50 418 -90 q 479 89 479 -10 l 479 343 q 458 408 479 385 q 397 431 436 431 q 301 406 356 431 l 301 122 l 361 122 l 361 0 l 22 0 l 22 122 l 94 122 l 94 435 l 24 435 l 24 556 l 286 556 l 289 507 q 488 569 389 569 q 633 516 581 569 q 686 376 686 463 l 686 96 q 594 -161 686 -87 q 344 -235 501 -235 l 347 -90 z "},"ǌ":{"ha":1167,"x_min":22,"x_max":1110,"o":"m 742 122 l 742 0 l 406 0 l 406 122 l 464 122 l 464 343 q 444 408 464 385 q 390 431 425 431 q 301 404 347 431 l 301 122 l 361 122 l 361 0 l 22 0 l 22 122 l 94 122 l 94 435 l 22 435 l 22 556 l 286 556 l 289 506 q 481 569 383 569 q 620 516 569 569 q 671 376 671 463 l 671 122 l 742 122 m 985 660 q 898 691 931 660 q 865 775 865 722 q 898 859 865 828 q 985 890 931 890 q 1073 859 1040 890 q 1106 775 1106 828 q 1073 691 1106 722 q 985 660 1040 660 m 744 -76 l 797 -76 q 879 -51 856 -76 q 903 35 903 -26 l 903 424 l 800 424 l 800 556 l 1110 556 l 1110 61 q 1038 -160 1110 -90 q 817 -229 967 -229 l 744 -229 l 744 -76 z "},"ṉ":{"ha":753,"x_min":22,"x_max":742,"o":"m 742 122 l 742 0 l 406 0 l 406 122 l 464 122 l 464 343 q 444 408 464 385 q 390 431 425 431 q 301 404 347 431 l 301 122 l 361 122 l 361 0 l 22 0 l 22 122 l 94 122 l 94 435 l 22 435 l 22 556 l 286 556 l 289 506 q 481 569 383 569 q 620 516 569 569 q 671 376 671 463 l 671 122 l 742 122 m 204 -104 l 568 -104 l 568 -214 l 204 -214 l 204 -104 z "},"ñ":{"ha":753,"x_min":22,"x_max":742,"o":"m 742 122 l 742 0 l 406 0 l 406 122 l 464 122 l 464 343 q 444 408 464 385 q 390 431 425 431 q 301 404 347 431 l 301 122 l 361 122 l 361 0 l 22 0 l 22 122 l 94 122 l 94 435 l 22 435 l 22 556 l 286 556 l 289 506 q 481 569 383 569 q 620 516 569 569 q 671 376 671 463 l 671 122 l 742 122 m 471 654 q 412 664 442 654 q 346 692 382 674 q 298 712 317 706 q 264 718 279 718 q 208 661 214 718 l 111 661 q 163 813 119 764 q 272 861 207 861 q 328 851 300 861 q 396 824 357 842 q 440 806 418 814 q 476 797 461 797 q 535 854 526 797 l 631 854 q 580 703 622 753 q 471 654 538 654 z "},"o":{"ha":669,"x_min":25,"x_max":644,"o":"m 335 -15 q 173 22 243 -15 q 64 125 103 58 q 25 279 25 192 q 64 432 25 365 q 173 535 103 499 q 335 571 243 571 q 497 535 426 571 q 606 432 567 499 q 644 279 644 365 q 606 125 644 192 q 497 22 567 58 q 335 -15 426 -15 m 335 140 q 421 176 389 139 q 453 279 453 214 q 421 380 453 343 q 335 417 389 417 q 248 380 279 417 q 217 279 217 343 q 248 176 217 214 q 335 140 279 139 z "},"ó":{"ha":669,"x_min":25,"x_max":644,"o":"m 335 -15 q 173 22 243 -15 q 64 125 103 58 q 25 279 25 192 q 64 432 25 365 q 173 535 103 499 q 335 571 243 571 q 497 535 426 571 q 606 432 567 499 q 644 279 644 365 q 606 125 644 192 q 497 22 567 58 q 335 -15 426 -15 m 335 140 q 421 176 389 139 q 453 279 453 214 q 421 380 453 343 q 335 417 389 417 q 248 380 279 417 q 217 279 217 343 q 248 176 217 214 q 335 140 279 139 m 336 885 l 528 885 l 393 644 l 276 644 l 336 885 z "},"ŏ":{"ha":669,"x_min":25,"x_max":644,"o":"m 335 -15 q 173 22 243 -15 q 64 125 103 58 q 25 279 25 192 q 64 432 25 365 q 173 535 103 499 q 335 571 243 571 q 497 535 426 571 q 606 432 567 499 q 644 279 644 365 q 606 125 644 192 q 497 22 567 58 q 335 -15 426 -15 m 335 140 q 421 176 389 139 q 453 279 453 214 q 421 380 453 343 q 335 417 389 417 q 248 380 279 417 q 217 279 217 343 q 248 176 217 214 q 335 140 279 139 m 335 651 q 174 701 231 651 q 113 849 118 751 l 247 849 q 275 785 253 807 q 335 763 297 763 q 422 849 414 763 l 557 849 q 492 701 549 751 q 335 651 435 651 z "},"ǒ":{"ha":669,"x_min":25,"x_max":644,"o":"m 335 -15 q 173 22 243 -15 q 64 125 103 58 q 25 279 25 192 q 64 432 25 365 q 173 535 103 499 q 335 571 243 571 q 497 535 426 571 q 606 432 567 499 q 644 279 644 365 q 606 125 644 192 q 497 22 567 58 q 335 -15 426 -15 m 335 140 q 421 176 389 139 q 453 279 453 214 q 421 380 453 343 q 335 417 389 417 q 248 380 279 417 q 217 279 217 343 q 248 176 217 214 q 335 140 279 139 m 121 882 l 257 882 l 340 725 l 424 882 l 547 882 l 451 640 l 229 640 l 121 882 z "},"ô":{"ha":669,"x_min":25,"x_max":644,"o":"m 335 -15 q 173 22 243 -15 q 64 125 103 58 q 25 279 25 192 q 64 432 25 365 q 173 535 103 499 q 335 571 243 571 q 497 535 426 571 q 606 432 567 499 q 644 279 644 365 q 606 125 644 192 q 497 22 567 58 q 335 -15 426 -15 m 335 140 q 421 176 389 139 q 453 279 453 214 q 421 380 453 343 q 335 417 389 417 q 248 380 279 417 q 217 279 217 343 q 248 176 217 214 q 335 140 279 139 m 231 883 l 442 883 l 558 640 l 429 640 l 335 799 l 240 640 l 111 640 l 231 883 z "},"ố":{"ha":669,"x_min":25,"x_max":724,"o":"m 335 -15 q 173 22 243 -15 q 64 125 103 58 q 25 279 25 192 q 64 432 25 365 q 173 535 103 499 q 335 571 243 571 q 497 535 426 571 q 606 432 567 499 q 644 279 644 365 q 606 125 644 192 q 497 22 567 58 q 335 -15 426 -15 m 335 140 q 421 176 389 139 q 453 279 453 214 q 421 380 453 343 q 335 417 389 417 q 248 380 279 417 q 217 279 217 343 q 248 176 217 214 q 335 140 279 139 m 574 958 l 724 958 l 611 769 l 514 769 l 574 958 m 240 831 l 431 831 l 549 640 l 419 640 l 335 747 l 250 640 l 121 640 l 240 831 z "},"ộ":{"ha":669,"x_min":25,"x_max":644,"o":"m 335 -15 q 173 22 243 -15 q 64 125 103 58 q 25 279 25 192 q 64 432 25 365 q 173 535 103 499 q 335 571 243 571 q 497 535 426 571 q 606 432 567 499 q 644 279 644 365 q 606 125 644 192 q 497 22 567 58 q 335 -15 426 -15 m 335 140 q 421 176 389 139 q 453 279 453 214 q 421 380 453 343 q 335 417 389 417 q 248 380 279 417 q 217 279 217 343 q 248 176 217 214 q 335 140 279 139 m 335 -269 q 260 -242 289 -269 q 231 -174 231 -215 q 259 -103 231 -129 q 335 -78 288 -78 q 410 -105 382 -78 q 439 -176 439 -132 q 410 -243 439 -217 q 335 -269 381 -269 m 231 883 l 442 883 l 558 640 l 429 640 l 335 799 l 240 640 l 111 640 l 231 883 z "},"ồ":{"ha":669,"x_min":25,"x_max":654,"o":"m 335 -15 q 173 22 243 -15 q 64 125 103 58 q 25 279 25 192 q 64 432 25 365 q 173 535 103 499 q 335 571 243 571 q 497 535 426 571 q 606 432 567 499 q 644 279 644 365 q 606 125 644 192 q 497 22 567 58 q 335 -15 426 -15 m 335 140 q 421 176 389 139 q 453 279 453 214 q 421 380 453 343 q 335 417 389 417 q 248 380 279 417 q 217 279 217 343 q 248 176 217 214 q 335 140 279 139 m 557 769 l 444 958 l 594 958 l 654 769 l 557 769 m 240 831 l 431 831 l 549 640 l 419 640 l 335 747 l 250 640 l 121 640 l 240 831 z "},"ổ":{"ha":669,"x_min":25,"x_max":667,"o":"m 335 -15 q 173 22 243 -15 q 64 125 103 58 q 25 279 25 192 q 64 432 25 365 q 173 535 103 499 q 335 571 243 571 q 497 535 426 571 q 606 432 567 499 q 644 279 644 365 q 606 125 644 192 q 497 22 567 58 q 335 -15 426 -15 m 335 140 q 421 176 389 139 q 453 279 453 214 q 421 380 453 343 q 335 417 389 417 q 248 380 279 417 q 217 279 217 343 q 248 176 217 214 q 335 140 279 139 m 517 808 q 551 831 540 818 q 563 861 563 843 q 547 894 563 882 q 506 906 532 906 q 426 882 465 906 l 403 950 q 535 997 460 997 q 631 966 594 997 q 667 883 667 935 q 536 747 667 781 l 517 808 m 240 831 l 431 831 l 549 640 l 419 640 l 335 747 l 250 640 l 121 640 l 240 831 z "},"ỗ":{"ha":669,"x_min":25,"x_max":644,"o":"m 335 -15 q 173 22 243 -15 q 64 125 103 58 q 25 279 25 192 q 64 432 25 365 q 173 535 103 499 q 335 571 243 571 q 497 535 426 571 q 606 432 567 499 q 644 279 644 365 q 606 125 644 192 q 497 22 567 58 q 335 -15 426 -15 m 335 140 q 421 176 389 139 q 453 279 453 214 q 421 380 453 343 q 335 417 389 417 q 248 380 279 417 q 217 279 217 343 q 248 176 217 214 q 335 140 279 139 m 439 886 q 390 894 413 886 q 332 918 367 901 q 285 938 304 931 q 249 944 267 944 q 193 888 199 944 l 96 888 q 140 1019 103 978 q 233 1061 178 1061 q 280 1053 257 1061 q 336 1031 303 1046 q 383 1011 364 1018 q 419 1004 401 1004 q 478 1054 469 1004 l 574 1054 q 439 886 560 886 m 240 831 l 431 831 l 549 640 l 419 640 l 335 747 l 250 640 l 121 640 l 240 831 z "},"ȍ":{"ha":669,"x_min":0,"x_max":644,"o":"m 335 -15 q 173 22 243 -15 q 64 125 103 58 q 25 279 25 192 q 64 432 25 365 q 173 535 103 499 q 335 571 243 571 q 497 535 426 571 q 606 432 567 499 q 644 279 644 365 q 606 125 644 192 q 497 22 567 58 q 335 -15 426 -15 m 335 140 q 421 176 389 139 q 453 279 453 214 q 421 380 453 343 q 335 417 389 417 q 248 380 279 417 q 217 279 217 343 q 248 176 217 214 q 335 140 279 139 m 0 888 l 192 888 l 254 644 l 136 644 l 0 888 m 269 888 l 461 888 l 524 644 l 404 644 l 269 888 z "},"ö":{"ha":669,"x_min":25,"x_max":644,"o":"m 335 -15 q 173 22 243 -15 q 64 125 103 58 q 25 279 25 192 q 64 432 25 365 q 173 535 103 499 q 335 571 243 571 q 497 535 426 571 q 606 432 567 499 q 644 279 644 365 q 606 125 644 192 q 497 22 567 58 q 335 -15 426 -15 m 335 140 q 421 176 389 139 q 453 279 453 214 q 421 380 453 343 q 335 417 389 417 q 248 380 279 417 q 217 279 217 343 q 248 176 217 214 q 335 140 279 139 m 164 664 q 85 692 117 664 q 54 768 54 719 q 85 845 54 817 q 164 874 117 874 q 242 845 210 874 q 274 768 274 817 q 242 692 274 719 q 164 664 210 664 m 506 664 q 428 692 460 664 q 397 768 397 719 q 428 845 397 817 q 506 874 460 874 q 584 845 553 874 q 615 768 615 817 q 584 692 615 719 q 506 664 553 664 z "},"ȫ":{"ha":669,"x_min":25,"x_max":644,"o":"m 335 -15 q 173 22 243 -15 q 64 125 103 58 q 25 279 25 192 q 64 432 25 365 q 173 535 103 499 q 335 571 243 571 q 497 535 426 571 q 606 432 567 499 q 644 279 644 365 q 606 125 644 192 q 497 22 567 58 q 335 -15 426 -15 m 335 140 q 421 176 389 139 q 453 279 453 214 q 421 380 453 343 q 335 417 389 417 q 248 380 279 417 q 217 279 217 343 q 248 176 217 214 q 335 140 279 139 m 164 664 q 85 692 117 664 q 54 768 54 719 q 85 845 54 817 q 164 874 117 874 q 242 845 210 874 q 274 768 274 817 q 242 692 274 719 q 164 664 210 664 m 506 664 q 428 692 460 664 q 397 768 397 719 q 428 845 397 817 q 506 874 460 874 q 584 845 553 874 q 615 768 615 817 q 584 692 615 719 q 506 664 553 664 m 153 1047 l 517 1047 l 517 938 l 153 938 l 153 1047 z "},"ȯ":{"ha":669,"x_min":25,"x_max":644,"o":"m 335 -15 q 173 22 243 -15 q 64 125 103 58 q 25 279 25 192 q 64 432 25 365 q 173 535 103 499 q 335 571 243 571 q 497 535 426 571 q 606 432 567 499 q 644 279 644 365 q 606 125 644 192 q 497 22 567 58 q 335 -15 426 -15 m 335 140 q 421 176 389 139 q 453 279 453 214 q 421 380 453 343 q 335 417 389 417 q 248 380 279 417 q 217 279 217 343 q 248 176 217 214 q 335 140 279 139 m 335 664 q 251 695 283 664 q 219 775 219 726 q 251 854 219 824 q 335 885 283 885 q 417 854 386 885 q 449 775 449 824 q 418 695 450 726 q 335 664 386 664 z "},"ȱ":{"ha":669,"x_min":25,"x_max":644,"o":"m 335 -15 q 173 22 243 -15 q 64 125 103 58 q 25 279 25 192 q 64 432 25 365 q 173 535 103 499 q 335 571 243 571 q 497 535 426 571 q 606 432 567 499 q 644 279 644 365 q 606 125 644 192 q 497 22 567 58 q 335 -15 426 -15 m 335 140 q 421 176 389 139 q 453 279 453 214 q 421 380 453 343 q 335 417 389 417 q 248 380 279 417 q 217 279 217 343 q 248 176 217 214 q 335 140 279 139 m 335 664 q 251 695 283 664 q 219 775 219 726 q 251 854 219 824 q 335 885 283 885 q 417 854 386 885 q 449 775 449 824 q 418 695 450 726 q 335 664 386 664 m 153 1056 l 517 1056 l 517 946 l 153 946 l 153 1056 z "},"ọ":{"ha":669,"x_min":25,"x_max":644,"o":"m 335 -15 q 173 22 243 -15 q 64 125 103 58 q 25 279 25 192 q 64 432 25 365 q 173 535 103 499 q 335 571 243 571 q 497 535 426 571 q 606 432 567 499 q 644 279 644 365 q 606 125 644 192 q 497 22 567 58 q 335 -15 426 -15 m 335 140 q 421 176 389 139 q 453 279 453 214 q 421 380 453 343 q 335 417 389 417 q 248 380 279 417 q 217 279 217 343 q 248 176 217 214 q 335 140 279 139 m 335 -269 q 260 -242 289 -269 q 231 -174 231 -215 q 259 -103 231 -129 q 335 -78 288 -78 q 410 -105 382 -78 q 439 -176 439 -132 q 410 -243 439 -217 q 335 -269 381 -269 z "}}}
